<?xml version="1.0" encoding="UTF-8"?>
<!DOCTYPE svg PUBLIC "-//W3C//DTD SVG 1.1//EN" "http://www.w3.org/Graphics/SVG/1.1/DTD/svg11.dtd">
<svg version="1.1" xmlns="http://www.w3.org/2000/svg" xmlns:xlink="http://www.w3.org/1999/xlink" x="0" y="0" width="512" height="512" viewBox="0, 0, 512, 512">
  <defs>
    <linearGradient id="Gradient_1" gradientUnits="userSpaceOnUse" x1="326.504" y1="133.253" x2="482.185" y2="133.253" gradientTransform="matrix(1, 0.004, -0.004, 1, 12.321, -18.439)">
      <stop offset="0" stop-color="#8690BB"/>
      <stop offset="0.265" stop-color="#6E76A6"/>
      <stop offset="0.665" stop-color="#B0BEE1"/>
      <stop offset="0.884" stop-color="#6E76A6"/>
      <stop offset="1" stop-color="#8A90B3"/>
    </linearGradient>
    <radialGradient id="Gradient_2" gradientUnits="userSpaceOnUse" cx="366.28" cy="140.881" r="50.001" gradientTransform="matrix(1.045, 0.004, -0.004, 1, 33.914, -18.352)">
      <stop offset="0" stop-color="#3BDA83"/>
      <stop offset="0.228" stop-color="#00ECCC"/>
    </radialGradient>
    <radialGradient id="Gradient_3" gradientUnits="userSpaceOnUse" cx="195.269" cy="-223.263" r="4.58" gradientTransform="matrix(0.9, 0.436, -0.326, 0.673, 104.568, 172.99)">
      <stop offset="0.065" stop-color="#00ECCC"/>
      <stop offset="0.252" stop-color="#00E7C7"/>
      <stop offset="0.481" stop-color="#00D8BB"/>
      <stop offset="0.732" stop-color="#00BFA5"/>
      <stop offset="0.997" stop-color="#009C87"/>
      <stop offset="1" stop-color="#009C87"/>
    </radialGradient>
    <radialGradient id="Gradient_4" gradientUnits="userSpaceOnUse" cx="212.26" cy="-221.32" r="4.58" gradientTransform="matrix(0.9, 0.436, -0.326, 0.673, 104.986, 172.361)">
      <stop offset="0.065" stop-color="#00ECCC"/>
      <stop offset="0.252" stop-color="#00E7C7"/>
      <stop offset="0.481" stop-color="#00D8BB"/>
      <stop offset="0.732" stop-color="#00BFA5"/>
      <stop offset="0.997" stop-color="#009C87"/>
      <stop offset="1" stop-color="#009C87"/>
    </radialGradient>
    <radialGradient id="Gradient_5" gradientUnits="userSpaceOnUse" cx="320.663" cy="-64.745" r="4.58" gradientTransform="matrix(0.962, 0.271, -0.203, 0.72, 66.275, 81.564)">
      <stop offset="0.065" stop-color="#00ECCC"/>
      <stop offset="0.252" stop-color="#00E7C7"/>
      <stop offset="0.481" stop-color="#00D8BB"/>
      <stop offset="0.732" stop-color="#00BFA5"/>
      <stop offset="0.997" stop-color="#009C87"/>
      <stop offset="1" stop-color="#009C87"/>
    </radialGradient>
    <radialGradient id="Gradient_6" gradientUnits="userSpaceOnUse" cx="408.977" cy="109.654" r="4.58" gradientTransform="matrix(0.996, 0.092, -0.069, 0.744, 12.889, 5.779)">
      <stop offset="0.065" stop-color="#00ECCC"/>
      <stop offset="0.252" stop-color="#00E7C7"/>
      <stop offset="0.481" stop-color="#00D8BB"/>
      <stop offset="0.732" stop-color="#00BFA5"/>
      <stop offset="0.997" stop-color="#009C87"/>
      <stop offset="1" stop-color="#009C87"/>
    </radialGradient>
    <radialGradient id="Gradient_7" gradientUnits="userSpaceOnUse" cx="448.424" cy="171.774" r="4.58" gradientTransform="matrix(1, 0.03, -0.022, 0.747, -7.349, -17.401)">
      <stop offset="0.065" stop-color="#00ECCC"/>
      <stop offset="0.252" stop-color="#00E7C7"/>
      <stop offset="0.481" stop-color="#00D8BB"/>
      <stop offset="0.732" stop-color="#00BFA5"/>
      <stop offset="0.997" stop-color="#009C87"/>
      <stop offset="1" stop-color="#009C87"/>
    </radialGradient>
    <radialGradient id="Gradient_8" gradientUnits="userSpaceOnUse" cx="486.717" cy="276.886" r="4.58" gradientTransform="matrix(0.997, -0.074, 0.055, 0.746, -42.895, -49.61)">
      <stop offset="0.065" stop-color="#00ECCC"/>
      <stop offset="0.252" stop-color="#00E7C7"/>
      <stop offset="0.481" stop-color="#00D8BB"/>
      <stop offset="0.732" stop-color="#00BFA5"/>
      <stop offset="0.997" stop-color="#009C87"/>
      <stop offset="1" stop-color="#009C87"/>
    </radialGradient>
    <radialGradient id="Gradient_9" gradientUnits="userSpaceOnUse" cx="491.536" cy="644.89" r="4.58" gradientTransform="matrix(0.908, -0.418, 0.313, 0.679, -169.436, -119.323)">
      <stop offset="0.065" stop-color="#00ECCC"/>
      <stop offset="0.252" stop-color="#00E7C7"/>
      <stop offset="0.481" stop-color="#00D8BB"/>
      <stop offset="0.732" stop-color="#00BFA5"/>
      <stop offset="0.997" stop-color="#009C87"/>
      <stop offset="1" stop-color="#009C87"/>
    </radialGradient>
    <radialGradient id="Gradient_10" gradientUnits="userSpaceOnUse" cx="407.222" cy="49.302" r="45.132" gradientTransform="matrix(0.98, 0.199, -0.192, 0.945, 21.518, -27.658)">
      <stop offset="0.093" stop-color="#FFFFFF"/>
      <stop offset="0.256" stop-color="#43DD89"/>
      <stop offset="0.338" stop-color="#5BD692"/>
      <stop offset="0.472" stop-color="#5ECE91"/>
      <stop offset="0.63" stop-color="#4DD189"/>
      <stop offset="1" stop-color="#3BDA83"/>
    </radialGradient>
    <linearGradient id="Gradient_11" gradientUnits="userSpaceOnUse" x1="87.481" y1="151.282" x2="190.767" y2="151.282" gradientTransform="matrix(1, 0.004, -0.004, 1, 12.321, -18.439)">
      <stop offset="0" stop-color="#8690BB"/>
      <stop offset="0.265" stop-color="#6E76A6"/>
      <stop offset="0.665" stop-color="#B0BEE1"/>
      <stop offset="0.884" stop-color="#6E76A6"/>
      <stop offset="1" stop-color="#8A90B3"/>
    </linearGradient>
    <radialGradient id="Gradient_12" gradientUnits="userSpaceOnUse" cx="112.474" cy="156.341" r="33.173" gradientTransform="matrix(1.045, 0.004, -0.004, 1, 33.914, -18.352)">
      <stop offset="0" stop-color="#3BDA83"/>
      <stop offset="0.228" stop-color="#00ECCC"/>
    </radialGradient>
    <radialGradient id="Gradient_13" gradientUnits="userSpaceOnUse" cx="-15.756" cy="-57.121" r="3.039" gradientTransform="matrix(0.9, 0.436, -0.326, 0.673, 104.568, 172.99)">
      <stop offset="0.065" stop-color="#00ECCC"/>
      <stop offset="0.252" stop-color="#00E7C7"/>
      <stop offset="0.481" stop-color="#00D8BB"/>
      <stop offset="0.732" stop-color="#00BFA5"/>
      <stop offset="0.997" stop-color="#009C87"/>
      <stop offset="1" stop-color="#009C87"/>
    </radialGradient>
    <radialGradient id="Gradient_14" gradientUnits="userSpaceOnUse" cx="-4.518" cy="-55.495" r="3.039" gradientTransform="matrix(0.9, 0.436, -0.326, 0.673, 104.986, 172.361)">
      <stop offset="0.065" stop-color="#00ECCC"/>
      <stop offset="0.252" stop-color="#00E7C7"/>
      <stop offset="0.481" stop-color="#00D8BB"/>
      <stop offset="0.732" stop-color="#00BFA5"/>
      <stop offset="0.997" stop-color="#009C87"/>
      <stop offset="1" stop-color="#009C87"/>
    </radialGradient>
    <radialGradient id="Gradient_15" gradientUnits="userSpaceOnUse" cx="78.528" cy="47.565" r="3.039" gradientTransform="matrix(0.962, 0.271, -0.203, 0.72, 66.275, 81.564)">
      <stop offset="0.065" stop-color="#00ECCC"/>
      <stop offset="0.252" stop-color="#00E7C7"/>
      <stop offset="0.481" stop-color="#00D8BB"/>
      <stop offset="0.732" stop-color="#00BFA5"/>
      <stop offset="0.997" stop-color="#009C87"/>
      <stop offset="1" stop-color="#009C87"/>
    </radialGradient>
    <radialGradient id="Gradient_16" gradientUnits="userSpaceOnUse" cx="147.285" cy="160.879" r="3.039" gradientTransform="matrix(0.996, 0.092, -0.069, 0.744, 12.889, 5.779)">
      <stop offset="0.065" stop-color="#00ECCC"/>
      <stop offset="0.252" stop-color="#00E7C7"/>
      <stop offset="0.481" stop-color="#00D8BB"/>
      <stop offset="0.732" stop-color="#00BFA5"/>
      <stop offset="0.997" stop-color="#009C87"/>
      <stop offset="1" stop-color="#009C87"/>
    </radialGradient>
    <radialGradient id="Gradient_17" gradientUnits="userSpaceOnUse" cx="176.65" cy="201.782" r="3.039" gradientTransform="matrix(1, 0.03, -0.022, 0.747, -7.349, -17.401)">
      <stop offset="0.065" stop-color="#00ECCC"/>
      <stop offset="0.252" stop-color="#00E7C7"/>
      <stop offset="0.481" stop-color="#00D8BB"/>
      <stop offset="0.732" stop-color="#00BFA5"/>
      <stop offset="0.997" stop-color="#009C87"/>
      <stop offset="1" stop-color="#009C87"/>
    </radialGradient>
    <radialGradient id="Gradient_18" gradientUnits="userSpaceOnUse" cx="207.033" cy="269.942" r="3.039" gradientTransform="matrix(0.997, -0.074, 0.055, 0.746, -42.895, -49.61)">
      <stop offset="0.065" stop-color="#00ECCC"/>
      <stop offset="0.252" stop-color="#00E7C7"/>
      <stop offset="0.481" stop-color="#00D8BB"/>
      <stop offset="0.732" stop-color="#00BFA5"/>
      <stop offset="0.997" stop-color="#009C87"/>
      <stop offset="1" stop-color="#009C87"/>
    </radialGradient>
    <radialGradient id="Gradient_19" gradientUnits="userSpaceOnUse" cx="223.857" cy="506.683" r="3.039" gradientTransform="matrix(0.908, -0.418, 0.313, 0.679, -169.436, -119.323)">
      <stop offset="0.065" stop-color="#00ECCC"/>
      <stop offset="0.252" stop-color="#00E7C7"/>
      <stop offset="0.481" stop-color="#00D8BB"/>
      <stop offset="0.732" stop-color="#00BFA5"/>
      <stop offset="0.997" stop-color="#009C87"/>
      <stop offset="1" stop-color="#009C87"/>
    </radialGradient>
    <radialGradient id="Gradient_20" gradientUnits="userSpaceOnUse" cx="153.389" cy="126.591" r="29.943" gradientTransform="matrix(0.98, 0.199, -0.192, 0.945, 21.518, -27.658)">
      <stop offset="0.093" stop-color="#FFFFFF"/>
      <stop offset="0.256" stop-color="#43DD89"/>
      <stop offset="0.338" stop-color="#5BD692"/>
      <stop offset="0.472" stop-color="#5ECE91"/>
      <stop offset="0.63" stop-color="#4DD189"/>
      <stop offset="1" stop-color="#3BDA83"/>
    </radialGradient>
    <linearGradient id="Gradient_21" gradientUnits="userSpaceOnUse" x1="12.617" y1="435.122" x2="166.009" y2="435.122" gradientTransform="matrix(1, 0.004, -0.004, 1, 12.321, -18.439)">
      <stop offset="0" stop-color="#8690BB"/>
      <stop offset="0.265" stop-color="#6E76A6"/>
      <stop offset="0.665" stop-color="#B0BEE1"/>
      <stop offset="0.884" stop-color="#6E76A6"/>
      <stop offset="1" stop-color="#8A90B3"/>
    </linearGradient>
    <radialGradient id="Gradient_22" gradientUnits="userSpaceOnUse" cx="64.808" cy="442.633" r="49.266" gradientTransform="matrix(1.045, 0.004, -0.004, 1, 33.914, -18.352)">
      <stop offset="0" stop-color="#3BDA83"/>
      <stop offset="0.228" stop-color="#00ECCC"/>
    </radialGradient>
    <radialGradient id="Gradient_23" gradientUnits="userSpaceOnUse" cx="42.481" cy="322.556" r="4.513" gradientTransform="matrix(0.9, 0.436, -0.326, 0.673, 104.568, 172.99)">
      <stop offset="0.065" stop-color="#00ECCC"/>
      <stop offset="0.252" stop-color="#00E7C7"/>
      <stop offset="0.481" stop-color="#00D8BB"/>
      <stop offset="0.732" stop-color="#00BFA5"/>
      <stop offset="0.997" stop-color="#009C87"/>
      <stop offset="1" stop-color="#009C87"/>
    </radialGradient>
    <radialGradient id="Gradient_24" gradientUnits="userSpaceOnUse" cx="59.22" cy="324.485" r="4.513" gradientTransform="matrix(0.9, 0.436, -0.326, 0.673, 104.986, 172.361)">
      <stop offset="0.065" stop-color="#00ECCC"/>
      <stop offset="0.252" stop-color="#00E7C7"/>
      <stop offset="0.481" stop-color="#00D8BB"/>
      <stop offset="0.732" stop-color="#00BFA5"/>
      <stop offset="0.997" stop-color="#009C87"/>
      <stop offset="1" stop-color="#009C87"/>
    </radialGradient>
    <radialGradient id="Gradient_25" gradientUnits="userSpaceOnUse" cx="98.284" cy="436.802" r="4.513" gradientTransform="matrix(0.962, 0.271, -0.203, 0.72, 66.275, 81.564)">
      <stop offset="0.065" stop-color="#00ECCC"/>
      <stop offset="0.252" stop-color="#00E7C7"/>
      <stop offset="0.481" stop-color="#00D8BB"/>
      <stop offset="0.732" stop-color="#00BFA5"/>
      <stop offset="0.997" stop-color="#009C87"/>
      <stop offset="1" stop-color="#009C87"/>
    </radialGradient>
    <radialGradient id="Gradient_26" gradientUnits="userSpaceOnUse" cx="121.73" cy="548.748" r="4.513" gradientTransform="matrix(0.996, 0.092, -0.069, 0.744, 12.889, 5.779)">
      <stop offset="0.065" stop-color="#00ECCC"/>
      <stop offset="0.252" stop-color="#00E7C7"/>
      <stop offset="0.481" stop-color="#00D8BB"/>
      <stop offset="0.732" stop-color="#00BFA5"/>
      <stop offset="0.997" stop-color="#009C87"/>
      <stop offset="1" stop-color="#009C87"/>
    </radialGradient>
    <radialGradient id="Gradient_27" gradientUnits="userSpaceOnUse" cx="141.013" cy="586.207" r="4.513" gradientTransform="matrix(1, 0.03, -0.022, 0.747, -7.349, -17.401)">
      <stop offset="0.065" stop-color="#00ECCC"/>
      <stop offset="0.252" stop-color="#00E7C7"/>
      <stop offset="0.481" stop-color="#00D8BB"/>
      <stop offset="0.732" stop-color="#00BFA5"/>
      <stop offset="0.997" stop-color="#009C87"/>
      <stop offset="1" stop-color="#009C87"/>
    </radialGradient>
    <radialGradient id="Gradient_28" gradientUnits="userSpaceOnUse" cx="148.555" cy="646.517" r="4.513" gradientTransform="matrix(0.997, -0.074, 0.055, 0.746, -42.895, -49.61)">
      <stop offset="0.065" stop-color="#00ECCC"/>
      <stop offset="0.252" stop-color="#00E7C7"/>
      <stop offset="0.481" stop-color="#00D8BB"/>
      <stop offset="0.732" stop-color="#00BFA5"/>
      <stop offset="0.997" stop-color="#009C87"/>
      <stop offset="1" stop-color="#009C87"/>
    </radialGradient>
    <radialGradient id="Gradient_29" gradientUnits="userSpaceOnUse" cx="77.683" cy="832.682" r="4.513" gradientTransform="matrix(0.908, -0.418, 0.313, 0.679, -169.436, -119.323)">
      <stop offset="0.065" stop-color="#00ECCC"/>
      <stop offset="0.252" stop-color="#00E7C7"/>
      <stop offset="0.481" stop-color="#00D8BB"/>
      <stop offset="0.732" stop-color="#00BFA5"/>
      <stop offset="0.997" stop-color="#009C87"/>
      <stop offset="1" stop-color="#009C87"/>
    </radialGradient>
    <radialGradient id="Gradient_30" gradientUnits="userSpaceOnUse" cx="157.36" cy="420.266" r="44.469" gradientTransform="matrix(0.98, 0.199, -0.192, 0.945, 21.518, -27.658)">
      <stop offset="0.093" stop-color="#FFFFFF"/>
      <stop offset="0.256" stop-color="#43DD89"/>
      <stop offset="0.338" stop-color="#5BD692"/>
      <stop offset="0.472" stop-color="#5ECE91"/>
      <stop offset="0.63" stop-color="#4DD189"/>
      <stop offset="1" stop-color="#3BDA83"/>
    </radialGradient>
    <linearGradient id="Gradient_31" gradientUnits="userSpaceOnUse" x1="178.119" y1="445.33" x2="332.617" y2="445.33" gradientTransform="matrix(1, 0.004, -0.004, 1, 12.321, -18.439)">
      <stop offset="0" stop-color="#8690BB"/>
      <stop offset="0.265" stop-color="#6E76A6"/>
      <stop offset="0.665" stop-color="#B0BEE1"/>
      <stop offset="0.884" stop-color="#6E76A6"/>
      <stop offset="1" stop-color="#8A90B3"/>
    </linearGradient>
    <radialGradient id="Gradient_32" gradientUnits="userSpaceOnUse" cx="223.716" cy="452.899" r="49.621" gradientTransform="matrix(1.045, 0.004, -0.004, 1, 33.914, -18.352)">
      <stop offset="0" stop-color="#3BDA83"/>
      <stop offset="0.228" stop-color="#00ECCC"/>
    </radialGradient>
    <radialGradient id="Gradient_33" gradientUnits="userSpaceOnUse" cx="196.216" cy="239.094" r="4.546" gradientTransform="matrix(0.9, 0.436, -0.326, 0.673, 104.568, 172.99)">
      <stop offset="0.065" stop-color="#00ECCC"/>
      <stop offset="0.252" stop-color="#00E7C7"/>
      <stop offset="0.481" stop-color="#00D8BB"/>
      <stop offset="0.732" stop-color="#00BFA5"/>
      <stop offset="0.997" stop-color="#009C87"/>
      <stop offset="1" stop-color="#009C87"/>
    </radialGradient>
    <radialGradient id="Gradient_34" gradientUnits="userSpaceOnUse" cx="213.076" cy="241.03" r="4.546" gradientTransform="matrix(0.9, 0.436, -0.326, 0.673, 104.986, 172.361)">
      <stop offset="0.065" stop-color="#00ECCC"/>
      <stop offset="0.252" stop-color="#00E7C7"/>
      <stop offset="0.481" stop-color="#00D8BB"/>
      <stop offset="0.732" stop-color="#00BFA5"/>
      <stop offset="0.997" stop-color="#009C87"/>
      <stop offset="1" stop-color="#009C87"/>
    </radialGradient>
    <radialGradient id="Gradient_35" gradientUnits="userSpaceOnUse" cx="260.836" cy="390.649" r="4.546" gradientTransform="matrix(0.962, 0.271, -0.203, 0.72, 66.275, 81.564)">
      <stop offset="0.065" stop-color="#00ECCC"/>
      <stop offset="0.252" stop-color="#00E7C7"/>
      <stop offset="0.481" stop-color="#00D8BB"/>
      <stop offset="0.732" stop-color="#00BFA5"/>
      <stop offset="0.997" stop-color="#009C87"/>
      <stop offset="1" stop-color="#009C87"/>
    </radialGradient>
    <radialGradient id="Gradient_36" gradientUnits="userSpaceOnUse" cx="288.016" cy="542.912" r="4.546" gradientTransform="matrix(0.996, 0.092, -0.069, 0.744, 12.889, 5.779)">
      <stop offset="0.065" stop-color="#00ECCC"/>
      <stop offset="0.252" stop-color="#00E7C7"/>
      <stop offset="0.481" stop-color="#00D8BB"/>
      <stop offset="0.732" stop-color="#00BFA5"/>
      <stop offset="0.997" stop-color="#009C87"/>
      <stop offset="1" stop-color="#009C87"/>
    </radialGradient>
    <radialGradient id="Gradient_37" gradientUnits="userSpaceOnUse" cx="307.422" cy="594.177" r="4.546" gradientTransform="matrix(1, 0.03, -0.022, 0.747, -7.349, -17.401)">
      <stop offset="0.065" stop-color="#00ECCC"/>
      <stop offset="0.252" stop-color="#00E7C7"/>
      <stop offset="0.481" stop-color="#00D8BB"/>
      <stop offset="0.732" stop-color="#00BFA5"/>
      <stop offset="0.997" stop-color="#009C87"/>
      <stop offset="1" stop-color="#009C87"/>
    </radialGradient>
    <radialGradient id="Gradient_38" gradientUnits="userSpaceOnUse" cx="313.605" cy="677.467" r="4.546" gradientTransform="matrix(0.997, -0.074, 0.055, 0.746, -42.895, -49.61)">
      <stop offset="0.065" stop-color="#00ECCC"/>
      <stop offset="0.252" stop-color="#00E7C7"/>
      <stop offset="0.481" stop-color="#00D8BB"/>
      <stop offset="0.732" stop-color="#00BFA5"/>
      <stop offset="0.997" stop-color="#009C87"/>
      <stop offset="1" stop-color="#009C87"/>
    </radialGradient>
    <radialGradient id="Gradient_39" gradientUnits="userSpaceOnUse" cx="224.346" cy="939.006" r="4.546" gradientTransform="matrix(0.908, -0.418, 0.313, 0.679, -169.436, -119.323)">
      <stop offset="0.065" stop-color="#00ECCC"/>
      <stop offset="0.252" stop-color="#00E7C7"/>
      <stop offset="0.481" stop-color="#00D8BB"/>
      <stop offset="0.732" stop-color="#00BFA5"/>
      <stop offset="0.997" stop-color="#009C87"/>
      <stop offset="1" stop-color="#009C87"/>
    </radialGradient>
    <radialGradient id="Gradient_40" gradientUnits="userSpaceOnUse" cx="322.158" cy="396.889" r="44.789" gradientTransform="matrix(0.98, 0.199, -0.192, 0.945, 21.518, -27.658)">
      <stop offset="0.093" stop-color="#FFFFFF"/>
      <stop offset="0.256" stop-color="#43DD89"/>
      <stop offset="0.338" stop-color="#5BD692"/>
      <stop offset="0.472" stop-color="#5ECE91"/>
      <stop offset="0.63" stop-color="#4DD189"/>
      <stop offset="1" stop-color="#3BDA83"/>
    </radialGradient>
    <linearGradient id="Gradient_41" gradientUnits="userSpaceOnUse" x1="322.774" y1="381.195" x2="426.376" y2="381.195" gradientTransform="matrix(1, 0.004, -0.004, 1, 12.321, -18.439)">
      <stop offset="0" stop-color="#8690BB"/>
      <stop offset="0.265" stop-color="#6E76A6"/>
      <stop offset="0.665" stop-color="#B0BEE1"/>
      <stop offset="0.884" stop-color="#6E76A6"/>
      <stop offset="1" stop-color="#8A90B3"/>
    </linearGradient>
    <radialGradient id="Gradient_42" gradientUnits="userSpaceOnUse" cx="337.792" cy="386.273" r="33.275" gradientTransform="matrix(1.045, 0.004, -0.004, 1, 33.914, -18.352)">
      <stop offset="0" stop-color="#3BDA83"/>
      <stop offset="0.228" stop-color="#00ECCC"/>
    </radialGradient>
    <radialGradient id="Gradient_43" gradientUnits="userSpaceOnUse" cx="295.798" cy="84.211" r="3.048" gradientTransform="matrix(0.9, 0.436, -0.326, 0.673, 104.568, 172.99)">
      <stop offset="0.065" stop-color="#00ECCC"/>
      <stop offset="0.252" stop-color="#00E7C7"/>
      <stop offset="0.481" stop-color="#00D8BB"/>
      <stop offset="0.732" stop-color="#00BFA5"/>
      <stop offset="0.997" stop-color="#009C87"/>
      <stop offset="1" stop-color="#009C87"/>
    </radialGradient>
    <radialGradient id="Gradient_44" gradientUnits="userSpaceOnUse" cx="307.071" cy="85.839" r="3.048" gradientTransform="matrix(0.9, 0.436, -0.326, 0.673, 104.986, 172.361)">
      <stop offset="0.065" stop-color="#00ECCC"/>
      <stop offset="0.252" stop-color="#00E7C7"/>
      <stop offset="0.481" stop-color="#00D8BB"/>
      <stop offset="0.732" stop-color="#00BFA5"/>
      <stop offset="0.997" stop-color="#009C87"/>
      <stop offset="1" stop-color="#009C87"/>
    </radialGradient>
    <radialGradient id="Gradient_45" gradientUnits="userSpaceOnUse" cx="366.877" cy="259.641" r="3.048" gradientTransform="matrix(0.962, 0.271, -0.203, 0.72, 66.275, 81.564)">
      <stop offset="0.065" stop-color="#00ECCC"/>
      <stop offset="0.252" stop-color="#00E7C7"/>
      <stop offset="0.481" stop-color="#00D8BB"/>
      <stop offset="0.732" stop-color="#00BFA5"/>
      <stop offset="0.997" stop-color="#009C87"/>
      <stop offset="1" stop-color="#009C87"/>
    </radialGradient>
    <radialGradient id="Gradient_46" gradientUnits="userSpaceOnUse" cx="402.011" cy="439.573" r="3.048" gradientTransform="matrix(0.996, 0.092, -0.069, 0.744, 12.889, 5.779)">
      <stop offset="0.065" stop-color="#00ECCC"/>
      <stop offset="0.252" stop-color="#00E7C7"/>
      <stop offset="0.481" stop-color="#00D8BB"/>
      <stop offset="0.732" stop-color="#00BFA5"/>
      <stop offset="0.997" stop-color="#009C87"/>
      <stop offset="1" stop-color="#009C87"/>
    </radialGradient>
    <radialGradient id="Gradient_47" gradientUnits="userSpaceOnUse" cx="418.013" cy="501.093" r="3.048" gradientTransform="matrix(1, 0.03, -0.022, 0.747, -7.349, -17.401)">
      <stop offset="0.065" stop-color="#00ECCC"/>
      <stop offset="0.252" stop-color="#00E7C7"/>
      <stop offset="0.481" stop-color="#00D8BB"/>
      <stop offset="0.732" stop-color="#00BFA5"/>
      <stop offset="0.997" stop-color="#009C87"/>
      <stop offset="1" stop-color="#009C87"/>
    </radialGradient>
    <radialGradient id="Gradient_48" gradientUnits="userSpaceOnUse" cx="423.971" cy="601.025" r="3.048" gradientTransform="matrix(0.997, -0.074, 0.055, 0.746, -42.895, -49.61)">
      <stop offset="0.065" stop-color="#00ECCC"/>
      <stop offset="0.252" stop-color="#00E7C7"/>
      <stop offset="0.481" stop-color="#00D8BB"/>
      <stop offset="0.732" stop-color="#00BFA5"/>
      <stop offset="0.997" stop-color="#009C87"/>
      <stop offset="1" stop-color="#009C87"/>
    </radialGradient>
    <radialGradient id="Gradient_49" gradientUnits="userSpaceOnUse" cx="340.444" cy="918.442" r="3.048" gradientTransform="matrix(0.908, -0.418, 0.313, 0.679, -169.436, -119.323)">
      <stop offset="0.065" stop-color="#00ECCC"/>
      <stop offset="0.252" stop-color="#00E7C7"/>
      <stop offset="0.481" stop-color="#00D8BB"/>
      <stop offset="0.732" stop-color="#00BFA5"/>
      <stop offset="0.997" stop-color="#009C87"/>
      <stop offset="1" stop-color="#009C87"/>
    </radialGradient>
    <radialGradient id="Gradient_50" gradientUnits="userSpaceOnUse" cx="429.225" cy="312.601" r="30.035" gradientTransform="matrix(0.98, 0.199, -0.192, 0.945, 21.518, -27.658)">
      <stop offset="0.093" stop-color="#FFFFFF"/>
      <stop offset="0.256" stop-color="#43DD89"/>
      <stop offset="0.338" stop-color="#5BD692"/>
      <stop offset="0.472" stop-color="#5ECE91"/>
      <stop offset="0.63" stop-color="#4DD189"/>
      <stop offset="1" stop-color="#3BDA83"/>
    </radialGradient>
    <linearGradient id="Gradient_51" gradientUnits="userSpaceOnUse" x1="156.657" y1="277.458" x2="363.034" y2="277.458" gradientTransform="matrix(1, 0.004, -0.004, 1, 12.321, -18.439)">
      <stop offset="0" stop-color="#8690BB"/>
      <stop offset="0.265" stop-color="#6E76A6"/>
      <stop offset="0.665" stop-color="#B0BEE1"/>
      <stop offset="0.884" stop-color="#6E76A6"/>
      <stop offset="1" stop-color="#8A90B3"/>
    </linearGradient>
    <radialGradient id="Gradient_52" gradientUnits="userSpaceOnUse" cx="228.001" cy="287.567" r="66.283" gradientTransform="matrix(1.045, 0.004, -0.004, 1, 33.914, -18.352)">
      <stop offset="0" stop-color="#3BDA83"/>
      <stop offset="0.228" stop-color="#00ECCC"/>
    </radialGradient>
    <radialGradient id="Gradient_53" gradientUnits="userSpaceOnUse" cx="107.552" cy="42.791" r="6.072" gradientTransform="matrix(0.9, 0.436, -0.326, 0.673, 104.568, 172.99)">
      <stop offset="0.065" stop-color="#00ECCC"/>
      <stop offset="0.252" stop-color="#00E7C7"/>
      <stop offset="0.481" stop-color="#00D8BB"/>
      <stop offset="0.732" stop-color="#00BFA5"/>
      <stop offset="0.997" stop-color="#009C87"/>
      <stop offset="1" stop-color="#009C87"/>
    </radialGradient>
    <radialGradient id="Gradient_54" gradientUnits="userSpaceOnUse" cx="130.108" cy="45.041" r="6.072" gradientTransform="matrix(0.9, 0.436, -0.326, 0.673, 104.986, 172.361)">
      <stop offset="0.065" stop-color="#00ECCC"/>
      <stop offset="0.252" stop-color="#00E7C7"/>
      <stop offset="0.481" stop-color="#00D8BB"/>
      <stop offset="0.732" stop-color="#00BFA5"/>
      <stop offset="0.997" stop-color="#009C87"/>
      <stop offset="1" stop-color="#009C87"/>
    </radialGradient>
    <radialGradient id="Gradient_55" gradientUnits="userSpaceOnUse" cx="211.715" cy="178.486" r="6.072" gradientTransform="matrix(0.962, 0.271, -0.203, 0.72, 66.275, 81.564)">
      <stop offset="0.065" stop-color="#00ECCC"/>
      <stop offset="0.252" stop-color="#00E7C7"/>
      <stop offset="0.481" stop-color="#00D8BB"/>
      <stop offset="0.732" stop-color="#00BFA5"/>
      <stop offset="0.997" stop-color="#009C87"/>
      <stop offset="1" stop-color="#009C87"/>
    </radialGradient>
    <radialGradient id="Gradient_56" gradientUnits="userSpaceOnUse" cx="276.826" cy="322.642" r="6.072" gradientTransform="matrix(0.996, 0.092, -0.069, 0.744, 12.889, 5.779)">
      <stop offset="0.065" stop-color="#00ECCC"/>
      <stop offset="0.252" stop-color="#00E7C7"/>
      <stop offset="0.481" stop-color="#00D8BB"/>
      <stop offset="0.732" stop-color="#00BFA5"/>
      <stop offset="0.997" stop-color="#009C87"/>
      <stop offset="1" stop-color="#009C87"/>
    </radialGradient>
    <radialGradient id="Gradient_57" gradientUnits="userSpaceOnUse" cx="314.598" cy="372.793" r="6.072" gradientTransform="matrix(1, 0.03, -0.022, 0.747, -7.349, -17.401)">
      <stop offset="0.065" stop-color="#00ECCC"/>
      <stop offset="0.252" stop-color="#00E7C7"/>
      <stop offset="0.481" stop-color="#00D8BB"/>
      <stop offset="0.732" stop-color="#00BFA5"/>
      <stop offset="0.997" stop-color="#009C87"/>
      <stop offset="1" stop-color="#009C87"/>
    </radialGradient>
    <radialGradient id="Gradient_58" gradientUnits="userSpaceOnUse" cx="344.856" cy="457.456" r="6.072" gradientTransform="matrix(0.997, -0.074, 0.055, 0.746, -42.895, -49.61)">
      <stop offset="0.065" stop-color="#00ECCC"/>
      <stop offset="0.252" stop-color="#00E7C7"/>
      <stop offset="0.481" stop-color="#00D8BB"/>
      <stop offset="0.732" stop-color="#00BFA5"/>
      <stop offset="0.997" stop-color="#009C87"/>
      <stop offset="1" stop-color="#009C87"/>
    </radialGradient>
    <radialGradient id="Gradient_59" gradientUnits="userSpaceOnUse" cx="318.649" cy="748.235" r="6.072" gradientTransform="matrix(0.908, -0.418, 0.313, 0.679, -169.436, -119.323)">
      <stop offset="0.065" stop-color="#00ECCC"/>
      <stop offset="0.252" stop-color="#00E7C7"/>
      <stop offset="0.481" stop-color="#00D8BB"/>
      <stop offset="0.732" stop-color="#00BFA5"/>
      <stop offset="0.997" stop-color="#009C87"/>
      <stop offset="1" stop-color="#009C87"/>
    </radialGradient>
    <radialGradient id="Gradient_60" gradientUnits="userSpaceOnUse" cx="291.008" cy="220.14" r="59.829" gradientTransform="matrix(0.98, 0.199, -0.192, 0.945, 21.518, -27.658)">
      <stop offset="0.093" stop-color="#FFFFFF"/>
      <stop offset="0.256" stop-color="#43DD89"/>
      <stop offset="0.338" stop-color="#5BD692"/>
      <stop offset="0.472" stop-color="#5ECE91"/>
      <stop offset="0.63" stop-color="#4DD189"/>
      <stop offset="1" stop-color="#3BDA83"/>
    </radialGradient>
  </defs>
  <g id="Layer_3">
    <path d="M412.364,56 C388.298,56 368.727,75.571 368.727,99.636 C368.727,107.164 370.64,114.247 374.007,120.436 L302.524,191.92 C292.669,184.247 280.335,179.636 266.909,179.636 C253.484,179.636 241.149,184.247 231.287,191.913 L175.513,136.138 C178.073,131.811 179.636,126.836 179.636,121.455 C179.636,105.411 166.589,92.364 150.545,92.364 C134.502,92.364 121.455,105.411 121.455,121.455 C121.455,137.498 134.502,150.545 150.545,150.545 C155.927,150.545 160.902,148.982 165.229,146.422 L221.004,202.196 C213.338,212.058 208.727,224.393 208.727,237.818 C208.727,251.244 213.338,263.578 221.004,273.433 L128.902,365.542 C121.149,358.509 110.902,354.182 99.636,354.182 C75.571,354.182 56,373.753 56,397.818 C56,421.884 75.571,441.455 99.636,441.455 C123.702,441.455 143.273,421.884 143.273,397.818 C143.273,390.291 141.36,383.207 137.993,377.018 L231.295,283.716 C239.338,289.971 249.04,294.16 259.644,295.491 L259.644,369.382 C239.04,372.858 223.28,390.778 223.28,412.364 C223.28,436.429 242.851,456 266.916,456 C290.982,456 310.553,436.429 310.553,412.364 C310.553,390.785 294.793,372.865 274.189,369.382 L274.189,295.491 C284.793,294.16 294.495,289.971 302.538,283.716 L358.313,339.491 C355.745,343.825 354.182,348.8 354.182,354.182 C354.182,370.225 367.229,383.273 383.273,383.273 C399.316,383.273 412.364,370.225 412.364,354.182 C412.364,338.138 399.316,325.091 383.273,325.091 C377.891,325.091 372.916,326.655 368.589,329.215 L312.815,273.44 C320.48,263.578 325.091,251.244 325.091,237.818 C325.091,224.393 320.48,212.058 312.815,202.204 L383.105,131.913 C390.851,138.945 401.098,143.273 412.364,143.273 C436.429,143.273 456,123.702 456,99.636 C456,75.571 436.429,56 412.364,56 z M136,121.455 C136,113.433 142.524,106.909 150.545,106.909 C158.567,106.909 165.091,113.433 165.091,121.455 C165.091,129.476 158.567,136 150.545,136 C142.524,136 136,129.476 136,121.455 z M99.636,426.909 C83.593,426.909 70.545,413.862 70.545,397.818 C70.545,381.775 83.593,368.727 99.636,368.727 C115.68,368.727 128.727,381.775 128.727,397.818 C128.727,413.862 115.68,426.909 99.636,426.909 z M296,412.364 C296,428.407 282.953,441.455 266.909,441.455 C250.865,441.455 237.818,428.407 237.818,412.364 C237.818,396.32 250.865,383.273 266.909,383.273 C282.953,383.273 296,396.32 296,412.364 z M266.909,281.455 C242.844,281.455 223.273,261.884 223.273,237.818 C223.273,213.753 242.844,194.182 266.909,194.182 C290.975,194.182 310.545,213.753 310.545,237.818 C310.545,261.884 290.975,281.455 266.909,281.455 z M397.818,354.182 C397.818,362.204 391.295,368.727 383.273,368.727 C375.251,368.727 368.727,362.204 368.727,354.182 C368.727,346.16 375.251,339.636 383.273,339.636 C391.295,339.636 397.818,346.16 397.818,354.182 z M412.364,128.727 C396.32,128.727 383.273,115.68 383.273,99.636 C383.273,83.593 396.32,70.545 412.364,70.545 C428.407,70.545 441.455,83.593 441.455,99.636 C441.455,115.68 428.407,128.727 412.364,128.727 z" fill="#3BDA83" id="Spokes"/>
    <g id="Top_Right_UFO">
      <path d="M493.891,111.324 C492.61,105.522 458.514,89.492 458.514,89.492 L373.849,89.147 C373.849,89.147 339.757,104.909 338.418,110.697 C337.078,116.485 347.147,143.275 416.717,143.551 C486.287,143.826 495.172,117.126 493.891,111.324 z" fill="url(#Gradient_1)"/>
      <path d="M458.711,85.417 C450.312,63.985 426.049,54.525 404.239,59.471 C390.579,62.571 379.49,72.156 374.321,85.076 C372.646,89.274 370.337,94.359 374.043,98.131 C378.466,102.635 386.58,104.301 392.551,105.448 C408.242,108.47 424.807,108.536 440.553,105.645 C446.532,104.537 454.448,102.937 458.903,98.475 C462.638,94.728 460.359,89.623 458.711,85.417 z" fill="#505C70"/>
      <path d="M338.667,110.086 C343.315,121.11 357.164,125.869 367.663,128.899 C383.464,133.459 399.809,134.8 416.173,135.156 L416.173,135.156 C436.786,134.71 458.468,133.311 477.584,124.72 C484.079,121.801 490.919,117.819 493.758,110.968 L493.891,111.324 C494.038,112.313 493.985,111.713 493.934,113.13 C491.226,121.487 481.663,125.99 474.09,128.947 C459.81,134.525 444.577,136.392 429.393,137.444 C420.34,137.766 424.769,137.678 416.107,137.725 C407.548,137.61 411.873,137.732 403.132,137.352 C386.32,136.121 368.888,133.833 353.531,126.378 C347.016,123.215 340.368,118.912 338.334,111.595 C338.32,111.085 338.309,111.386 338.418,110.697 C338.643,110.11 338.515,110.289 338.667,110.086 z" fill="url(#Gradient_2)"/>
      <path d="M357.443,109.596 C356.932,110.944 354.724,111.353 352.508,110.515 C350.291,109.677 348.916,107.897 349.427,106.549 C349.938,105.201 352.146,104.792 354.363,105.63 C356.582,106.481 357.954,108.248 357.443,109.596 z" fill="url(#Gradient_3)"/>
      <path d="M372.523,117.676 C372.012,119.024 369.804,119.433 367.588,118.595 C365.371,117.757 363.996,115.977 364.507,114.629 C365.018,113.282 367.226,112.872 369.443,113.71 C371.659,114.549 373.034,116.328 372.523,117.676 z" fill="url(#Gradient_4)"/>
      <path d="M392.66,123.008 C392.388,124.422 390.285,125.22 387.965,124.774 C385.633,124.331 383.967,122.825 384.239,121.411 C384.511,119.997 386.614,119.199 388.934,119.645 C391.254,120.091 392.929,121.582 392.66,123.008 z" fill="url(#Gradient_5)"/>
      <path d="M417.35,125.115 C417.346,126.561 415.417,127.716 413.046,127.714 C410.676,127.711 408.759,126.532 408.762,125.086 C408.765,123.64 410.695,122.485 413.065,122.488 C415.436,122.491 417.356,123.682 417.35,125.115 z" fill="url(#Gradient_6)"/>
      <path d="M441.777,124.207 C441.863,125.643 440.005,126.921 437.646,127.059 C435.275,127.199 433.299,126.141 433.214,124.705 C433.129,123.27 434.987,121.991 437.345,121.854 C439.716,121.713 441.704,122.769 441.777,124.207 z" fill="url(#Gradient_7)"/>
      <path d="M462.461,120.306 C462.698,121.726 460.981,123.189 458.651,123.579 C456.318,123.957 454.229,123.11 453.992,121.69 C453.754,120.269 455.472,118.806 457.802,118.416 C460.132,118.026 462.22,118.873 462.461,120.306 z" fill="url(#Gradient_8)"/>
      <path d="M482.863,110.738 C483.577,111.992 482.49,113.962 480.436,115.138 C478.381,116.313 476.126,116.253 475.412,115 C474.699,113.746 475.785,111.775 477.84,110.6 C479.906,109.421 482.15,109.484 482.863,110.738 z" fill="url(#Gradient_9)"/>
      <path d="M458.888,82.336 C450.419,61.613 425.913,52.465 403.914,57.24 C390.122,60.233 378.948,69.502 373.717,81.996 C372.019,86.058 369.704,90.974 373.441,94.621 C377.901,98.972 386.106,100.588 392.119,101.698 C407.951,104.616 424.675,104.692 440.563,101.892 C446.591,100.824 454.588,99.28 459.082,94.964 C462.852,91.35 460.552,86.408 458.888,82.336 z" fill="url(#Gradient_10)"/>
      <path d="M421.532,62.74 C422.586,62.692 423.823,62.738 425.171,62.91 C426.519,63.083 427.988,63.366 429.532,63.786 C431.077,64.205 432.694,64.748 434.325,65.444 C435.953,66.127 437.608,66.96 439.223,67.933 C440.838,68.906 442.425,70.017 443.919,71.27 C445.414,72.523 446.828,73.915 448.111,75.446 C449.393,76.977 450.553,78.632 451.541,80.425 C452.525,82.205 453.351,84.119 453.982,86.137 C454.614,88.155 455.044,90.292 455.28,92.533 C455.28,92.533 455.125,92.054 454.727,91.197 C454.328,90.341 453.7,89.116 452.702,87.626 C451.704,86.135 450.35,84.389 448.492,82.505 C446.636,80.632 444.266,78.638 441.25,76.712 C439.915,75.859 438.298,74.977 436.502,74.104 C434.694,73.235 432.709,72.386 430.658,71.582 C428.61,70.79 426.508,70.038 424.489,69.355 C422.47,68.672 420.535,68.058 418.863,67.504 C417.18,66.952 415.756,66.449 414.744,65.978 C413.733,65.507 413.149,65.077 413.142,64.662 C413.147,64.244 413.744,63.85 415.087,63.516 C416.43,63.183 418.539,62.891 421.532,62.74 z" fill="#DCFFFA" opacity="0.48"/>
      <g>
        <path d="M362.818,133.152 L366.546,134.627 C367.204,134.946 368.471,135.4 368.721,136.088 C369.609,138.48 369.612,139.365 369.971,141.287 C370.363,143.382 363.65,139.127 361.425,135.244 C360.52,133.664 361.179,132.381 362.818,133.152 z" fill="#A3B0D6"/>
        <path d="M469.401,133.574 L465.661,135.019 C465.002,135.326 463.731,135.783 463.471,136.465 C462.572,138.841 462.55,139.732 462.176,141.642 C461.763,143.745 468.522,139.525 470.77,135.668 C471.695,134.118 471.045,132.808 469.401,133.574 z" fill="#A3B0D6"/>
        <path d="M419.359,141.215 C418.744,140.521 417.397,140.257 416.666,140.153 C415.229,139.94 413.649,140.311 412.505,141.242 C412.271,141.435 412.123,141.709 412.125,142.008 C412.146,143.643 414.428,147.835 416.38,147.247 C417.272,146.982 417.966,145.638 418.448,144.91 C418.996,144.086 419.65,143.077 419.672,142.043 C419.676,141.716 419.561,141.435 419.359,141.215 z" fill="#A3B0D6"/>
      </g>
      <path d="M403.087,61.537 C403.706,61.371 404.353,61.211 404.983,61.081 C415.207,58.862 425.964,59.847 435.25,63.842 C444.947,68.014 452.004,74.963 455.666,83.915 L455.895,84.479 C456.75,86.554 457.723,88.923 457.599,90.597 C457.491,92.136 458.324,93.592 459.714,94.261 C478.751,103.507 488.917,110.105 490.485,112.458 C490.547,113.613 489.938,116.589 487.164,120.183 C484.651,123.434 479.575,128.153 469.719,132.135 C468.873,132.479 468.182,133.107 467.775,133.919 C467.761,133.962 467.731,133.996 467.716,134.039 C467.315,134.68 466.729,135.358 466.074,135.976 C465.996,135.88 465.906,135.787 465.819,135.706 C464.861,134.752 463.476,134.394 462.188,134.739 L462.115,134.758 C461.487,134.94 460.846,135.124 460.191,135.3 C449.052,138.285 435.369,139.842 419.524,139.935 C419.197,139.931 418.872,139.979 418.568,140.06 C417.548,140.334 416.669,141.038 416.173,142.004 C415.559,140.736 414.283,139.907 412.854,139.873 C396.23,139.536 382.025,137.588 370.603,134.074 C369.907,133.857 369.19,133.854 368.522,134.033 C367.902,134.199 367.313,134.526 366.842,135.004 C366.719,135.128 366.599,135.264 366.504,135.394 C365.902,134.8 365.367,134.162 365.021,133.552 C364.671,132.539 363.916,131.713 362.918,131.29 C347.391,124.749 342.702,116.241 342.363,112.205 C342.351,112.064 342.346,111.949 342.351,111.869 C344.019,109.443 355.04,102.571 373.349,93.838 C374.735,93.18 375.577,91.757 375.493,90.23 C375.404,88.535 376.38,86.204 377.245,84.136 L377.468,83.608 C382.026,72.727 391.353,64.681 403.087,61.537 M402.11,57.893 C389.271,61.333 378.953,70.295 373.994,82.156 C372.906,84.752 371.586,87.697 371.732,90.431 C363.964,94.139 339.815,106 338.695,110.857 C338.587,111.328 338.548,111.912 338.62,112.569 C339.024,117.382 343.973,127.396 361.43,134.774 C361.497,134.978 361.58,135.19 361.715,135.401 C363.616,138.706 368.786,142.307 370.013,141.978 C370.219,141.923 370.317,141.754 370.26,141.443 C369.982,139.969 369.906,139.104 369.489,137.692 C380.117,140.963 394.216,143.292 412.775,143.657 C413.489,145.496 415.151,147.811 416.62,147.417 L416.669,147.404 C417.561,147.139 418.256,145.794 418.738,145.066 C419.017,144.653 419.312,144.196 419.548,143.717 C437.15,143.622 450.724,141.755 461.17,138.956 C461.85,138.774 462.515,138.583 463.168,138.395 C462.816,139.609 462.733,140.464 462.469,141.811 C462.365,142.347 462.724,142.472 463.344,142.306 C465.178,141.814 469.39,138.733 471.065,135.849 C471.101,135.788 471.124,135.729 471.16,135.668 C490.697,127.777 494.641,116.357 494.264,112.083 C494.245,111.867 494.22,111.678 494.172,111.496 C493.099,106.667 469.34,94.767 461.378,90.899 C461.575,88.138 460.25,85.135 459.168,82.508 C450.681,61.764 426.175,52.617 404.176,57.391 C403.49,57.549 402.791,57.711 402.11,57.893 z" fill="#424242" opacity="0.2"/>
      <text transform="matrix(1, 0, 0, 1, 415.311, 87.667)">
        <tspan x="-33.978" y="4.5" font-family="HelveticaNeue-Bold" font-size="14" fill="#000000">!da63b810</tspan>
      </text>
    </g>
    <g id="Top_Left_UFO">
      <path d="M202.426,130.01 C201.576,126.161 178.955,115.526 178.955,115.526 L122.785,115.297 C122.785,115.297 100.167,125.754 99.278,129.594 C98.389,133.434 105.07,151.208 151.225,151.391 C197.381,151.574 203.276,133.859 202.426,130.01 z" fill="url(#Gradient_11)"/>
      <path d="M179.086,112.822 C173.514,98.603 157.416,92.327 142.947,95.608 C133.884,97.665 126.528,104.024 123.098,112.596 C121.987,115.381 120.455,118.754 122.913,121.257 C125.848,124.245 131.231,125.351 135.193,126.112 C145.602,128.116 156.592,128.16 167.039,126.242 C171.006,125.507 176.258,124.446 179.213,121.486 C181.691,118.999 180.179,115.613 179.086,112.822 z" fill="#505C70"/>
      <path d="M99.443,129.189 C102.527,136.503 111.715,139.66 118.681,141.67 C129.164,144.695 140.008,145.585 150.865,145.821 L150.865,145.821 C164.54,145.525 178.925,144.597 191.607,138.898 C195.916,136.961 200.454,134.319 202.338,129.774 L202.426,130.01 C202.524,130.666 202.489,130.268 202.454,131.208 C200.658,136.753 194.313,139.74 189.289,141.702 C179.815,145.402 169.709,146.641 159.635,147.339 C153.629,147.553 156.567,147.494 150.82,147.526 C145.142,147.45 148.012,147.53 142.213,147.278 C131.059,146.462 119.494,144.943 109.305,139.998 C104.982,137.899 100.572,135.044 99.223,130.19 C99.213,129.852 99.206,130.051 99.278,129.594 C99.428,129.205 99.343,129.324 99.443,129.189 z" fill="url(#Gradient_12)"/>
      <path d="M111.9,128.863 C111.561,129.758 110.097,130.029 108.626,129.473 C107.155,128.917 106.243,127.736 106.582,126.842 C106.921,125.948 108.386,125.676 109.857,126.233 C111.329,126.797 112.24,127.969 111.9,128.863 z" fill="url(#Gradient_13)"/>
      <path d="M121.905,134.224 C121.566,135.118 120.101,135.39 118.631,134.834 C117.16,134.278 116.248,133.097 116.587,132.203 C116.926,131.309 118.391,131.037 119.861,131.593 C121.332,132.149 122.244,133.33 121.905,134.224 z" fill="url(#Gradient_14)"/>
      <path d="M135.265,137.762 C135.085,138.7 133.689,139.229 132.15,138.933 C130.603,138.64 129.497,137.64 129.678,136.702 C129.858,135.764 131.254,135.235 132.793,135.531 C134.332,135.826 135.444,136.816 135.265,137.762 z" fill="url(#Gradient_15)"/>
      <path d="M151.645,139.16 C151.643,140.119 150.363,140.885 148.79,140.884 C147.218,140.882 145.946,140.1 145.948,139.14 C145.95,138.181 147.23,137.415 148.803,137.417 C150.375,137.418 151.649,138.209 151.645,139.16 z" fill="url(#Gradient_16)"/>
      <path d="M167.852,138.557 C167.908,139.51 166.676,140.358 165.111,140.449 C163.538,140.542 162.227,139.84 162.17,138.888 C162.114,137.935 163.346,137.087 164.911,136.996 C166.484,136.903 167.803,137.603 167.852,138.557 z" fill="url(#Gradient_17)"/>
      <path d="M181.574,135.969 C181.732,136.911 180.592,137.882 179.046,138.14 C177.498,138.391 176.113,137.829 175.955,136.887 C175.798,135.945 176.937,134.974 178.483,134.715 C180.029,134.457 181.414,135.018 181.574,135.969 z" fill="url(#Gradient_18)"/>
      <path d="M195.11,129.621 C195.583,130.453 194.862,131.76 193.499,132.54 C192.136,133.32 190.64,133.28 190.167,132.449 C189.693,131.617 190.414,130.309 191.777,129.529 C193.148,128.747 194.636,128.789 195.11,129.621 z" fill="url(#Gradient_19)"/>
      <path d="M179.203,110.778 C173.585,97.03 157.327,90.961 142.732,94.128 C133.581,96.114 126.168,102.263 122.697,110.553 C121.571,113.247 120.035,116.509 122.514,118.928 C125.473,121.815 130.917,122.887 134.906,123.623 C145.41,125.56 156.505,125.61 167.046,123.753 C171.045,123.044 176.351,122.02 179.332,119.156 C181.834,116.759 180.307,113.479 179.203,110.778 z" fill="url(#Gradient_20)"/>
      <path d="M154.42,97.777 C155.119,97.745 155.94,97.776 156.834,97.89 C157.728,98.005 158.703,98.193 159.728,98.471 C160.752,98.749 161.825,99.11 162.907,99.571 C163.988,100.024 165.086,100.577 166.157,101.222 C167.228,101.868 168.281,102.605 169.272,103.437 C170.264,104.268 171.202,105.191 172.053,106.207 C172.904,107.223 173.673,108.321 174.329,109.51 C174.982,110.691 175.53,111.961 175.949,113.3 C176.368,114.638 176.653,116.056 176.81,117.543 C176.81,117.543 176.707,117.225 176.443,116.657 C176.178,116.089 175.762,115.276 175.099,114.287 C174.437,113.299 173.539,112.14 172.306,110.89 C171.075,109.648 169.502,108.324 167.502,107.047 C166.616,106.481 165.544,105.896 164.352,105.317 C163.152,104.74 161.835,104.177 160.474,103.643 C159.116,103.118 157.721,102.619 156.382,102.166 C155.042,101.713 153.759,101.305 152.649,100.938 C151.532,100.572 150.588,100.238 149.916,99.925 C149.245,99.613 148.858,99.328 148.853,99.053 C148.857,98.775 149.253,98.514 150.144,98.292 C151.035,98.071 152.434,97.877 154.42,97.777 z" fill="#DCFFFA" opacity="0.48"/>
      <g>
        <path d="M115.466,144.492 L117.94,145.471 C118.376,145.682 119.217,145.983 119.383,146.44 C119.972,148.027 119.974,148.614 120.212,149.889 C120.472,151.279 116.019,148.456 114.542,145.88 C113.942,144.831 114.379,143.98 115.466,144.492 z" fill="#A3B0D6"/>
        <path d="M186.179,144.772 L183.697,145.73 C183.259,145.934 182.417,146.238 182.244,146.69 C181.647,148.266 181.633,148.858 181.385,150.125 C181.111,151.519 185.595,148.72 187.086,146.161 C187.7,145.133 187.269,144.264 186.179,144.772 z" fill="#A3B0D6"/>
        <path d="M152.978,149.841 C152.57,149.381 151.676,149.206 151.192,149.137 C150.238,148.995 149.19,149.241 148.431,149.859 C148.275,149.987 148.177,150.169 148.179,150.367 C148.193,151.452 149.707,154.233 151.002,153.843 C151.594,153.667 152.054,152.775 152.374,152.292 C152.737,151.746 153.171,151.077 153.186,150.39 C153.188,150.174 153.112,149.987 152.978,149.841 z" fill="#A3B0D6"/>
      </g>
      <path d="M142.183,96.979 C142.594,96.869 143.023,96.763 143.44,96.677 C150.224,95.205 157.36,95.858 163.521,98.508 C169.955,101.276 174.636,105.886 177.066,111.826 L177.218,112.2 C177.785,113.576 178.431,115.148 178.348,116.259 C178.277,117.28 178.829,118.246 179.751,118.69 C192.382,124.824 199.126,129.201 200.166,130.762 C200.207,131.529 199.803,133.503 197.963,135.887 C196.296,138.044 192.928,141.175 186.389,143.817 C185.828,144.045 185.37,144.462 185.1,145 C185.09,145.029 185.07,145.051 185.06,145.08 C184.794,145.505 184.405,145.955 183.971,146.365 C183.919,146.301 183.86,146.24 183.802,146.186 C183.166,145.553 182.247,145.316 181.393,145.544 L181.345,145.557 C180.928,145.678 180.503,145.8 180.068,145.917 C172.678,147.897 163.6,148.93 153.087,148.992 C152.871,148.989 152.655,149.021 152.453,149.075 C151.776,149.256 151.193,149.724 150.864,150.365 C150.457,149.523 149.61,148.973 148.663,148.951 C137.633,148.727 128.209,147.435 120.631,145.103 C120.169,144.959 119.694,144.957 119.25,145.076 C118.839,145.186 118.448,145.403 118.136,145.72 C118.054,145.802 117.975,145.893 117.912,145.979 C117.512,145.585 117.157,145.162 116.928,144.757 C116.696,144.085 116.195,143.537 115.532,143.256 C105.231,138.917 102.121,133.272 101.896,130.594 C101.888,130.501 101.885,130.424 101.888,130.372 C102.994,128.762 110.306,124.203 122.453,118.409 C123.372,117.973 123.931,117.028 123.876,116.015 C123.816,114.891 124.464,113.344 125.038,111.972 L125.186,111.622 C128.21,104.403 134.398,99.065 142.183,96.979 M141.535,94.561 C133.016,96.844 126.171,102.79 122.881,110.659 C122.159,112.381 121.283,114.335 121.381,116.148 C116.227,118.609 100.205,126.478 99.462,129.7 C99.39,130.013 99.365,130.4 99.412,130.836 C99.681,134.029 102.964,140.673 114.545,145.568 C114.59,145.703 114.645,145.844 114.734,145.984 C115.996,148.177 119.426,150.566 120.24,150.348 C120.377,150.311 120.442,150.198 120.404,149.993 C120.219,149.014 120.169,148.44 119.892,147.504 C126.943,149.674 136.297,151.219 148.61,151.461 C149.084,152.681 150.186,154.217 151.161,153.956 L151.194,153.947 C151.786,153.771 152.246,152.879 152.566,152.396 C152.752,152.122 152.947,151.819 153.103,151.501 C164.782,151.438 173.787,150.2 180.718,148.343 C181.169,148.222 181.61,148.095 182.043,147.97 C181.81,148.775 181.754,149.343 181.579,150.237 C181.51,150.592 181.749,150.675 182.16,150.565 C183.376,150.239 186.171,148.194 187.283,146.281 C187.306,146.24 187.322,146.202 187.345,146.161 C200.307,140.926 202.924,133.349 202.673,130.514 C202.661,130.37 202.645,130.245 202.612,130.124 C201.901,126.92 186.138,119.026 180.855,116.459 C180.986,114.628 180.107,112.635 179.389,110.892 C173.758,97.13 157.5,91.061 142.905,94.229 C142.45,94.333 141.986,94.44 141.535,94.561 z" fill="#424242" opacity="0.2"/>
      <text transform="matrix(1, 0, 0, 1, 150.947, 116.333)">
        <tspan x="-23.905" y="-1.5" font-family="HelveticaNeue-Bold" font-size="10" fill="#000000">!33468d10</tspan>
      </text>
    </g>
    <g id="Bottom_Left_UFO">
      <path d="M176.501,412.007 C175.239,406.291 141.644,390.496 141.644,390.496 L58.224,390.156 C58.224,390.156 24.633,405.686 23.313,411.389 C21.994,417.092 31.914,443.489 100.462,443.76 C169.009,444.032 177.763,417.724 176.501,412.007 z" fill="url(#Gradient_21)"/>
      <path d="M141.838,386.481 C133.563,365.364 109.656,356.043 88.167,360.916 C74.708,363.971 63.782,373.415 58.688,386.145 C57.039,390.282 54.764,395.291 58.415,399.008 C62.773,403.446 70.768,405.088 76.651,406.218 C92.111,409.195 108.432,409.26 123.947,406.411 C129.838,405.32 137.638,403.743 142.027,399.347 C145.707,395.655 143.462,390.625 141.838,386.481 z" fill="#505C70"/>
      <path d="M23.559,410.787 C28.139,421.65 41.784,426.339 52.129,429.324 C67.698,433.817 83.802,435.138 99.926,435.489 L99.926,435.489 C120.235,435.049 141.598,433.671 160.433,425.206 C166.833,422.33 173.572,418.406 176.37,411.656 L176.501,412.007 C176.646,412.982 176.594,412.391 176.543,413.787 C173.875,422.021 164.452,426.457 156.991,429.371 C142.921,434.867 127.912,436.707 112.951,437.743 C104.031,438.06 108.395,437.973 99.86,438.02 C91.427,437.907 95.689,438.027 87.077,437.652 C70.511,436.44 53.336,434.185 38.205,426.84 C31.785,423.724 25.235,419.483 23.231,412.274 C23.217,411.772 23.206,412.068 23.313,411.389 C23.535,410.811 23.41,410.988 23.559,410.787 z" fill="url(#Gradient_22)"/>
      <path d="M42.059,410.304 C41.555,411.632 39.38,412.036 37.196,411.21 C35.012,410.384 33.657,408.63 34.161,407.302 C34.665,405.974 36.84,405.571 39.024,406.397 C41.211,407.235 42.563,408.976 42.059,410.304 z" fill="url(#Gradient_23)"/>
      <path d="M56.917,418.266 C56.414,419.594 54.239,419.997 52.055,419.171 C49.871,418.345 48.516,416.592 49.019,415.264 C49.523,413.936 51.698,413.533 53.882,414.358 C56.066,415.184 57.421,416.938 56.917,418.266 z" fill="url(#Gradient_24)"/>
      <path d="M76.759,423.519 C76.491,424.912 74.418,425.699 72.132,425.259 C69.835,424.823 68.193,423.339 68.461,421.946 C68.729,420.553 70.802,419.766 73.087,420.206 C75.373,420.645 77.024,422.114 76.759,423.519 z" fill="url(#Gradient_25)"/>
      <path d="M101.085,425.596 C101.082,427.02 99.18,428.159 96.845,428.156 C94.509,428.153 92.62,426.991 92.624,425.567 C92.627,424.142 94.528,423.004 96.863,423.007 C99.199,423.01 101.091,424.183 101.085,425.596 z" fill="url(#Gradient_26)"/>
      <path d="M125.154,424.701 C125.237,426.115 123.407,427.375 121.083,427.511 C118.747,427.649 116.8,426.606 116.716,425.192 C116.632,423.777 118.462,422.517 120.787,422.382 C123.123,422.243 125.082,423.284 125.154,424.701 z" fill="url(#Gradient_27)"/>
      <path d="M145.533,420.857 C145.767,422.256 144.075,423.697 141.779,424.082 C139.48,424.454 137.422,423.62 137.188,422.22 C136.954,420.821 138.646,419.38 140.942,418.995 C143.238,418.611 145.296,419.445 145.533,420.857 z" fill="url(#Gradient_28)"/>
      <path d="M165.635,411.43 C166.338,412.665 165.268,414.607 163.243,415.765 C161.219,416.923 158.997,416.864 158.294,415.629 C157.591,414.393 158.661,412.452 160.686,411.293 C162.722,410.132 164.932,410.194 165.635,411.43 z" fill="url(#Gradient_29)"/>
      <path d="M142.012,383.445 C133.668,363.027 109.523,354.014 87.847,358.719 C74.257,361.667 63.248,370.8 58.093,383.111 C56.42,387.112 54.14,391.956 57.822,395.549 C62.216,399.836 70.301,401.429 76.225,402.522 C91.824,405.398 108.302,405.472 123.957,402.714 C129.897,401.661 137.776,400.14 142.204,395.888 C145.919,392.327 143.652,387.457 142.012,383.445 z" fill="url(#Gradient_30)"/>
      <path d="M105.206,364.137 C106.245,364.09 107.463,364.135 108.791,364.305 C110.119,364.475 111.567,364.754 113.088,365.168 C114.61,365.581 116.203,366.116 117.811,366.801 C119.415,367.475 121.046,368.295 122.637,369.254 C124.228,370.213 125.791,371.308 127.264,372.542 C128.736,373.777 130.13,375.148 131.393,376.657 C132.657,378.165 133.8,379.796 134.773,381.562 C135.743,383.316 136.557,385.202 137.179,387.19 C137.802,389.178 138.225,391.284 138.457,393.492 C138.457,393.492 138.305,393.02 137.912,392.176 C137.519,391.332 136.901,390.125 135.917,388.657 C134.934,387.189 133.601,385.468 131.769,383.611 C129.941,381.767 127.605,379.801 124.634,377.904 C123.318,377.063 121.726,376.194 119.956,375.334 C118.174,374.478 116.219,373.642 114.198,372.849 C112.18,372.069 110.108,371.328 108.119,370.655 C106.13,369.982 104.224,369.377 102.576,368.831 C100.917,368.288 99.514,367.792 98.518,367.327 C97.521,366.863 96.946,366.44 96.939,366.031 C96.944,365.62 97.533,365.231 98.856,364.902 C100.178,364.573 102.257,364.286 105.206,364.137 z" fill="#DCFFFA" opacity="0.48"/>
      <g>
        <path d="M47.355,433.515 L51.028,434.968 C51.676,435.281 52.925,435.729 53.171,436.407 C54.046,438.764 54.049,439.636 54.402,441.529 C54.789,443.594 48.175,439.401 45.983,435.576 C45.091,434.019 45.74,432.754 47.355,433.515 z" fill="#A3B0D6"/>
        <path d="M152.371,433.93 L148.686,435.354 C148.036,435.656 146.784,436.107 146.528,436.779 C145.642,439.12 145.621,439.998 145.252,441.88 C144.845,443.951 151.505,439.794 153.719,435.993 C154.631,434.466 153.991,433.176 152.371,433.93 z" fill="#A3B0D6"/>
        <path d="M103.065,441.459 C102.458,440.775 101.131,440.515 100.411,440.413 C98.995,440.202 97.438,440.568 96.312,441.486 C96.08,441.676 95.935,441.946 95.937,442.24 C95.958,443.851 98.206,447.982 100.129,447.402 C101.008,447.141 101.692,445.816 102.167,445.099 C102.707,444.287 103.351,443.294 103.373,442.274 C103.377,441.953 103.264,441.675 103.065,441.459 z" fill="#A3B0D6"/>
      </g>
      <path d="M87.032,362.952 C87.642,362.789 88.28,362.631 88.9,362.503 C98.974,360.317 109.573,361.286 118.722,365.223 C128.277,369.333 135.23,376.18 138.837,385.001 L139.063,385.557 C139.906,387.601 140.865,389.935 140.743,391.585 C140.636,393.101 141.456,394.536 142.826,395.195 C161.584,404.305 171.6,410.806 173.145,413.125 C173.206,414.263 172.606,417.194 169.873,420.736 C167.396,423.939 162.395,428.589 152.684,432.512 C151.851,432.851 151.17,433.469 150.769,434.27 C150.755,434.312 150.725,434.346 150.711,434.388 C150.316,435.02 149.738,435.688 149.093,436.297 C149.016,436.202 148.927,436.11 148.842,436.03 C147.897,435.09 146.533,434.738 145.264,435.078 L145.192,435.097 C144.573,435.276 143.942,435.458 143.296,435.631 C132.321,438.571 118.839,440.106 103.227,440.197 C102.905,440.193 102.584,440.241 102.285,440.321 C101.28,440.59 100.414,441.284 99.925,442.236 C99.321,440.987 98.063,440.17 96.656,440.136 C80.276,439.805 66.279,437.885 55.025,434.423 C54.339,434.209 53.633,434.206 52.975,434.382 C52.364,434.546 51.784,434.868 51.32,435.339 C51.199,435.461 51.081,435.595 50.987,435.723 C50.394,435.138 49.866,434.509 49.525,433.908 C49.181,432.91 48.437,432.096 47.453,431.68 C32.154,425.235 27.535,416.851 27.201,412.875 C27.189,412.737 27.184,412.622 27.189,412.544 C28.832,410.154 39.691,403.383 57.731,394.778 C59.096,394.13 59.926,392.728 59.844,391.223 C59.756,389.554 60.718,387.256 61.57,385.219 L61.79,384.698 C66.28,373.977 75.47,366.05 87.032,362.952 M86.07,359.362 C73.419,362.751 63.252,371.581 58.367,383.268 C57.294,385.826 55.994,388.727 56.138,391.421 C48.484,395.075 24.69,406.761 23.587,411.547 C23.48,412.012 23.442,412.586 23.513,413.234 C23.911,417.976 28.787,427.843 45.987,435.113 C46.053,435.313 46.135,435.522 46.268,435.73 C48.141,438.987 53.235,442.535 54.444,442.211 C54.647,442.156 54.744,441.989 54.688,441.684 C54.414,440.231 54.339,439.378 53.928,437.988 C64.4,441.211 78.291,443.505 96.577,443.865 C97.281,445.677 98.918,447.958 100.366,447.57 L100.414,447.557 C101.294,447.296 101.978,445.971 102.452,445.253 C102.728,444.846 103.018,444.396 103.251,443.924 C120.594,443.83 133.968,441.991 144.261,439.233 C144.931,439.054 145.586,438.865 146.23,438.68 C145.883,439.876 145.801,440.719 145.541,442.046 C145.438,442.574 145.792,442.697 146.403,442.533 C148.21,442.049 152.361,439.013 154.011,436.172 C154.046,436.111 154.069,436.054 154.104,435.993 C173.353,428.218 177.24,416.966 176.868,412.755 C176.85,412.542 176.826,412.356 176.777,412.177 C175.721,407.419 152.311,395.694 144.465,391.883 C144.66,389.162 143.354,386.203 142.289,383.615 C133.926,363.176 109.781,354.163 88.105,358.867 C87.429,359.023 86.74,359.182 86.07,359.362 z" fill="#424242" opacity="0.2"/>
      <text transform="matrix(1, 0, 0, 1, 102.667, 385.667)">
        <tspan x="-33.334" y="4.5" font-family="HelveticaNeue-Bold" font-size="14" fill="#000000">!433aa840</tspan>
      </text>
    </g>
    <g id="Bottom_Middle_UFO">
      <path d="M343.069,422.846 C341.798,417.089 307.961,401.18 307.961,401.18 L223.939,400.838 C223.939,400.838 190.106,416.48 188.777,422.224 C187.448,427.968 197.44,454.555 266.481,454.828 C335.523,455.102 344.341,428.604 343.069,422.846 z" fill="url(#Gradient_31)"/>
      <path d="M308.156,397.136 C299.821,375.867 275.742,366.479 254.098,371.387 C240.542,374.464 229.537,383.976 224.407,396.798 C222.745,400.964 220.454,406.01 224.131,409.753 C228.521,414.223 236.574,415.877 242.499,417.015 C258.07,420.014 274.509,420.079 290.136,417.21 C296.07,416.111 303.926,414.523 308.347,410.095 C312.053,406.376 309.791,401.31 308.156,397.136 z" fill="#505C70"/>
      <path d="M189.024,421.617 C193.637,432.558 207.38,437.281 217.8,440.288 C233.481,444.813 249.702,446.144 265.942,446.497 L265.942,446.497 C286.398,446.055 307.915,444.666 326.885,436.141 C333.332,433.244 340.119,429.291 342.937,422.493 L343.069,422.846 C343.215,423.828 343.163,423.233 343.111,424.639 C340.424,432.932 330.934,437.4 323.418,440.336 C309.247,445.871 294.13,447.724 279.061,448.767 C270.076,449.087 274.472,449 265.875,449.047 C257.382,448.933 261.674,449.054 253,448.676 C236.315,447.455 219.016,445.184 203.776,437.786 C197.31,434.647 190.713,430.376 188.694,423.115 C188.679,422.609 188.669,422.907 188.777,422.224 C189.001,421.642 188.874,421.819 189.024,421.617 z" fill="url(#Gradient_32)"/>
      <path d="M207.658,421.131 C207.15,422.469 204.96,422.875 202.76,422.043 C200.56,421.211 199.195,419.445 199.703,418.108 C200.21,416.77 202.401,416.364 204.601,417.196 C206.804,418.04 208.165,419.794 207.658,421.131 z" fill="url(#Gradient_33)"/>
      <path d="M222.623,429.15 C222.116,430.487 219.925,430.894 217.725,430.062 C215.526,429.23 214.161,427.464 214.668,426.126 C215.175,424.789 217.366,424.383 219.566,425.214 C221.766,426.046 223.131,427.812 222.623,429.15 z" fill="url(#Gradient_34)"/>
      <path d="M242.607,434.441 C242.337,435.845 240.25,436.637 237.948,436.194 C235.634,435.755 233.98,434.26 234.25,432.857 C234.52,431.453 236.607,430.661 238.91,431.104 C241.212,431.547 242.874,433.026 242.607,434.441 z" fill="url(#Gradient_35)"/>
      <path d="M267.109,436.533 C267.106,437.968 265.191,439.114 262.839,439.111 C260.486,439.108 258.584,437.939 258.587,436.504 C258.59,435.069 260.505,433.922 262.857,433.925 C265.21,433.928 267.115,435.11 267.109,436.533 z" fill="url(#Gradient_36)"/>
      <path d="M291.351,435.632 C291.436,437.056 289.592,438.325 287.252,438.461 C284.899,438.601 282.938,437.55 282.853,436.126 C282.769,434.701 284.612,433.432 286.953,433.296 C289.306,433.156 291.279,434.204 291.351,435.632 z" fill="url(#Gradient_37)"/>
      <path d="M311.878,431.76 C312.113,433.169 310.409,434.621 308.097,435.008 C305.781,435.383 303.709,434.543 303.473,433.133 C303.237,431.723 304.941,430.272 307.254,429.885 C309.566,429.498 311.639,430.338 311.878,431.76 z" fill="url(#Gradient_38)"/>
      <path d="M332.125,422.264 C332.833,423.509 331.755,425.464 329.716,426.631 C327.677,427.797 325.439,427.738 324.731,426.494 C324.023,425.249 325.101,423.294 327.14,422.127 C329.191,420.958 331.417,421.02 332.125,422.264 z" fill="url(#Gradient_39)"/>
      <path d="M308.332,394.078 C299.927,373.513 275.608,364.435 253.776,369.173 C240.088,372.143 229,381.342 223.808,393.741 C222.123,397.772 219.825,402.651 223.534,406.27 C227.96,410.588 236.103,412.191 242.07,413.293 C257.782,416.189 274.379,416.264 290.146,413.486 C296.129,412.426 304.065,410.894 308.524,406.611 C312.266,403.024 309.983,398.119 308.332,394.078 z" fill="url(#Gradient_40)"/>
      <path d="M271.26,374.631 C272.306,374.583 273.533,374.629 274.871,374.8 C276.209,374.972 277.667,375.253 279.199,375.669 C280.732,376.085 282.337,376.624 283.956,377.315 C285.571,377.993 287.214,378.819 288.817,379.785 C290.419,380.751 291.994,381.853 293.477,383.097 C294.96,384.34 296.364,385.721 297.636,387.241 C298.909,388.76 300.06,390.403 301.04,392.182 C302.018,393.948 302.837,395.848 303.464,397.85 C304.091,399.853 304.517,401.974 304.751,404.198 C304.751,404.198 304.598,403.722 304.202,402.872 C303.806,402.022 303.183,400.807 302.193,399.328 C301.202,397.849 299.859,396.116 298.015,394.246 C296.173,392.388 293.821,390.408 290.828,388.497 C289.503,387.65 287.899,386.775 286.116,385.909 C284.322,385.046 282.352,384.204 280.316,383.406 C278.284,382.62 276.198,381.874 274.194,381.196 C272.191,380.519 270.271,379.909 268.611,379.359 C266.94,378.812 265.527,378.312 264.523,377.844 C263.52,377.377 262.94,376.951 262.933,376.539 C262.938,376.124 263.531,375.733 264.864,375.402 C266.196,375.07 268.289,374.781 271.26,374.631 z" fill="#DCFFFA" opacity="0.48"/>
      <g>
        <path d="M212.992,444.509 L216.691,445.972 C217.344,446.288 218.602,446.739 218.85,447.422 C219.731,449.796 219.734,450.674 220.09,452.581 C220.479,454.661 213.818,450.438 211.61,446.585 C210.711,445.017 211.365,443.743 212.992,444.509 z" fill="#A3B0D6"/>
        <path d="M318.765,444.927 L315.054,446.361 C314.399,446.666 313.138,447.12 312.88,447.796 C311.987,450.154 311.966,451.039 311.595,452.934 C311.185,455.021 317.893,450.833 320.123,447.005 C321.042,445.467 320.396,444.167 318.765,444.927 z" fill="#A3B0D6"/>
        <path d="M269.103,452.511 C268.492,451.822 267.156,451.559 266.431,451.457 C265.004,451.245 263.436,451.613 262.302,452.537 C262.069,452.729 261.922,453.001 261.924,453.297 C261.945,454.92 264.21,459.08 266.147,458.497 C267.032,458.234 267.721,456.899 268.199,456.177 C268.743,455.359 269.392,454.358 269.414,453.332 C269.418,453.008 269.304,452.728 269.103,452.511 z" fill="#A3B0D6"/>
      </g>
      <path d="M252.955,373.437 C253.57,373.273 254.212,373.114 254.836,372.985 C264.983,370.783 275.658,371.76 284.873,375.725 C294.497,379.865 301.5,386.761 305.134,395.646 L305.361,396.205 C306.21,398.264 307.176,400.615 307.053,402.276 C306.945,403.804 307.772,405.249 309.151,405.913 C328.045,415.089 338.133,421.637 339.689,423.972 C339.75,425.118 339.146,428.071 336.394,431.638 C333.899,434.864 328.862,439.548 319.08,443.499 C318.242,443.84 317.556,444.463 317.152,445.269 C317.137,445.312 317.107,445.346 317.093,445.388 C316.695,446.025 316.113,446.697 315.463,447.311 C315.386,447.215 315.297,447.123 315.211,447.043 C314.259,446.096 312.885,445.741 311.607,446.083 L311.535,446.102 C310.911,446.282 310.276,446.466 309.625,446.64 C298.57,449.602 284.992,451.147 269.267,451.239 C268.943,451.236 268.62,451.284 268.318,451.364 C267.306,451.636 266.433,452.334 265.941,453.293 C265.332,452.035 264.065,451.212 262.648,451.178 C246.15,450.844 232.053,448.911 220.717,445.423 C220.027,445.208 219.315,445.205 218.652,445.382 C218.037,445.547 217.452,445.872 216.985,446.346 C216.863,446.469 216.744,446.604 216.65,446.733 C216.052,446.144 215.521,445.511 215.178,444.905 C214.831,443.9 214.082,443.08 213.091,442.661 C197.682,436.169 193.029,427.725 192.692,423.72 C192.681,423.581 192.676,423.466 192.68,423.387 C194.335,420.98 205.273,414.16 223.442,405.493 C224.818,404.84 225.654,403.428 225.571,401.912 C225.482,400.231 226.451,397.917 227.31,395.865 L227.531,395.341 C232.054,384.542 241.31,376.558 252.955,373.437 M251.986,369.821 C239.244,373.235 229.004,382.129 224.083,393.9 C223.003,396.476 221.693,399.398 221.838,402.111 C214.129,405.792 190.164,417.563 189.052,422.383 C188.945,422.851 188.906,423.43 188.978,424.082 C189.379,428.859 194.29,438.796 211.614,446.118 C211.681,446.32 211.763,446.531 211.897,446.74 C213.784,450.02 218.914,453.594 220.132,453.268 C220.337,453.213 220.434,453.045 220.377,452.737 C220.101,451.273 220.026,450.415 219.612,449.014 C230.159,452.261 244.151,454.571 262.569,454.933 C263.278,456.759 264.927,459.056 266.386,458.665 L266.434,458.652 C267.319,458.389 268.008,457.055 268.487,456.332 C268.764,455.922 269.056,455.469 269.29,454.993 C286.759,454.899 300.23,453.046 310.597,450.269 C311.272,450.088 311.932,449.898 312.579,449.712 C312.23,450.916 312.148,451.765 311.886,453.102 C311.783,453.633 312.139,453.757 312.754,453.593 C314.574,453.105 318.755,450.047 320.417,447.185 C320.452,447.124 320.475,447.066 320.511,447.005 C339.899,439.174 343.813,427.841 343.439,423.6 C343.42,423.385 343.396,423.198 343.348,423.017 C342.283,418.225 318.705,406.415 310.803,402.577 C310.999,399.837 309.683,396.856 308.61,394.249 C300.187,373.663 275.868,364.585 254.036,369.323 C253.354,369.48 252.661,369.64 251.986,369.821 z" fill="#424242" opacity="0.2"/>
      <text transform="matrix(1, 0, 0, 1, 266.065, 398.333)">
        <tspan x="-33.845" y="4.5" font-family="HelveticaNeue-Bold" font-size="14" fill="#000000">!da5a07a4</tspan>
      </text>
    </g>
    <g id="Bottom_Right_UFO">
      <path d="M437.116,360.861 C436.263,357 413.573,346.332 413.573,346.332 L357.23,346.103 C357.23,346.103 334.543,356.592 333.651,360.443 C332.76,364.295 339.46,382.124 385.758,382.307 C432.055,382.49 437.968,364.722 437.116,360.861 z" fill="url(#Gradient_41)"/>
      <path d="M413.704,343.62 C408.115,329.358 391.968,323.062 377.454,326.353 C368.364,328.417 360.984,334.795 357.544,343.393 C356.43,346.187 354.893,349.57 357.359,352.081 C360.302,355.078 365.703,356.187 369.676,356.951 C380.118,358.961 391.141,359.005 401.62,357.081 C405.599,356.344 410.867,355.279 413.832,352.31 C416.317,349.816 414.8,346.419 413.704,343.62 z" fill="#505C70"/>
      <path d="M333.817,360.037 C336.91,367.373 346.126,370.54 353.113,372.557 C363.629,375.591 374.506,376.484 385.396,376.72 L385.396,376.72 C399.113,376.424 413.542,375.493 426.263,369.775 C430.586,367.833 435.138,365.183 437.027,360.624 L437.116,360.861 C437.213,361.519 437.178,361.12 437.144,362.063 C435.342,367.624 428.978,370.62 423.938,372.589 C414.435,376.3 404.298,377.543 394.193,378.243 C388.169,378.457 391.116,378.399 385.352,378.43 C379.656,378.354 382.534,378.435 376.718,378.182 C365.529,377.363 353.929,375.84 343.709,370.879 C339.373,368.774 334.949,365.91 333.596,361.041 C333.586,360.702 333.579,360.902 333.651,360.443 C333.801,360.053 333.716,360.172 333.817,360.037 z" fill="url(#Gradient_42)"/>
      <path d="M346.312,359.711 C345.972,360.608 344.503,360.88 343.028,360.322 C341.553,359.764 340.638,358.58 340.978,357.683 C341.318,356.786 342.787,356.514 344.262,357.072 C345.739,357.637 346.652,358.814 346.312,359.711 z" fill="url(#Gradient_43)"/>
      <path d="M356.348,365.088 C356.008,365.985 354.538,366.257 353.063,365.699 C351.588,365.141 350.673,363.957 351.013,363.06 C351.353,362.163 352.823,361.891 354.298,362.449 C355.773,363.007 356.688,364.191 356.348,365.088 z" fill="url(#Gradient_44)"/>
      <path d="M369.749,368.636 C369.568,369.577 368.168,370.108 366.624,369.811 C365.072,369.517 363.963,368.514 364.144,367.573 C364.325,366.632 365.725,366.101 367.269,366.398 C368.813,366.695 369.928,367.687 369.749,368.636 z" fill="url(#Gradient_45)"/>
      <path d="M386.179,370.039 C386.177,371.001 384.892,371.769 383.315,371.768 C381.738,371.766 380.462,370.981 380.464,370.019 C380.466,369.057 381.75,368.288 383.328,368.29 C384.905,368.292 386.183,369.084 386.179,370.039 z" fill="url(#Gradient_46)"/>
      <path d="M402.435,369.434 C402.492,370.389 401.256,371.24 399.686,371.332 C398.108,371.425 396.793,370.721 396.736,369.766 C396.68,368.81 397.916,367.959 399.486,367.868 C401.063,367.774 402.387,368.477 402.435,369.434 z" fill="url(#Gradient_47)"/>
      <path d="M416.2,366.838 C416.358,367.783 415.215,368.756 413.664,369.016 C412.111,369.267 410.721,368.704 410.563,367.759 C410.405,366.813 411.548,365.84 413.099,365.581 C414.649,365.321 416.039,365.884 416.2,366.838 z" fill="url(#Gradient_48)"/>
      <path d="M429.777,360.471 C430.252,361.305 429.529,362.616 428.161,363.399 C426.794,364.181 425.293,364.141 424.818,363.307 C424.344,362.472 425.067,361.161 426.434,360.379 C427.809,359.594 429.302,359.636 429.777,360.471 z" fill="url(#Gradient_49)"/>
      <path d="M413.822,341.57 C408.186,327.779 391.878,321.691 377.238,324.869 C368.059,326.861 360.624,333.029 357.142,341.344 C356.012,344.046 354.471,347.318 356.958,349.745 C359.926,352.64 365.387,353.716 369.388,354.454 C379.924,356.397 391.054,356.447 401.627,354.584 C405.639,353.873 410.96,352.846 413.951,349.974 C416.46,347.569 414.929,344.279 413.822,341.57 z" fill="url(#Gradient_50)"/>
      <path d="M388.962,328.529 C389.664,328.497 390.486,328.528 391.384,328.642 C392.281,328.757 393.258,328.946 394.286,329.225 C395.314,329.504 396.39,329.865 397.476,330.328 C398.559,330.783 399.661,331.337 400.735,331.985 C401.81,332.633 402.866,333.372 403.86,334.206 C404.855,335.04 405.796,335.966 406.65,336.985 C407.503,338.004 408.275,339.105 408.932,340.298 C409.588,341.482 410.137,342.756 410.557,344.099 C410.978,345.442 411.264,346.864 411.421,348.356 C411.421,348.356 411.318,348.037 411.052,347.467 C410.787,346.897 410.369,346.081 409.705,345.09 C409.041,344.098 408.14,342.936 406.903,341.682 C405.668,340.436 404.091,339.108 402.084,337.827 C401.196,337.259 400.12,336.672 398.925,336.091 C397.721,335.513 396.4,334.948 395.035,334.413 C393.672,333.886 392.273,333.386 390.93,332.931 C389.587,332.477 388.299,332.068 387.186,331.699 C386.066,331.332 385.118,330.997 384.445,330.684 C383.772,330.37 383.383,330.084 383.379,329.808 C383.382,329.53 383.78,329.268 384.673,329.046 C385.567,328.823 386.97,328.629 388.962,328.529 z" fill="#DCFFFA" opacity="0.48"/>
      <g>
        <path d="M349.889,375.387 L352.37,376.369 C352.808,376.581 353.651,376.883 353.817,377.341 C354.409,378.933 354.41,379.521 354.649,380.8 C354.91,382.195 350.443,379.363 348.962,376.779 C348.36,375.728 348.798,374.874 349.889,375.387 z" fill="#A3B0D6"/>
        <path d="M420.818,375.668 L418.329,376.629 C417.89,376.834 417.045,377.138 416.872,377.592 C416.273,379.173 416.259,379.766 416.01,381.037 C415.735,382.436 420.233,379.628 421.729,377.061 C422.345,376.03 421.912,375.158 420.818,375.668 z" fill="#A3B0D6"/>
        <path d="M387.516,380.753 C387.106,380.291 386.21,380.115 385.724,380.046 C384.767,379.904 383.716,380.151 382.955,380.771 C382.799,380.899 382.7,381.082 382.702,381.281 C382.716,382.368 384.235,385.159 385.533,384.767 C386.127,384.591 386.589,383.696 386.91,383.211 C387.274,382.663 387.71,381.992 387.724,381.304 C387.727,381.086 387.651,380.899 387.516,380.753 z" fill="#A3B0D6"/>
      </g>
      <path d="M376.687,327.728 C377.1,327.618 377.53,327.511 377.949,327.425 C384.753,325.948 391.912,326.603 398.091,329.262 C404.544,332.038 409.241,336.663 411.677,342.621 L411.83,342.996 C412.399,344.377 413.047,345.953 412.964,347.067 C412.892,348.091 413.446,349.061 414.371,349.506 C427.041,355.659 433.805,360.05 434.849,361.615 C434.89,362.384 434.485,364.364 432.639,366.756 C430.966,368.92 427.588,372.06 421.029,374.71 C420.467,374.939 420.007,375.357 419.736,375.897 C419.726,375.926 419.706,375.948 419.697,375.977 C419.43,376.404 419.04,376.855 418.604,377.266 C418.552,377.202 418.492,377.14 418.434,377.086 C417.796,376.451 416.875,376.213 416.018,376.443 L415.97,376.456 C415.551,376.576 415.125,376.699 414.689,376.816 C407.276,378.802 398.17,379.839 387.626,379.9 C387.408,379.898 387.192,379.93 386.99,379.984 C386.311,380.166 385.726,380.635 385.395,381.278 C384.987,380.434 384.138,379.882 383.187,379.859 C372.124,379.635 362.671,378.339 355.07,376 C354.606,375.856 354.129,375.854 353.685,375.973 C353.273,376.083 352.88,376.301 352.567,376.619 C352.485,376.701 352.405,376.792 352.342,376.878 C351.941,376.483 351.585,376.059 351.355,375.653 C351.122,374.979 350.62,374.429 349.955,374.148 C339.622,369.795 336.503,364.133 336.277,361.447 C336.269,361.353 336.266,361.276 336.269,361.223 C337.379,359.609 344.713,355.036 356.897,349.224 C357.819,348.786 358.38,347.839 358.324,346.823 C358.265,345.695 358.915,344.144 359.49,342.768 L359.639,342.416 C362.671,335.175 368.878,329.821 376.687,327.728 M376.037,325.303 C367.493,327.593 360.626,333.557 357.326,341.45 C356.602,343.178 355.724,345.137 355.821,346.956 C350.652,349.425 334.581,357.318 333.836,360.55 C333.764,360.864 333.738,361.252 333.786,361.689 C334.055,364.892 337.348,371.556 348.965,376.466 C349.01,376.602 349.065,376.743 349.155,376.883 C350.42,379.083 353.861,381.479 354.677,381.261 C354.815,381.224 354.88,381.111 354.842,380.905 C354.657,379.923 354.606,379.347 354.329,378.408 C361.401,380.585 370.784,382.135 383.134,382.377 C383.61,383.602 384.715,385.142 385.694,384.88 L385.726,384.871 C386.32,384.695 386.782,383.8 387.102,383.316 C387.289,383.04 387.485,382.737 387.642,382.417 C399.356,382.354 408.389,381.112 415.341,379.249 C415.793,379.128 416.236,379.001 416.67,378.876 C416.436,379.684 416.381,380.253 416.205,381.149 C416.136,381.506 416.375,381.589 416.787,381.478 C418.007,381.151 420.811,379.101 421.926,377.182 C421.949,377.141 421.965,377.102 421.989,377.061 C434.99,371.81 437.615,364.21 437.364,361.366 C437.351,361.222 437.335,361.097 437.302,360.975 C436.589,357.762 420.778,349.843 415.479,347.268 C415.61,345.431 414.728,343.432 414.008,341.684 C408.36,327.88 392.052,321.792 377.412,324.97 C376.955,325.075 376.49,325.182 376.037,325.303 z" fill="#424242" opacity="0.2"/>
      <text transform="matrix(1, 0, 0, 1, 385.479, 341.833)">
        <tspan x="-23.995" y="3" font-family="HelveticaNeue-Bold" font-size="10" fill="#000000">!27cb5814</tspan>
      </text>
    </g>
    <g id="Center_UFO">
      <path d="M374.132,253.285 C372.434,245.594 327.234,224.344 327.234,224.344 L215,223.887 C215,223.887 169.806,244.781 168.03,252.454 C166.255,260.127 179.602,295.641 271.827,296.006 C364.052,296.372 375.83,260.976 374.132,253.285 z" fill="url(#Gradient_51)"/>
      <path d="M327.495,218.942 C316.362,190.531 284.197,177.991 255.285,184.547 C237.177,188.657 222.478,201.363 215.624,218.49 C213.405,224.055 210.344,230.795 215.256,235.796 C221.119,241.767 231.877,243.976 239.792,245.497 C260.591,249.502 282.551,249.589 303.425,245.756 C311.35,244.289 321.845,242.167 327.75,236.253 C332.701,231.285 329.68,224.518 327.495,218.942 z" fill="#505C70"/>
      <path d="M168.361,251.644 C174.523,266.259 192.881,272.567 206.799,276.584 C227.746,282.629 249.413,284.407 271.106,284.878 L271.106,284.878 C298.431,284.287 327.173,282.432 352.514,271.044 C361.125,267.174 370.191,261.895 373.955,252.813 L374.132,253.285 C374.326,254.597 374.257,253.801 374.188,255.68 C370.599,266.758 357.921,272.727 347.882,276.648 C328.952,284.041 308.759,286.517 288.63,287.911 C276.629,288.338 282.5,288.221 271.017,288.284 C259.672,288.132 265.405,288.293 253.818,287.789 C231.531,286.158 208.423,283.124 188.065,273.242 C179.428,269.049 170.616,263.344 167.92,253.645 C167.9,252.969 167.886,253.367 168.03,252.454 C168.329,251.676 168.16,251.914 168.361,251.644 z" fill="url(#Gradient_52)"/>
      <path d="M193.251,250.995 C192.573,252.781 189.647,253.324 186.709,252.213 C183.77,251.101 181.947,248.742 182.625,246.956 C183.302,245.169 186.229,244.626 189.167,245.738 C192.11,246.865 193.929,249.208 193.251,250.995 z" fill="url(#Gradient_53)"/>
      <path d="M213.242,261.706 C212.564,263.492 209.638,264.035 206.699,262.924 C203.761,261.813 201.938,259.454 202.616,257.667 C203.293,255.88 206.22,255.338 209.158,256.449 C212.096,257.56 213.919,259.919 213.242,261.706 z" fill="url(#Gradient_54)"/>
      <path d="M239.936,268.774 C239.576,270.648 236.787,271.706 233.712,271.115 C230.621,270.528 228.412,268.531 228.772,266.657 C229.133,264.783 231.922,263.725 234.997,264.316 C238.072,264.907 240.293,266.884 239.936,268.774 z" fill="url(#Gradient_55)"/>
      <path d="M272.665,271.568 C272.661,273.485 270.103,275.016 266.961,275.012 C263.819,275.008 261.277,273.446 261.281,271.529 C261.286,269.612 263.844,268.081 266.986,268.085 C270.128,268.088 272.674,269.667 272.665,271.568 z" fill="url(#Gradient_56)"/>
      <path d="M305.048,270.364 C305.161,272.267 302.698,273.962 299.572,274.144 C296.429,274.33 293.809,272.927 293.696,271.024 C293.583,269.121 296.046,267.426 299.172,267.244 C302.315,267.058 304.951,268.457 305.048,270.364 z" fill="url(#Gradient_57)"/>
      <path d="M332.467,265.192 C332.782,267.075 330.505,269.014 327.416,269.531 C324.323,270.032 321.555,268.91 321.24,267.026 C320.925,265.143 323.201,263.204 326.29,262.687 C329.379,262.17 332.148,263.292 332.467,265.192 z" fill="url(#Gradient_58)"/>
      <path d="M359.513,252.508 C360.459,254.171 359.018,256.783 356.295,258.341 C353.571,259.899 350.582,259.82 349.636,258.158 C348.69,256.496 350.13,253.883 352.853,252.325 C355.593,250.763 358.567,250.846 359.513,252.508 z" fill="url(#Gradient_59)"/>
      <path d="M327.73,214.857 C316.503,187.387 284.018,175.26 254.855,181.59 C236.571,185.557 221.759,197.845 214.824,214.407 C212.573,219.791 209.504,226.309 214.458,231.143 C220.37,236.911 231.248,239.053 239.219,240.524 C260.206,244.393 282.376,244.493 303.438,240.782 C311.429,239.366 322.03,237.32 327.987,231.598 C332.986,226.807 329.936,220.255 327.73,214.857 z" fill="url(#Gradient_60)"/>
      <path d="M278.209,188.88 C279.608,188.816 281.246,188.878 283.033,189.106 C284.821,189.335 286.768,189.711 288.815,190.267 C290.863,190.823 293.006,191.543 295.169,192.465 C297.327,193.371 299.521,194.474 301.662,195.764 C303.803,197.055 305.906,198.528 307.887,200.189 C309.868,201.85 311.743,203.695 313.443,205.724 C315.143,207.754 316.681,209.948 317.99,212.324 C319.296,214.684 320.39,217.221 321.227,219.896 C322.065,222.571 322.634,225.404 322.947,228.375 C322.947,228.375 322.742,227.74 322.214,226.604 C321.685,225.469 320.853,223.845 319.53,221.87 C318.207,219.894 316.413,217.579 313.948,215.081 C311.489,212.599 308.346,209.955 304.349,207.402 C302.579,206.271 300.436,205.102 298.055,203.945 C295.658,202.792 293.027,201.668 290.308,200.602 C287.593,199.552 284.806,198.555 282.13,197.65 C279.454,196.745 276.888,195.931 274.672,195.195 C272.44,194.465 270.552,193.797 269.211,193.172 C267.871,192.548 267.097,191.979 267.087,191.429 C267.094,190.875 267.886,190.352 269.666,189.91 C271.446,189.467 274.242,189.08 278.209,188.88 z" fill="#DCFFFA" opacity="0.48"/>
      <g>
        <path d="M200.376,282.222 L205.318,284.177 C206.19,284.599 207.871,285.202 208.201,286.114 C209.379,289.285 209.382,290.457 209.858,293.005 C210.378,295.783 201.48,290.142 198.53,284.995 C197.33,282.9 198.203,281.199 200.376,282.222 z" fill="#A3B0D6"/>
        <path d="M341.667,282.781 L336.709,284.696 C335.835,285.103 334.151,285.71 333.806,286.613 C332.613,289.763 332.585,290.945 332.089,293.476 C331.542,296.264 340.502,290.67 343.481,285.557 C344.708,283.502 343.846,281.766 341.667,282.781 z" fill="#A3B0D6"/>
        <path d="M275.329,292.911 C274.513,291.99 272.728,291.64 271.759,291.503 C269.854,291.219 267.759,291.712 266.244,292.946 C265.932,293.202 265.736,293.565 265.739,293.962 C265.767,296.129 268.793,301.686 271.38,300.907 C272.563,300.556 273.483,298.773 274.122,297.808 C274.847,296.716 275.715,295.379 275.744,294.008 C275.749,293.575 275.597,293.201 275.329,292.911 z" fill="#A3B0D6"/>
      </g>
      <path d="M253.758,187.286 C254.579,187.066 255.437,186.853 256.271,186.681 C269.825,183.74 284.085,185.045 296.395,190.341 C309.25,195.871 318.605,205.083 323.459,216.951 L323.762,217.698 C324.896,220.449 326.187,223.59 326.022,225.808 C325.878,227.849 326.982,229.779 328.825,230.666 C354.062,242.923 367.538,251.67 369.616,254.789 C369.698,256.32 368.891,260.264 365.215,265.029 C361.882,269.339 355.154,275.595 342.088,280.873 C340.967,281.329 340.051,282.161 339.511,283.238 C339.492,283.295 339.452,283.34 339.433,283.397 C338.902,284.247 338.124,285.146 337.256,285.965 C337.153,285.837 337.034,285.714 336.919,285.607 C335.648,284.342 333.812,283.868 332.105,284.325 L332.009,284.351 C331.176,284.591 330.327,284.836 329.457,285.069 C314.691,289.026 296.553,291.09 275.547,291.213 C275.115,291.208 274.683,291.272 274.281,291.379 C272.928,291.742 271.763,292.675 271.105,293.956 C270.292,292.276 268.6,291.176 266.706,291.131 C244.668,290.685 225.837,288.102 210.696,283.444 C209.773,283.156 208.823,283.152 207.937,283.389 C207.116,283.609 206.335,284.043 205.71,284.676 C205.547,284.84 205.389,285.021 205.262,285.193 C204.464,284.406 203.755,283.56 203.296,282.751 C202.833,281.408 201.832,280.313 200.508,279.753 C179.925,271.082 173.71,259.803 173.26,254.453 C173.245,254.267 173.238,254.113 173.245,254.008 C175.455,250.792 190.066,241.683 214.336,230.105 C216.173,229.233 217.29,227.346 217.179,225.322 C217.06,223.076 218.355,219.985 219.502,217.244 L219.797,216.544 C225.839,202.119 238.203,191.454 253.758,187.286 M252.464,182.455 C235.443,187.016 221.765,198.896 215.191,214.62 C213.749,218.061 211.999,221.964 212.193,225.588 C201.896,230.505 169.883,246.228 168.398,252.666 C168.255,253.291 168.203,254.065 168.298,254.936 C168.834,261.317 175.394,274.591 198.536,284.372 C198.625,284.641 198.735,284.923 198.914,285.203 C201.434,289.584 208.287,294.358 209.914,293.922 C210.188,293.849 210.317,293.624 210.242,293.213 C209.873,291.258 209.773,290.111 209.22,288.24 C223.309,292.577 241.998,295.663 266.601,296.147 C267.548,298.586 269.75,301.654 271.699,301.132 L271.763,301.115 C272.946,300.763 273.867,298.981 274.505,298.016 C274.876,297.467 275.266,296.862 275.579,296.226 C298.914,296.101 316.908,293.626 330.756,289.916 C331.657,289.674 332.539,289.421 333.404,289.172 C332.938,290.781 332.827,291.915 332.477,293.7 C332.34,294.41 332.816,294.576 333.637,294.356 C336.068,293.704 341.653,289.619 343.873,285.797 C343.92,285.715 343.951,285.638 343.999,285.556 C369.897,275.096 375.126,259.957 374.626,254.292 C374.601,254.005 374.568,253.755 374.504,253.514 C373.082,247.112 341.586,231.337 331.031,226.209 C331.293,222.549 329.535,218.568 328.102,215.086 C316.85,187.587 284.365,175.46 255.202,181.79 C254.292,182 253.366,182.213 252.464,182.455 z" fill="#424242" opacity="0.2"/>
      <text transform="matrix(1, 0, 0, 1, 271.271, 224)">
        <tspan x="-43.524" y="3" font-family="HelveticaNeue-Bold" font-size="18" fill="#000000">!43b67b44</tspan>
      </text>
    </g>
  </g>
</svg>
