<svg height="576" viewBox="0 0 576 576" width="576" xmlns="http://www.w3.org/2000/svg" xmlns:xlink="http://www.w3.org/1999/xlink"><linearGradient id="a"><stop offset="0" stop-color="#8690bb"/><stop offset=".265" stop-color="#6e76a6"/><stop offset=".665" stop-color="#b0bee1"/><stop offset=".884" stop-color="#6e76a6"/><stop offset="1" stop-color="#8a90b3"/></linearGradient><linearGradient id="b" gradientTransform="matrix(1 .004 -.004 1 12.321 -18.439)" gradientUnits="userSpaceOnUse" x1="358.631" x2="514.312" xlink:href="#a" y1="165.124" y2="165.124"/><linearGradient id="c"><stop offset="0" stop-color="#3bda83"/><stop offset=".228" stop-color="#00eccc"/></linearGradient><radialGradient id="d" cx="397.025" cy="172.753" gradientTransform="matrix(1.045 .004 -.004 1 33.914 -18.352)" gradientUnits="userSpaceOnUse" r="50.001" xlink:href="#c"/><linearGradient id="e"><stop offset=".065" stop-color="#00eccc"/><stop offset=".252" stop-color="#00e7c7"/><stop offset=".481" stop-color="#00d8bb"/><stop offset=".732" stop-color="#00bfa5"/><stop offset=".997" stop-color="#009c87"/><stop offset="1" stop-color="#009c87"/></linearGradient><radialGradient id="f" cx="238.013" cy="-203.384" gradientTransform="matrix(.9 .436 -.326 .673 104.568 172.99)" gradientUnits="userSpaceOnUse" r="4.58" xlink:href="#e"/><radialGradient id="g" cx="255.004" cy="-201.441" gradientTransform="matrix(.9 .436 -.326 .673 104.986 172.361)" gradientUnits="userSpaceOnUse" r="4.58" xlink:href="#e"/><radialGradient id="h" cx="360.149" cy="-35.169" gradientTransform="matrix(.962 .271 -.203 .72 66.275 81.564)" gradientUnits="userSpaceOnUse" r="4.58" xlink:href="#e"/><radialGradient id="i" cx="443.779" cy="148.343" gradientTransform="matrix(.996 .092 -.069 .744 12.889 5.779)" gradientUnits="userSpaceOnUse" r="4.58" xlink:href="#e"/><radialGradient id="j" cx="481.365" cy="213.28" gradientTransform="matrix(1 .03 -.022 .747 -7.349 -17.401)" gradientUnits="userSpaceOnUse" r="4.58" xlink:href="#e"/><radialGradient id="k" cx="516.269" cy="322.725" gradientTransform="matrix(.997 -.074 .055 .746 -42.895 -49.61)" gradientUnits="userSpaceOnUse" r="4.58" xlink:href="#e"/><radialGradient id="l" cx="507.218" cy="701.671" gradientTransform="matrix(.908 -.418 .313 .679 -169.436 -119.323)" gradientUnits="userSpaceOnUse" r="4.58" xlink:href="#e"/><linearGradient id="m"><stop offset=".093" stop-color="#fff"/><stop offset=".256" stop-color="#43dd89"/><stop offset=".338" stop-color="#5bd692"/><stop offset=".472" stop-color="#5ece91"/><stop offset=".63" stop-color="#4dd189"/><stop offset="1" stop-color="#3bda83"/></linearGradient><radialGradient id="n" cx="444.96" cy="75.195" gradientTransform="matrix(.98 .199 -.192 .945 21.518 -27.658)" gradientUnits="userSpaceOnUse" r="45.132" xlink:href="#m"/><linearGradient id="o" gradientTransform="matrix(1 .004 -.004 1 12.321 -18.439)" gradientUnits="userSpaceOnUse" x1="119.609" x2="222.894" xlink:href="#a" y1="183.153" y2="183.153"/><radialGradient id="p" cx="143.219" cy="188.212" gradientTransform="matrix(1.045 .004 -.004 1 33.914 -18.352)" gradientUnits="userSpaceOnUse" r="33.173" xlink:href="#c"/><radialGradient id="q" cx="26.989" cy="-37.242" gradientTransform="matrix(.9 .436 -.326 .673 104.568 172.99)" gradientUnits="userSpaceOnUse" r="3.039" xlink:href="#e"/><radialGradient id="r" cx="38.227" cy="-35.616" gradientTransform="matrix(.9 .436 -.326 .673 104.986 172.361)" gradientUnits="userSpaceOnUse" r="3.039" xlink:href="#e"/><radialGradient id="s" cx="118.014" cy="77.141" gradientTransform="matrix(.962 .271 -.203 .72 66.275 81.564)" gradientUnits="userSpaceOnUse" r="3.039" xlink:href="#e"/><radialGradient id="t" cx="182.087" cy="199.568" gradientTransform="matrix(.996 .092 -.069 .744 12.889 5.779)" gradientUnits="userSpaceOnUse" r="3.039" xlink:href="#e"/><radialGradient id="u" cx="209.591" cy="243.288" gradientTransform="matrix(1 .03 -.022 .747 -7.349 -17.401)" gradientUnits="userSpaceOnUse" r="3.039" xlink:href="#e"/><radialGradient id="v" cx="236.584" cy="315.781" gradientTransform="matrix(.997 -.074 .055 .746 -42.895 -49.61)" gradientUnits="userSpaceOnUse" r="3.039" xlink:href="#e"/><radialGradient id="w" cx="239.538" cy="563.464" gradientTransform="matrix(.908 -.418 .313 .679 -169.436 -119.323)" gradientUnits="userSpaceOnUse" r="3.039" xlink:href="#e"/><radialGradient id="x" cx="191.127" cy="152.484" gradientTransform="matrix(.98 .199 -.192 .945 21.518 -27.658)" gradientUnits="userSpaceOnUse" r="29.943" xlink:href="#m"/><linearGradient id="y" gradientTransform="matrix(1 .004 -.004 1 12.321 -18.439)" gradientUnits="userSpaceOnUse" x1="44.745" x2="198.137" xlink:href="#a" y1="466.992" y2="466.992"/><radialGradient id="z" cx="95.553" cy="474.504" gradientTransform="matrix(1.045 .004 -.004 1 33.914 -18.352)" gradientUnits="userSpaceOnUse" r="49.266" xlink:href="#c"/><radialGradient id="A" cx="85.225" cy="342.435" gradientTransform="matrix(.9 .436 -.326 .673 104.568 172.99)" gradientUnits="userSpaceOnUse" r="4.513" xlink:href="#e"/><radialGradient id="B" cx="101.964" cy="344.364" gradientTransform="matrix(.9 .436 -.326 .673 104.986 172.361)" gradientUnits="userSpaceOnUse" r="4.513" xlink:href="#e"/><radialGradient id="C" cx="137.77" cy="466.378" gradientTransform="matrix(.962 .271 -.203 .72 66.275 81.564)" gradientUnits="userSpaceOnUse" r="4.513" xlink:href="#e"/><radialGradient id="D" cx="156.533" cy="587.438" gradientTransform="matrix(.996 .092 -.069 .744 12.889 5.779)" gradientUnits="userSpaceOnUse" r="4.513" xlink:href="#e"/><radialGradient id="E" cx="173.955" cy="627.712" gradientTransform="matrix(1 .03 -.022 .747 -7.349 -17.401)" gradientUnits="userSpaceOnUse" r="4.513" xlink:href="#e"/><radialGradient id="F" cx="178.106" cy="692.356" gradientTransform="matrix(.997 -.074 .055 .746 -42.895 -49.61)" gradientUnits="userSpaceOnUse" r="4.513" xlink:href="#e"/><radialGradient id="G" cx="93.365" cy="889.463" gradientTransform="matrix(.908 -.418 .313 .679 -169.436 -119.323)" gradientUnits="userSpaceOnUse" r="4.513" xlink:href="#e"/><radialGradient id="H" cx="195.098" cy="446.159" gradientTransform="matrix(.98 .199 -.192 .945 21.518 -27.658)" gradientUnits="userSpaceOnUse" r="44.469" xlink:href="#m"/><linearGradient id="I" gradientTransform="matrix(1 .004 -.004 1 12.321 -18.439)" gradientUnits="userSpaceOnUse" x1="210.246" x2="364.744" xlink:href="#a" y1="477.201" y2="477.201"/><radialGradient id="J" cx="254.46" cy="484.77" gradientTransform="matrix(1.045 .004 -.004 1 33.914 -18.352)" gradientUnits="userSpaceOnUse" r="49.621" xlink:href="#c"/><radialGradient id="K" cx="238.96" cy="258.974" gradientTransform="matrix(.9 .436 -.326 .673 104.568 172.99)" gradientUnits="userSpaceOnUse" r="4.546" xlink:href="#e"/><radialGradient id="L" cx="255.821" cy="260.909" gradientTransform="matrix(.9 .436 -.326 .673 104.986 172.361)" gradientUnits="userSpaceOnUse" r="4.546" xlink:href="#e"/><radialGradient id="M" cx="300.322" cy="420.225" gradientTransform="matrix(.962 .271 -.203 .72 66.275 81.564)" gradientUnits="userSpaceOnUse" r="4.546" xlink:href="#e"/><radialGradient id="N" cx="322.818" cy="581.602" gradientTransform="matrix(.996 .092 -.069 .744 12.889 5.779)" gradientUnits="userSpaceOnUse" r="4.546" xlink:href="#e"/><radialGradient id="O" cx="340.364" cy="635.682" gradientTransform="matrix(1 .03 -.022 .747 -7.349 -17.401)" gradientUnits="userSpaceOnUse" r="4.546" xlink:href="#e"/><radialGradient id="P" cx="343.156" cy="723.306" gradientTransform="matrix(.997 -.074 .055 .746 -42.895 -49.61)" gradientUnits="userSpaceOnUse" r="4.546" xlink:href="#e"/><radialGradient id="Q" cx="240.028" cy="995.787" gradientTransform="matrix(.908 -.418 .313 .679 -169.436 -119.323)" gradientUnits="userSpaceOnUse" r="4.546" xlink:href="#e"/><radialGradient id="R" cx="359.896" cy="422.782" gradientTransform="matrix(.98 .199 -.192 .945 21.518 -27.658)" gradientUnits="userSpaceOnUse" r="44.789" xlink:href="#m"/><linearGradient id="S" gradientTransform="matrix(1 .004 -.004 1 12.321 -18.439)" gradientUnits="userSpaceOnUse" x1="354.901" x2="458.504" xlink:href="#a" y1="413.066" y2="413.066"/><radialGradient id="T" cx="368.537" cy="418.144" gradientTransform="matrix(1.045 .004 -.004 1 33.914 -18.352)" gradientUnits="userSpaceOnUse" r="33.275" xlink:href="#c"/><radialGradient id="U" cx="338.542" cy="104.091" gradientTransform="matrix(.9 .436 -.326 .673 104.568 172.99)" gradientUnits="userSpaceOnUse" r="3.048" xlink:href="#e"/><radialGradient id="V" cx="349.815" cy="105.718" gradientTransform="matrix(.9 .436 -.326 .673 104.986 172.361)" gradientUnits="userSpaceOnUse" r="3.048" xlink:href="#e"/><radialGradient id="W" cx="406.363" cy="289.217" gradientTransform="matrix(.962 .271 -.203 .72 66.275 81.564)" gradientUnits="userSpaceOnUse" r="3.048" xlink:href="#e"/><radialGradient id="X" cx="436.814" cy="478.262" gradientTransform="matrix(.996 .092 -.069 .744 12.889 5.779)" gradientUnits="userSpaceOnUse" r="3.048" xlink:href="#e"/><radialGradient id="Y" cx="450.954" cy="542.598" gradientTransform="matrix(1 .03 -.022 .747 -7.349 -17.401)" gradientUnits="userSpaceOnUse" r="3.048" xlink:href="#e"/><radialGradient id="Z" cx="453.523" cy="646.864" gradientTransform="matrix(.997 -.074 .055 .746 -42.895 -49.61)" gradientUnits="userSpaceOnUse" r="3.048" xlink:href="#e"/><radialGradient id="aa" cx="356.126" cy="975.223" gradientTransform="matrix(.908 -.418 .313 .679 -169.436 -119.323)" gradientUnits="userSpaceOnUse" r="3.048" xlink:href="#e"/><radialGradient id="ab" cx="466.963" cy="338.494" gradientTransform="matrix(.98 .199 -.192 .945 21.518 -27.658)" gradientUnits="userSpaceOnUse" r="30.035" xlink:href="#m"/><linearGradient id="ac" gradientTransform="matrix(1 .004 -.004 1 12.321 -18.439)" gradientUnits="userSpaceOnUse" x1="188.785" x2="395.162" xlink:href="#a" y1="309.329" y2="309.329"/><radialGradient id="ad" cx="258.746" cy="319.438" gradientTransform="matrix(1.045 .004 -.004 1 33.914 -18.352)" gradientUnits="userSpaceOnUse" r="66.283" xlink:href="#c"/><radialGradient id="ae" cx="150.296" cy="62.671" gradientTransform="matrix(.9 .436 -.326 .673 104.568 172.99)" gradientUnits="userSpaceOnUse" r="6.072" xlink:href="#e"/><radialGradient id="af" cx="172.853" cy="64.92" gradientTransform="matrix(.9 .436 -.326 .673 104.986 172.361)" gradientUnits="userSpaceOnUse" r="6.072" xlink:href="#e"/><radialGradient id="ag" cx="251.201" cy="208.062" gradientTransform="matrix(.962 .271 -.203 .72 66.275 81.564)" gradientUnits="userSpaceOnUse" r="6.072" xlink:href="#e"/><radialGradient id="ah" cx="311.629" cy="361.331" gradientTransform="matrix(.996 .092 -.069 .744 12.889 5.779)" gradientUnits="userSpaceOnUse" r="6.072" xlink:href="#e"/><radialGradient id="ai" cx="347.539" cy="414.298" gradientTransform="matrix(1 .03 -.022 .747 -7.349 -17.401)" gradientUnits="userSpaceOnUse" r="6.072" xlink:href="#e"/><radialGradient id="aj" cx="374.407" cy="503.295" gradientTransform="matrix(.997 -.074 .055 .746 -42.895 -49.61)" gradientUnits="userSpaceOnUse" r="6.072" xlink:href="#e"/><radialGradient id="ak" cx="334.331" cy="805.016" gradientTransform="matrix(.908 -.418 .313 .679 -169.436 -119.323)" gradientUnits="userSpaceOnUse" r="6.072" xlink:href="#e"/><radialGradient id="al" cx="328.745" cy="246.033" gradientTransform="matrix(.98 .199 -.192 .945 21.518 -27.658)" gradientUnits="userSpaceOnUse" r="59.829" xlink:href="#m"/><g fill="#3bda83"><path d="m444.364 88c-24.066 0-43.637 19.571-43.637 43.636 0 7.528 1.913 14.611 5.28 20.8l-71.483 71.484c-9.855-7.673-22.189-12.284-35.615-12.284-13.425 0-25.76 4.611-35.622 12.277l-55.774-55.775c2.56-4.327 4.123-9.302 4.123-14.683 0-16.044-13.047-29.091-29.091-29.091-16.043 0-29.09 13.047-29.09 29.091 0 16.043 13.047 29.09 29.09 29.09 5.382 0 10.357-1.563 14.684-4.123l55.775 55.774c-7.666 9.862-12.277 22.197-12.277 35.622 0 13.426 4.611 25.76 12.277 35.615l-92.102 92.109c-7.753-7.033-18-11.36-29.266-11.36-24.065 0-43.636 19.571-43.636 43.636 0 24.066 19.571 43.637 43.636 43.637 24.066 0 43.637-19.571 43.637-43.637 0-7.527-1.913-14.611-5.28-20.8l93.302-93.302c8.043 6.255 17.745 10.444 28.349 11.775v73.891c-20.604 3.476-36.364 21.396-36.364 42.982 0 24.065 19.571 43.636 43.636 43.636 24.066 0 43.637-19.571 43.637-43.636 0-21.579-15.76-39.499-36.364-42.982v-73.891c10.604-1.331 20.306-5.52 28.349-11.775l55.775 55.775c-2.568 4.334-4.131 9.309-4.131 14.691 0 16.043 13.047 29.091 29.091 29.091 16.043 0 29.091-13.048 29.091-29.091 0-16.044-13.048-29.091-29.091-29.091-5.382 0-10.357 1.564-14.684 4.124l-55.774-55.775c7.665-9.862 12.276-22.196 12.276-35.622 0-13.425-4.611-25.76-12.276-35.614l70.29-70.291c7.746 7.032 17.993 11.36 29.259 11.36 24.065 0 43.636-19.571 43.636-43.637 0-24.065-19.571-43.636-43.636-43.636zm-276.364 65.455c0-8.022 6.524-14.546 14.545-14.546 8.022 0 14.546 6.524 14.546 14.546 0 8.021-6.524 14.545-14.546 14.545-8.021 0-14.545-6.524-14.545-14.545zm-36.364 305.454c-16.043 0-29.091-13.047-29.091-29.091 0-16.043 13.048-29.091 29.091-29.091 16.044 0 29.091 13.048 29.091 29.091 0 16.044-13.047 29.091-29.091 29.091zm196.364-14.545c0 16.043-13.047 29.091-29.091 29.091s-29.091-13.048-29.091-29.091c0-16.044 13.047-29.091 29.091-29.091s29.091 13.047 29.091 29.091zm-29.091-130.909c-24.065 0-43.636-19.571-43.636-43.637 0-24.065 19.571-43.636 43.636-43.636 24.066 0 43.636 19.571 43.636 43.636 0 24.066-19.57 43.637-43.636 43.637zm130.909 72.727c0 8.022-6.523 14.545-14.545 14.545s-14.546-6.523-14.546-14.545 6.524-14.546 14.546-14.546 14.545 6.524 14.545 14.546zm14.546-225.455c-16.044 0-29.091-13.047-29.091-29.091 0-16.043 13.047-29.091 29.091-29.091 16.043 0 29.091 13.048 29.091 29.091 0 16.044-13.048 29.091-29.091 29.091z"/><path d="m178.23 138.769 14.309 2.63-51.567 280.526-14.309-2.63z"/><path d="m437.839 145.321 14.505 1.121-18.791 243.054-14.506-1.121z"/><path d="m445 107.043 2.603 14.314-260.145 47.323-2.604-14.313z"/><path d="m418.613 369.517 10.112 10.46-71.474 69.095-10.112-10.46z"/><path d="m168.519 436.189 1.637-14.456 98.78 11.187-1.637 14.456z"/></g><path d="m525.891 143.324c-1.281-5.802-35.377-21.832-35.377-21.832l-84.665-.345s-34.092 15.762-35.431 21.55c-1.34 5.788 8.729 32.578 78.299 32.854 69.57.275 78.455-26.425 77.174-32.227z" fill="url(#b)"/><path d="m490.711 117.417c-8.399-21.432-32.662-30.892-54.472-25.946-13.66 3.1-24.749 12.685-29.918 25.605-1.675 4.198-3.984 9.283-.278 13.055 4.423 4.504 12.537 6.17 18.508 7.317 15.691 3.022 32.256 3.088 48.002.197 5.979-1.108 13.895-2.708 18.35-7.17 3.735-3.747 1.456-8.852-.192-13.058z" fill="#505c70"/><path d="m370.667 142.086c4.648 11.024 18.497 15.783 28.996 18.813 15.801 4.56 32.146 5.901 48.51 6.257 20.613-.446 42.295-1.845 61.411-10.436 6.495-2.919 13.335-6.901 16.174-13.752l.133.356c.147.989.094.389.043 1.806-2.708 8.357-12.271 12.86-19.844 15.817-14.28 5.578-29.513 7.445-44.697 8.497-9.053.322-4.624.234-13.286.281-8.559-.115-4.234.007-12.975-.373-16.812-1.231-34.244-3.519-49.601-10.974-6.515-3.163-13.163-7.466-15.197-14.783-.014-.51-.025-.209.084-.898.225-.587.097-.408.249-.611z" fill="url(#d)"/><path d="m389.443 141.596c-.511 1.348-2.719 1.757-4.935.919-2.217-.838-3.592-2.618-3.081-3.966s2.719-1.757 4.936-.919c2.219.851 3.591 2.618 3.08 3.966z" fill="url(#f)"/><path d="m404.523 149.676c-.511 1.348-2.719 1.757-4.935.919-2.217-.838-3.592-2.618-3.081-3.966.511-1.347 2.719-1.757 4.936-.919 2.216.839 3.591 2.618 3.08 3.966z" fill="url(#g)"/><path d="m424.66 155.008c-.272 1.414-2.375 2.212-4.695 1.766-2.332-.443-3.998-1.949-3.726-3.363s2.375-2.212 4.695-1.766 3.995 1.937 3.726 3.363z" fill="url(#h)"/><path d="m449.35 157.115c-.004 1.446-1.933 2.601-4.304 2.599-2.37-.003-4.287-1.182-4.284-2.628s1.933-2.601 4.303-2.598c2.371.003 4.291 1.194 4.285 2.627z" fill="url(#i)"/><path d="m473.777 156.207c.086 1.436-1.772 2.714-4.131 2.852-2.371.14-4.347-.918-4.432-2.354-.085-1.435 1.773-2.714 4.131-2.851 2.371-.141 4.359.915 4.432 2.353z" fill="url(#j)"/><path d="m494.461 152.306c.237 1.42-1.48 2.883-3.81 3.273-2.333.378-4.422-.469-4.659-1.889-.238-1.421 1.48-2.884 3.81-3.274s4.418.457 4.659 1.89z" fill="url(#k)"/><path d="m514.863 142.738c.714 1.254-.373 3.224-2.427 4.4-2.055 1.175-4.31 1.115-5.024-.138-.713-1.254.373-3.225 2.428-4.4 2.066-1.179 4.309-1.116 5.023.138z" fill="url(#l)"/><path d="m490.888 114.336c-8.469-20.723-32.975-29.871-54.974-25.096-13.792 2.993-24.966 12.262-30.197 24.756-1.698 4.062-4.013 8.978-.276 12.625 4.46 4.351 12.665 5.967 18.678 7.077 15.832 2.918 32.556 2.994 48.444.194 6.028-1.068 14.025-2.612 18.519-6.928 3.77-3.614 1.47-8.556-.194-12.628z" fill="url(#n)"/><path d="m453.532 94.74c1.054-.048 2.291-.002 3.639.17 1.348.173 2.817.456 4.361.876 1.545.419 3.162.962 4.793 1.658 1.628.683 3.283 1.516 4.898 2.489s3.202 2.084 4.696 3.337c1.495 1.253 2.909 2.645 4.192 4.176 1.282 1.531 2.442 3.186 3.43 4.979.984 1.78 1.81 3.694 2.441 5.712.632 2.018 1.062 4.155 1.298 6.396 0 0-.155-.479-.553-1.336-.399-.856-1.027-2.081-2.025-3.571-.998-1.491-2.352-3.237-4.21-5.121-1.856-1.873-4.226-3.867-7.242-5.793-1.335-.853-2.952-1.735-4.748-2.608-1.808-.869-3.793-1.718-5.844-2.522-2.048-.792-4.15-1.544-6.169-2.227s-3.954-1.297-5.626-1.851c-1.683-.552-3.107-1.055-4.119-1.526-1.011-.471-1.595-.901-1.602-1.316.005-.418.602-.812 1.945-1.146 1.343-.333 3.452-.625 6.445-.776z" fill="#dcfffa" opacity=".48"/><path d="m394.818 165.152 3.728 1.475c.658.319 1.925.773 2.175 1.461.888 2.392.891 3.277 1.25 5.199.392 2.095-6.321-2.16-8.546-6.043-.905-1.58-.246-2.863 1.393-2.092z" fill="#a3b0d6"/><path d="m501.401 165.574-3.74 1.445c-.659.307-1.93.764-2.19 1.446-.899 2.376-.921 3.267-1.295 5.177-.413 2.103 6.346-2.117 8.594-5.974.925-1.55.275-2.86-1.369-2.094z" fill="#a3b0d6"/><path d="m451.359 173.215c-.615-.694-1.962-.958-2.693-1.062-1.437-.213-3.017.158-4.161 1.089-.234.193-.382.467-.38.766.021 1.635 2.303 5.827 4.255 5.239.892-.265 1.586-1.609 2.068-2.337.548-.824 1.202-1.833 1.224-2.867.004-.327-.111-.608-.313-.828z" fill="#a3b0d6"/><path d="m435.087 93.537c.619-.166 1.266-.326 1.896-.456 10.224-2.219 20.981-1.234 30.267 2.761 9.697 4.172 16.754 11.121 20.416 20.073l.229.564c.855 2.075 1.828 4.444 1.704 6.118-.108 1.539.725 2.995 2.115 3.664 19.037 9.246 29.203 15.844 30.771 18.197.062 1.155-.547 4.131-3.321 7.725-2.513 3.251-7.589 7.97-17.445 11.952-.846.344-1.537.972-1.944 1.784-.014.043-.044.077-.059.12-.401.641-.987 1.319-1.642 1.937-.078-.096-.168-.189-.255-.27-.958-.954-2.343-1.312-3.631-.967l-.073.019c-.628.182-1.269.366-1.925.542-11.138 2.985-24.821 4.542-40.666 4.635-.327-.004-.652.044-.956.125-1.02.274-1.899.978-2.395 1.944-.614-1.268-1.89-2.097-3.319-2.131-16.624-.337-30.829-2.285-42.251-5.799-.696-.217-1.413-.22-2.081-.041-.62.166-1.209.493-1.68.971-.123.124-.243.26-.338.39-.602-.594-1.137-1.232-1.483-1.842-.35-1.013-1.105-1.839-2.103-2.262-15.527-6.541-20.216-15.049-20.555-19.085-.012-.141-.017-.256-.012-.336 1.668-2.426 12.689-9.298 30.998-18.031 1.386-.658 2.228-2.081 2.144-3.608-.089-1.695.887-4.026 1.752-6.094l.223-.528c4.558-10.881 13.885-18.927 25.619-22.071m-.977-3.644c-12.839 3.44-23.157 12.402-28.116 24.263-1.088 2.596-2.408 5.541-2.262 8.275-7.768 3.708-31.917 15.569-33.037 20.426-.108.472-.147 1.055-.075 1.712.404 4.813 5.353 14.827 22.81 22.205.067.204.15.416.285.627 1.901 3.305 7.071 6.906 8.298 6.577.206-.055.304-.224.247-.535-.278-1.474-.354-2.339-.771-3.751 10.628 3.271 24.727 5.6 43.286 5.965.714 1.839 2.376 4.154 3.845 3.76l.049-.013c.892-.265 1.587-1.61 2.069-2.338.279-.413.574-.869.81-1.349 17.602-.095 31.176-1.962 41.622-4.761.68-.182 1.345-.373 1.998-.561-.352 1.214-.435 2.069-.699 3.416-.104.536.255.661.875.495 1.834-.492 6.046-3.573 7.721-6.457.036-.061.059-.12.095-.181 19.536-7.891 23.481-19.311 23.104-23.585-.019-.216-.044-.405-.092-.587-1.073-4.829-24.832-16.729-32.794-20.597.197-2.761-1.128-5.764-2.21-8.391-8.487-20.744-32.993-29.891-54.992-25.117-.686.158-1.385.32-2.066.502z" fill="#424242" opacity=".2"/><text transform="translate(447.311 119.667)"><tspan font-family="HelveticaNeue-Bold" font-size="14" x="-33.978" y="4.5">!da63b810</tspan></text><path d="m234.426 162.01c-.85-3.849-23.471-14.484-23.471-14.484l-56.17-.229s-22.618 10.457-23.507 14.297 5.792 21.614 51.947 21.797c46.156.183 52.051-17.532 51.201-21.381z" fill="url(#o)"/><path d="m211.086 144.822c-5.572-14.219-21.67-20.495-36.139-17.214-9.063 2.057-16.42 8.416-19.849 16.988-1.111 2.785-2.643 6.158-.185 8.661 2.935 2.988 8.318 4.094 12.28 4.855 10.409 2.004 21.399 2.048 31.846.13 3.967-.735 9.219-1.796 12.174-4.756 2.478-2.487.966-5.873-.127-8.664z" fill="#505c70"/><path d="m131.443 161.189c3.084 7.314 12.272 10.471 19.238 12.481 10.483 3.025 21.327 3.915 32.184 4.151 13.675-.296 28.06-1.224 40.742-6.923 4.309-1.937 8.847-4.579 10.731-9.124l.088.236c.097.656.063.258.028 1.198-1.796 5.545-8.141 8.532-13.165 10.494-9.474 3.7-19.58 4.939-29.654 5.637-6.006.214-3.068.155-8.815.187-5.678-.076-2.808.004-8.607-.248-11.154-.816-22.719-2.335-32.908-7.28-4.323-2.099-8.733-4.954-10.082-9.808-.01-.338-.017-.139.055-.596.15-.389.065-.27.165-.405z" fill="url(#p)"/><path d="m143.9 160.863c-.339.895-1.803 1.166-3.274.61s-2.383-1.737-2.044-2.631 1.804-1.166 3.275-.609c1.472.564 2.383 1.736 2.043 2.63z" fill="url(#q)"/><path d="m153.905 166.224c-.339.894-1.804 1.166-3.274.61-1.471-.556-2.383-1.737-2.044-2.631s1.804-1.166 3.274-.61c1.471.556 2.383 1.737 2.044 2.631z" fill="url(#r)"/><path d="m167.265 169.762c-.18.938-1.576 1.467-3.115 1.171-1.547-.293-2.653-1.293-2.472-2.231.18-.938 1.576-1.467 3.115-1.171 1.539.295 2.651 1.285 2.472 2.231z" fill="url(#s)"/><path d="m183.645 171.16c-.002.959-1.282 1.725-2.855 1.724-1.572-.002-2.844-.784-2.842-1.744.002-.959 1.282-1.725 2.855-1.723 1.572.001 2.846.792 2.842 1.743z" fill="url(#t)"/><path d="m199.852 170.557c.056.953-1.176 1.801-2.741 1.892-1.573.093-2.884-.609-2.941-1.561-.056-.953 1.176-1.801 2.741-1.892 1.573-.093 2.892.607 2.941 1.561z" fill="url(#u)"/><path d="m213.574 167.969c.158.942-.982 1.913-2.528 2.171-1.548.251-2.933-.311-3.091-1.253-.157-.942.982-1.913 2.528-2.172 1.546-.258 2.931.303 3.091 1.254z" fill="url(#v)"/><path d="m227.11 161.621c.473.832-.248 2.139-1.611 2.919s-2.859.74-3.332-.091c-.474-.832.247-2.14 1.61-2.92 1.371-.782 2.859-.74 3.333.092z" fill="url(#w)"/><path d="m211.203 142.778c-5.618-13.748-21.876-19.817-36.471-16.65-9.151 1.986-16.564 8.135-20.035 16.425-1.126 2.694-2.662 5.956-.183 8.375 2.959 2.887 8.403 3.959 12.392 4.695 10.504 1.937 21.599 1.987 32.14.13 3.999-.709 9.305-1.733 12.286-4.597 2.502-2.397.975-5.677-.129-8.378z" fill="url(#x)"/><path d="m186.42 129.777c.699-.032 1.52-.001 2.414.113.894.115 1.869.303 2.894.581 1.024.278 2.097.639 3.179 1.1 1.081.453 2.179 1.006 3.25 1.651 1.071.646 2.124 1.383 3.115 2.215.992.831 1.93 1.754 2.781 2.77s1.62 2.114 2.276 3.303c.653 1.181 1.201 2.451 1.62 3.79.419 1.338.704 2.756.861 4.243 0 0-.103-.318-.367-.886-.265-.568-.681-1.381-1.344-2.37-.662-.988-1.56-2.147-2.793-3.397-1.231-1.242-2.804-2.566-4.804-3.843-.886-.566-1.958-1.151-3.15-1.73-1.2-.577-2.517-1.14-3.878-1.674-1.358-.525-2.753-1.024-4.092-1.477-1.34-.453-2.623-.861-3.733-1.228-1.117-.366-2.061-.7-2.733-1.013-.671-.312-1.058-.597-1.063-.872.004-.278.4-.539 1.291-.761.891-.221 2.29-.415 4.276-.515z" fill="#dcfffa" opacity=".48"/><path d="m147.466 176.492 2.474.979c.436.211 1.277.512 1.443.969.589 1.587.591 2.174.829 3.449.26 1.39-4.193-1.433-5.67-4.009-.6-1.049-.163-1.9.924-1.388z" fill="#a3b0d6"/><path d="m218.179 176.772-2.482.958c-.438.204-1.28.508-1.453.96-.597 1.576-.611 2.168-.859 3.435-.274 1.394 4.21-1.405 5.701-3.964.614-1.028.183-1.897-.907-1.389z" fill="#a3b0d6"/><path d="m184.978 181.841c-.408-.46-1.302-.635-1.786-.704-.954-.142-2.002.104-2.761.722-.156.128-.254.31-.252.508.014 1.085 1.528 3.866 2.823 3.476.592-.176 1.052-1.068 1.372-1.551.363-.546.797-1.215.812-1.902.002-.216-.074-.403-.208-.549z" fill="#a3b0d6"/><path d="m174.183 128.979c.411-.11.84-.216 1.257-.302 6.784-1.472 13.92-.819 20.081 1.831 6.434 2.768 11.115 7.378 13.545 13.318l.152.374c.567 1.376 1.213 2.948 1.13 4.059-.071 1.021.481 1.987 1.403 2.431 12.631 6.134 19.375 10.511 20.415 12.072.041.767-.363 2.741-2.203 5.125-1.667 2.157-5.035 5.288-11.574 7.93-.561.228-1.019.645-1.289 1.183-.01.029-.03.051-.04.08-.266.425-.655.875-1.089 1.285-.052-.064-.111-.125-.169-.179-.636-.633-1.555-.87-2.409-.642l-.048.013c-.417.121-.842.243-1.277.36-7.39 1.98-16.468 3.013-26.981 3.075-.216-.003-.432.029-.634.083-.677.181-1.26.649-1.589 1.29-.407-.841-1.254-1.392-2.201-1.414-11.03-.224-20.454-1.516-28.032-3.848-.462-.144-.937-.146-1.381-.027-.411.11-.802.327-1.114.644-.082.082-.161.173-.224.259-.4-.394-.755-.817-.984-1.222-.232-.672-.733-1.22-1.396-1.501-10.301-4.339-13.411-9.984-13.637-12.662-.007-.093-.01-.17-.007-.222 1.106-1.61 8.418-6.169 20.565-11.963.919-.436 1.478-1.381 1.423-2.394-.06-1.124.588-2.671 1.162-4.043l.148-.35c3.024-7.219 9.212-12.557 16.997-14.643m-.648-2.418c-8.519 2.283-15.364 8.229-18.654 16.098-.722 1.722-1.598 3.676-1.5 5.489-5.154 2.461-21.176 10.33-21.919 13.552-.072.313-.097.7-.05 1.136.269 3.193 3.552 9.837 15.133 14.732.045.135.1.276.189.416 1.262 2.193 4.692 4.582 5.506 4.364.137-.037.202-.15.164-.355-.185-.979-.235-1.553-.512-2.489 7.051 2.17 16.405 3.715 28.718 3.957.474 1.22 1.576 2.756 2.551 2.495l.033-.009c.592-.176 1.052-1.068 1.372-1.551.186-.274.381-.577.537-.895 11.679-.063 20.684-1.301 27.615-3.158.451-.121.892-.248 1.325-.373-.233.805-.289 1.373-.464 2.267-.069.355.17.438.581.328 1.216-.326 4.011-2.371 5.123-4.284.023-.041.039-.079.062-.12 12.962-5.235 15.579-12.812 15.328-15.647-.012-.144-.028-.269-.061-.39-.711-3.204-16.474-11.098-21.757-13.665.131-1.831-.748-3.824-1.466-5.567-5.631-13.762-21.889-19.831-36.484-16.663-.455.105-.919.211-1.37.332z" fill="#424242" opacity=".2"/><text transform="translate(182.947 148.333)"><tspan font-family="HelveticaNeue-Bold" font-size="10" x="-23.905" y="-1.5">!33468d10</tspan></text><path d="m208.501 444.007c-1.262-5.716-34.857-21.511-34.857-21.511l-83.42-.34s-33.591 15.53-34.911 21.233c-1.319 5.703 8.601 32.1 77.149 32.371 68.547.272 77.301-26.036 76.039-31.753z" fill="url(#y)"/><path d="m173.838 418.481c-8.275-21.117-32.182-30.438-53.671-25.565-13.459 3.055-24.385 12.499-29.479 25.229-1.649 4.137-3.924 9.146-.273 12.863 4.358 4.438 12.353 6.08 18.236 7.21 15.46 2.977 31.781 3.042 47.296.193 5.891-1.091 13.691-2.668 18.08-7.064 3.68-3.692 1.435-8.722-.189-12.866z" fill="#505c70"/><path d="m55.559 442.787c4.58 10.863 18.225 15.552 28.57 18.537 15.569 4.493 31.673 5.814 47.797 6.165 20.309-.44 41.672-1.818 60.507-10.283 6.4-2.876 13.139-6.8 15.937-13.55l.131.351c.145.975.093.384.042 1.78-2.668 8.234-12.091 12.67-19.552 15.584-14.07 5.496-29.079 7.336-44.04 8.372-8.92.317-4.556.23-13.091.277-8.432-.113-4.171.007-12.783-.368-16.566-1.212-33.741-3.467-48.872-10.812-6.42-3.116-12.97-7.357-14.974-14.566-.014-.502-.025-.206.082-.885.222-.578.097-.401.246-.602z" fill="url(#z)"/><path d="m74.059 442.304c-.504 1.328-2.679 1.732-4.863.906s-3.539-2.58-3.035-3.908 2.679-1.731 4.863-.905c2.187.838 3.539 2.579 3.035 3.907z" fill="url(#A)"/><path d="m88.917 450.266c-.503 1.328-2.678 1.731-4.862.905s-3.539-2.579-3.036-3.907c.504-1.328 2.679-1.731 4.863-.906 2.184.826 3.539 2.58 3.035 3.908z" fill="url(#B)"/><path d="m108.759 455.519c-.268 1.393-2.341 2.18-4.627 1.74-2.297-.436-3.939-1.92-3.671-3.313s2.341-2.18 4.626-1.74c2.286.439 3.937 1.908 3.672 3.313z" fill="url(#C)"/><path d="m133.085 457.596c-.003 1.424-1.905 2.563-4.24 2.56-2.336-.003-4.225-1.165-4.221-2.589.003-1.425 1.904-2.563 4.239-2.56 2.336.003 4.228 1.176 4.222 2.589z" fill="url(#D)"/><path d="m157.154 456.701c.083 1.414-1.747 2.674-4.071 2.81-2.336.138-4.283-.905-4.367-2.319-.084-1.415 1.746-2.675 4.071-2.81 2.336-.139 4.295.902 4.367 2.319z" fill="url(#E)"/><path d="m177.533 452.857c.234 1.399-1.458 2.84-3.754 3.225-2.299.372-4.357-.462-4.591-1.862-.234-1.399 1.458-2.84 3.754-3.225 2.296-.384 4.354.45 4.591 1.862z" fill="url(#F)"/><path d="m197.635 443.43c.703 1.235-.367 3.177-2.392 4.335-2.024 1.158-4.246 1.099-4.949-.136-.703-1.236.367-3.177 2.392-4.336 2.036-1.161 4.246-1.099 4.949.137z" fill="url(#G)"/><path d="m174.012 415.445c-8.344-20.418-32.489-29.431-54.165-24.726-13.59 2.948-24.599 12.081-29.754 24.392-1.673 4.001-3.953 8.845-.271 12.438 4.394 4.287 12.479 5.88 18.403 6.973 15.599 2.876 32.077 2.95 47.732.192 5.94-1.053 13.819-2.574 18.247-6.826 3.715-3.561 1.448-8.431-.192-12.443z" fill="url(#H)"/><path d="m137.206 396.137c1.039-.047 2.257-.002 3.585.168s2.776.449 4.298.863c1.521.413 3.114.948 4.722 1.633 1.604.674 3.235 1.494 4.826 2.453s3.154 2.054 4.627 3.288c1.472 1.235 2.866 2.606 4.13 4.115 1.263 1.508 2.406 3.139 3.379 4.905.97 1.754 1.784 3.64 2.406 5.628.623 1.988 1.046 4.094 1.278 6.302 0 0-.152-.472-.545-1.316s-1.011-2.051-1.995-3.519c-.983-1.468-2.316-3.189-4.148-5.046-1.828-1.844-4.164-3.81-7.135-5.707-1.316-.841-2.908-1.71-4.678-2.57-1.782-.856-3.737-1.692-5.758-2.485-2.018-.78-4.09-1.521-6.079-2.194s-3.895-1.278-5.543-1.824c-1.659-.543-3.062-1.039-4.058-1.504-.997-.464-1.572-.887-1.579-1.296.005-.411.594-.8 1.917-1.129 1.322-.329 3.401-.616 6.35-.765z" fill="#dcfffa" opacity=".48"/><path d="m79.355 465.515 3.673 1.453c.648.313 1.897.761 2.143 1.439.875 2.357.878 3.229 1.231 5.122.387 2.065-6.227-2.128-8.419-5.953-.892-1.557-.243-2.822 1.372-2.061z" fill="#a3b0d6"/><path d="m184.371 465.93-3.685 1.424c-.65.302-1.902.753-2.158 1.425-.886 2.341-.907 3.219-1.276 5.101-.407 2.071 6.253-2.086 8.467-5.887.912-1.527.272-2.817-1.348-2.063z" fill="#a3b0d6"/><path d="m135.065 473.459c-.607-.684-1.934-.944-2.654-1.046-1.416-.211-2.973.155-4.099 1.073-.232.19-.377.46-.375.754.021 1.611 2.269 5.742 4.192 5.162.879-.261 1.563-1.586 2.038-2.303.54-.812 1.184-1.805 1.206-2.825.004-.321-.109-.599-.308-.815z" fill="#a3b0d6"/><path d="m119.032 394.952c.61-.163 1.248-.321 1.868-.449 10.074-2.186 20.673-1.217 29.822 2.72 9.555 4.11 16.508 10.957 20.115 19.778l.226.556c.843 2.044 1.802 4.378 1.68 6.028-.107 1.516.713 2.951 2.083 3.61 18.758 9.11 28.774 15.611 30.319 17.93.061 1.138-.539 4.069-3.272 7.611-2.477 3.203-7.478 7.853-17.189 11.776-.833.339-1.514.957-1.915 1.758-.014.042-.044.076-.058.118-.395.632-.973 1.3-1.618 1.909-.077-.095-.166-.187-.251-.267-.945-.94-2.309-1.292-3.578-.952l-.072.019c-.619.179-1.25.361-1.896.534-10.975 2.94-24.457 4.475-40.069 4.566-.322-.004-.643.044-.942.124-1.005.269-1.871.963-2.36 1.915-.604-1.249-1.862-2.066-3.269-2.1-16.38-.331-30.377-2.251-41.631-5.713-.686-.214-1.392-.217-2.05-.041-.611.164-1.191.486-1.655.957-.121.122-.239.256-.333.384-.593-.585-1.121-1.214-1.462-1.815-.344-.998-1.088-1.812-2.072-2.228-15.299-6.445-19.918-14.829-20.252-18.805-.012-.138-.017-.253-.012-.331 1.643-2.39 12.502-9.161 30.542-17.766 1.365-.648 2.195-2.05 2.113-3.555-.088-1.669.874-3.967 1.726-6.004l.22-.521c4.49-10.721 13.68-18.648 25.242-21.746m-.962-3.59c-12.651 3.389-22.818 12.219-27.703 23.906-1.073 2.558-2.373 5.459-2.229 8.153-7.654 3.654-31.448 15.34-32.551 20.126-.107.465-.145 1.039-.074 1.687.398 4.742 5.274 14.609 22.474 21.879.066.2.148.409.281.617 1.873 3.257 6.967 6.805 8.176 6.481.203-.055.3-.222.244-.527-.274-1.453-.349-2.306-.76-3.696 10.472 3.223 24.363 5.517 42.649 5.877.704 1.812 2.341 4.093 3.789 3.705l.048-.013c.88-.261 1.564-1.586 2.038-2.304.276-.407.566-.857.799-1.329 17.343-.094 30.717-1.933 41.01-4.691.67-.179 1.325-.368 1.969-.553-.347 1.196-.429 2.039-.689 3.366-.103.528.251.651.862.487 1.807-.484 5.958-3.52 7.608-6.361.035-.061.058-.118.093-.179 19.249-7.775 23.136-19.027 22.764-23.238-.018-.213-.042-.399-.091-.578-1.056-4.758-24.466-16.483-32.312-20.294.195-2.721-1.111-5.68-2.176-8.268-8.363-20.439-32.508-29.452-54.184-24.748-.676.156-1.365.315-2.035.495z" fill="#424242" opacity=".2"/><text transform="translate(134.667 417.667)"><tspan font-family="HelveticaNeue-Bold" font-size="14" x="-33.334" y="4.5">!433aa840</tspan></text><path d="m375.069 454.846c-1.271-5.757-35.108-21.666-35.108-21.666l-84.022-.342s-33.833 15.642-35.162 21.386 8.663 32.331 77.704 32.604c69.042.274 77.86-26.224 76.588-31.982z" fill="url(#I)"/><path d="m340.156 429.136c-8.335-21.269-32.414-30.657-54.058-25.749-13.556 3.077-24.561 12.589-29.691 25.411-1.662 4.166-3.953 9.212-.276 12.955 4.39 4.47 12.443 6.124 18.368 7.262 15.571 2.999 32.01 3.064 47.637.195 5.934-1.099 13.79-2.687 18.211-7.115 3.706-3.719 1.444-8.785-.191-12.959z" fill="#505c70"/><path d="m221.024 453.617c4.613 10.941 18.356 15.664 28.776 18.671 15.681 4.525 31.902 5.856 48.142 6.209 20.456-.442 41.973-1.831 60.943-10.356 6.447-2.897 13.234-6.85 16.052-13.648l.132.353c.146.982.094.387.042 1.793-2.687 8.293-12.177 12.761-19.693 15.697-14.171 5.535-29.288 7.388-44.357 8.431-8.985.32-4.589.233-13.186.28-8.493-.114-4.201.007-12.875-.371-16.685-1.221-33.984-3.492-49.224-10.89-6.466-3.139-13.063-7.41-15.082-14.671-.015-.506-.025-.208.083-.891.224-.582.097-.405.247-.607z" fill="url(#J)"/><path d="m239.658 453.131c-.508 1.338-2.698 1.744-4.898.912s-3.565-2.598-3.057-3.935c.507-1.338 2.698-1.744 4.898-.912 2.203.844 3.564 2.598 3.057 3.935z" fill="url(#K)"/><path d="m254.623 461.15c-.507 1.337-2.698 1.744-4.898.912-2.199-.832-3.564-2.598-3.057-3.936.507-1.337 2.698-1.743 4.898-.912 2.2.832 3.565 2.598 3.057 3.936z" fill="url(#L)"/><path d="m274.607 466.441c-.27 1.404-2.357 2.196-4.659 1.753-2.314-.439-3.968-1.934-3.698-3.337.27-1.404 2.357-2.196 4.66-1.753 2.302.443 3.964 1.922 3.697 3.337z" fill="url(#M)"/><path d="m299.109 468.533c-.003 1.435-1.918 2.581-4.27 2.578-2.353-.003-4.255-1.172-4.252-2.607s1.918-2.582 4.27-2.579c2.353.003 4.258 1.185 4.252 2.608z" fill="url(#N)"/><path d="m323.351 467.632c.085 1.424-1.759 2.693-4.099 2.829-2.353.14-4.314-.911-4.399-2.335-.084-1.425 1.759-2.694 4.1-2.83 2.353-.14 4.326.908 4.398 2.336z" fill="url(#O)"/><path d="m343.878 463.76c.235 1.409-1.469 2.861-3.781 3.248-2.316.375-4.388-.465-4.624-1.875s1.468-2.861 3.781-3.248c2.312-.387 4.385.453 4.624 1.875z" fill="url(#P)"/><path d="m364.125 454.264c.708 1.245-.37 3.2-2.409 4.367-2.039 1.166-4.277 1.107-4.985-.137-.708-1.245.37-3.2 2.409-4.367 2.051-1.169 4.277-1.107 4.985.137z" fill="url(#Q)"/><path d="m340.332 426.078c-8.405-20.565-32.724-29.643-54.556-24.905-13.688 2.97-24.776 12.169-29.968 24.568-1.685 4.031-3.983 8.91-.274 12.529 4.426 4.318 12.569 5.921 18.536 7.023 15.712 2.896 32.309 2.971 48.076.193 5.983-1.06 13.919-2.592 18.378-6.875 3.742-3.587 1.459-8.492-.192-12.533z" fill="url(#R)"/><path d="m303.26 406.631c1.046-.048 2.273-.002 3.611.169 1.338.172 2.796.453 4.328.869 1.533.416 3.138.955 4.757 1.646 1.615.678 3.258 1.504 4.861 2.47 1.602.966 3.177 2.068 4.66 3.312 1.483 1.243 2.887 2.624 4.159 4.144 1.273 1.519 2.424 3.162 3.404 4.941.978 1.766 1.797 3.666 2.424 5.668.627 2.003 1.053 4.124 1.287 6.348 0 0-.153-.476-.549-1.326s-1.019-2.065-2.009-3.544c-.991-1.479-2.334-3.212-4.178-5.082-1.842-1.858-4.194-3.838-7.187-5.749-1.325-.847-2.929-1.722-4.712-2.588-1.794-.863-3.764-1.705-5.8-2.503-2.032-.786-4.118-1.532-6.122-2.21-2.003-.677-3.923-1.287-5.583-1.837-1.671-.547-3.084-1.047-4.088-1.515-1.003-.467-1.583-.893-1.59-1.305.005-.415.598-.806 1.931-1.137 1.332-.332 3.425-.621 6.396-.771z" fill="#dcfffa" opacity=".48"/><path d="m244.992 476.509 3.699 1.463c.653.316 1.911.767 2.159 1.45.881 2.374.884 3.252 1.24 5.159.389 2.08-6.272-2.143-8.48-5.996-.899-1.568-.245-2.842 1.382-2.076z" fill="#a3b0d6"/><path d="m350.765 476.927-3.711 1.434c-.655.305-1.916.759-2.174 1.435-.893 2.358-.914 3.243-1.285 5.138-.41 2.087 6.298-2.101 8.528-5.929.919-1.538.273-2.838-1.358-2.078z" fill="#a3b0d6"/><path d="m301.103 484.511c-.611-.689-1.947-.952-2.672-1.054-1.427-.212-2.995.156-4.129 1.08-.233.192-.38.464-.378.76.021 1.623 2.286 5.783 4.223 5.2.885-.263 1.574-1.598 2.052-2.32.544-.818 1.193-1.819 1.215-2.845.004-.324-.11-.604-.311-.821z" fill="#a3b0d6"/><path d="m284.955 405.437c.615-.164 1.257-.323 1.881-.452 10.147-2.202 20.822-1.225 30.037 2.74 9.624 4.14 16.627 11.036 20.261 19.921l.227.559c.849 2.059 1.815 4.41 1.692 6.071-.108 1.528.719 2.973 2.098 3.637 18.894 9.176 28.982 15.724 30.538 18.059.061 1.146-.543 4.099-3.295 7.666-2.495 3.226-7.532 7.91-17.314 11.861-.838.341-1.524.964-1.928 1.77-.015.043-.045.077-.059.119-.398.637-.98 1.309-1.63 1.923-.077-.096-.166-.188-.252-.268-.952-.947-2.326-1.302-3.604-.96l-.072.019c-.624.18-1.259.364-1.91.538-11.055 2.962-24.633 4.507-40.358 4.599-.324-.003-.647.045-.949.125-1.012.272-1.885.97-2.377 1.929-.609-1.258-1.876-2.081-3.293-2.115-16.498-.334-30.595-2.267-41.931-5.755-.69-.215-1.402-.218-2.065-.041-.615.165-1.2.49-1.667.964-.122.123-.241.258-.335.387-.598-.589-1.129-1.222-1.472-1.828-.347-1.005-1.096-1.825-2.087-2.244-15.409-6.492-20.062-14.936-20.399-18.941-.011-.139-.016-.254-.012-.333 1.655-2.407 12.593-9.227 30.762-17.894 1.376-.653 2.212-2.065 2.129-3.581-.089-1.681.88-3.995 1.739-6.047l.221-.524c4.523-10.799 13.779-18.783 25.424-21.904m-.969-3.616c-12.742 3.414-22.982 12.308-27.903 24.079-1.08 2.576-2.39 5.498-2.245 8.211-7.709 3.681-31.674 15.452-32.786 20.272-.107.468-.146 1.047-.074 1.699.401 4.777 5.312 14.714 22.636 22.036.067.202.149.413.283.622 1.887 3.28 7.017 6.854 8.235 6.528.205-.055.302-.223.245-.531-.276-1.464-.351-2.322-.765-3.723 10.547 3.247 24.539 5.557 42.957 5.919.709 1.826 2.358 4.123 3.817 3.732l.048-.013c.885-.263 1.574-1.597 2.053-2.32.277-.41.569-.863.803-1.339 17.469-.094 30.94-1.947 41.307-4.724.675-.181 1.335-.371 1.982-.557-.349 1.204-.431 2.053-.693 3.39-.103.531.253.655.868.491 1.82-.488 6.001-3.546 7.663-6.408.035-.061.058-.119.094-.18 19.388-7.831 23.302-19.164 22.928-23.405-.019-.215-.043-.402-.091-.583-1.065-4.792-24.643-16.602-32.545-20.44.196-2.74-1.12-5.721-2.193-8.328-8.423-20.586-32.742-29.664-54.574-24.926-.682.157-1.375.317-2.05.498z" fill="#424242" opacity=".2"/><text transform="translate(298.065 430.333)"><tspan font-family="HelveticaNeue-Bold" font-size="14" x="-33.845" y="4.5">!da5a07a4</tspan></text><path d="m469.116 392.861c-.853-3.861-23.543-14.529-23.543-14.529l-56.343-.229s-22.687 10.489-23.579 14.34c-.891 3.852 5.809 21.681 52.107 21.864 46.297.183 52.21-17.585 51.358-21.446z" fill="url(#S)"/><path d="m445.704 375.62c-5.589-14.262-21.736-20.558-36.25-17.267-9.09 2.064-16.47 8.442-19.91 17.04-1.114 2.794-2.651 6.177-.185 8.688 2.943 2.997 8.344 4.106 12.317 4.87 10.442 2.01 21.465 2.054 31.944.13 3.979-.737 9.247-1.802 12.212-4.771 2.485-2.494.968-5.891-.128-8.69z" fill="#505c70"/><path d="m365.817 392.037c3.093 7.336 12.309 10.503 19.296 12.52 10.516 3.034 21.393 3.927 32.283 4.163 13.717-.296 28.146-1.227 40.867-6.945 4.323-1.942 8.875-4.592 10.764-9.151l.089.237c.097.658.062.259.028 1.202-1.802 5.561-8.166 8.557-13.206 10.526-9.503 3.711-19.64 4.954-29.745 5.654-6.024.214-3.077.156-8.841.187-5.696-.076-2.818.005-8.634-.248-11.189-.819-22.789-2.342-33.009-7.303-4.336-2.105-8.76-4.969-10.113-9.838-.01-.339-.017-.139.055-.598.15-.39.065-.271.166-.406z" fill="url(#T)"/><path d="m378.312 391.711c-.34.897-1.809 1.169-3.284.611s-2.39-1.742-2.05-2.639 1.809-1.169 3.284-.611c1.477.565 2.39 1.742 2.05 2.639z" fill="url(#U)"/><path d="m388.348 397.088c-.34.897-1.81 1.169-3.285.611s-2.39-1.742-2.05-2.639 1.81-1.169 3.285-.611 2.39 1.742 2.05 2.639z" fill="url(#V)"/><path d="m401.749 400.636c-.181.941-1.581 1.472-3.125 1.175-1.552-.294-2.661-1.297-2.48-2.238s1.581-1.472 3.125-1.175 2.659 1.289 2.48 2.238z" fill="url(#W)"/><path d="m418.179 402.039c-.002.962-1.287 1.73-2.864 1.729-1.577-.002-2.853-.787-2.851-1.749s1.286-1.731 2.864-1.729c1.577.002 2.855.794 2.851 1.749z" fill="url(#X)"/><path d="m434.435 401.434c.057.955-1.179 1.806-2.749 1.898-1.578.093-2.893-.611-2.95-1.566-.056-.956 1.18-1.807 2.75-1.898 1.577-.094 2.901.609 2.949 1.566z" fill="url(#Y)"/><path d="m448.2 398.838c.158.945-.985 1.918-2.536 2.178-1.553.251-2.943-.312-3.101-1.257-.158-.946.985-1.919 2.536-2.179 1.55-.259 2.94.304 3.101 1.258z" fill="url(#Z)"/><path d="m461.777 392.471c.475.834-.248 2.145-1.616 2.928-1.367.782-2.868.742-3.343-.092-.474-.835.249-2.146 1.616-2.928 1.375-.785 2.868-.743 3.343.092z" fill="url(#aa)"/><path d="m445.822 373.57c-5.636-13.791-21.944-19.879-36.584-16.701-9.179 1.992-16.614 8.16-20.096 16.475-1.13 2.702-2.671 5.974-.184 8.401 2.968 2.895 8.429 3.971 12.43 4.709 10.536 1.943 21.666 1.993 32.239.13 4.012-.711 9.333-1.738 12.324-4.61 2.509-2.405.978-5.695-.129-8.404z" fill="url(#ab)"/><path d="m420.962 360.529c.702-.032 1.524-.001 2.422.113.897.115 1.874.304 2.902.583s2.104.64 3.19 1.103c1.083.455 2.185 1.009 3.259 1.657 1.075.648 2.131 1.387 3.125 2.221.995.834 1.936 1.76 2.79 2.779.853 1.019 1.625 2.12 2.282 3.313.656 1.184 1.205 2.458 1.625 3.801.421 1.343.707 2.765.864 4.257 0 0-.103-.319-.369-.889-.265-.57-.683-1.386-1.347-2.377-.664-.992-1.565-2.154-2.802-3.408-1.235-1.246-2.812-2.574-4.819-3.855-.888-.568-1.964-1.155-3.159-1.736-1.204-.578-2.525-1.143-3.89-1.678-1.363-.527-2.762-1.027-4.105-1.482-1.343-.454-2.631-.863-3.744-1.232-1.12-.367-2.068-.702-2.741-1.015-.673-.314-1.062-.6-1.066-.876.003-.278.401-.54 1.294-.762.894-.223 2.297-.417 4.289-.517z" fill="#dcfffa" opacity=".48"/><path d="m381.889 407.387 2.481.982c.438.212 1.281.514 1.447.972.592 1.592.593 2.18.832 3.459.261 1.395-4.206-1.437-5.687-4.021-.602-1.051-.164-1.905.927-1.392z" fill="#a3b0d6"/><path d="m452.818 407.668-2.489.961c-.439.205-1.284.509-1.457.963-.599 1.581-.613 2.174-.862 3.445-.275 1.399 4.223-1.409 5.719-3.976.616-1.031.183-1.903-.911-1.393z" fill="#a3b0d6"/><path d="m419.516 412.753c-.41-.462-1.306-.638-1.792-.707-.957-.142-2.008.105-2.769.725-.156.128-.255.311-.253.51.014 1.087 1.533 3.878 2.831 3.486.594-.176 1.056-1.071 1.377-1.556.364-.548.8-1.219.814-1.907.003-.218-.073-.405-.208-.551z" fill="#a3b0d6"/><path d="m408.687 359.728c.413-.11.843-.217 1.262-.303 6.804-1.477 13.963-.822 20.142 1.837 6.453 2.776 11.15 7.401 13.586 13.359l.153.375c.569 1.381 1.217 2.957 1.134 4.071-.072 1.024.482 1.994 1.407 2.439 12.67 6.153 19.434 10.544 20.478 12.109.041.769-.364 2.749-2.21 5.141-1.673 2.164-5.051 5.304-11.61 7.954-.562.229-1.022.647-1.293 1.187-.01.029-.03.051-.039.08-.267.427-.657.878-1.093 1.289-.052-.064-.112-.126-.17-.18-.638-.635-1.559-.873-2.416-.643l-.048.013c-.419.12-.845.243-1.281.36-7.413 1.986-16.519 3.023-27.063 3.084-.218-.002-.434.03-.636.084-.679.182-1.264.651-1.595 1.294-.408-.844-1.257-1.396-2.208-1.419-11.063-.224-20.516-1.52-28.117-3.859-.464-.144-.941-.146-1.385-.027-.412.11-.805.328-1.118.646-.082.082-.162.173-.225.259-.401-.395-.757-.819-.987-1.225-.233-.674-.735-1.224-1.4-1.505-10.333-4.353-13.452-10.015-13.678-12.701-.008-.094-.011-.171-.008-.224 1.11-1.614 8.444-6.187 20.628-11.999.922-.438 1.483-1.385 1.427-2.401-.059-1.128.591-2.679 1.166-4.055l.149-.352c3.032-7.241 9.239-12.595 17.048-14.688m-.65-2.425c-8.544 2.29-15.411 8.254-18.711 16.147-.724 1.728-1.602 3.687-1.505 5.506-5.169 2.469-21.24 10.362-21.985 13.594-.072.314-.098.702-.05 1.139.269 3.203 3.562 9.867 15.179 14.777.045.136.1.277.19.417 1.265 2.2 4.706 4.596 5.522 4.378.138-.037.203-.15.165-.356-.185-.982-.236-1.558-.513-2.497 7.072 2.177 16.455 3.727 28.805 3.969.476 1.225 1.581 2.765 2.56 2.503l.032-.009c.594-.176 1.056-1.071 1.376-1.555.187-.276.383-.579.54-.899 11.714-.063 20.747-1.305 27.699-3.168.452-.121.895-.248 1.329-.373-.234.808-.289 1.377-.465 2.273-.069.357.17.44.582.329 1.22-.327 4.024-2.377 5.139-4.296.023-.041.039-.08.063-.121 13.001-5.251 15.626-12.851 15.375-15.695-.013-.144-.029-.269-.062-.391-.713-3.213-16.524-11.132-21.823-13.707.131-1.837-.751-3.836-1.471-5.584-5.648-13.804-21.956-19.892-36.596-16.714-.457.105-.922.212-1.375.333z" fill="#424242" opacity=".2"/><text transform="translate(417.479 373.833)"><tspan font-family="HelveticaNeue-Bold" font-size="10" x="-23.995" y="3">!27cb5814</tspan></text><path d="m406.132 285.285c-1.698-7.691-46.898-28.941-46.898-28.941l-112.234-.457s-45.194 20.894-46.97 28.567c-1.775 7.673 11.572 43.187 103.797 43.552 92.225.366 104.003-35.03 102.305-42.721z" fill="url(#ac)"/><path d="m359.495 250.942c-11.133-28.411-43.298-40.951-72.21-34.395-18.108 4.11-32.807 16.816-39.661 33.943-2.219 5.565-5.28 12.305-.368 17.306 5.863 5.971 16.621 8.18 24.536 9.701 20.799 4.005 42.759 4.092 63.633.26 7.925-1.468 18.42-3.59 24.325-9.504 4.951-4.968 1.93-11.735-.255-17.311z" fill="#505c70"/><path d="m200.361 283.644c6.162 14.615 24.52 20.923 38.438 24.94 20.947 6.045 42.614 7.823 64.307 8.294 27.325-.591 56.067-2.446 81.408-13.834 8.611-3.87 17.677-9.149 21.441-18.231l.177.472c.194 1.312.125.516.056 2.395-3.589 11.078-16.267 17.047-26.306 20.968-18.93 7.393-39.123 9.869-59.252 11.263-12.001.427-6.13.31-17.613.373-11.345-.152-5.612.009-17.199-.495-22.287-1.631-45.395-4.665-65.753-14.547-8.637-4.193-17.449-9.898-20.145-19.597-.02-.676-.034-.278.11-1.191.299-.778.13-.54.331-.81z" fill="url(#ad)"/><path d="m225.251 282.995c-.678 1.786-3.604 2.329-6.542 1.218-2.939-1.112-4.762-3.471-4.084-5.257.677-1.787 3.604-2.33 6.542-1.218 2.943 1.127 4.762 3.47 4.084 5.257z" fill="url(#ae)"/><path d="m245.242 293.706c-.678 1.786-3.604 2.329-6.543 1.218-2.938-1.111-4.761-3.47-4.083-5.257.677-1.787 3.604-2.329 6.542-1.218s4.761 3.47 4.084 5.257z" fill="url(#af)"/><path d="m271.936 300.774c-.36 1.874-3.149 2.932-6.224 2.341-3.091-.587-5.3-2.584-4.94-4.458.361-1.874 3.15-2.932 6.225-2.341s5.296 2.568 4.939 4.458z" fill="url(#ag)"/><path d="m304.665 303.568c-.004 1.917-2.562 3.448-5.704 3.444s-5.684-1.566-5.68-3.483c.005-1.917 2.563-3.448 5.705-3.444 3.142.003 5.688 1.582 5.679 3.483z" fill="url(#ah)"/><path d="m337.048 302.364c.113 1.903-2.35 3.598-5.476 3.78-3.143.186-5.763-1.217-5.876-3.12s2.35-3.598 5.476-3.78c3.143-.186 5.779 1.213 5.876 3.12z" fill="url(#ai)"/><path d="m364.467 297.192c.315 1.883-1.962 3.822-5.051 4.339-3.093.501-5.861-.621-6.176-2.505-.315-1.883 1.961-3.822 5.05-4.339s5.858.605 6.177 2.505z" fill="url(#aj)"/><path d="m391.513 284.508c.946 1.663-.495 4.275-3.218 5.833-2.724 1.558-5.713 1.479-6.659-.183s.494-4.275 3.217-5.833c2.74-1.562 5.714-1.479 6.66.183z" fill="url(#ak)"/><path d="m359.73 246.857c-11.227-27.47-43.712-39.597-72.875-33.267-18.284 3.967-33.096 16.255-40.031 32.817-2.251 5.384-5.32 11.902-.366 16.736 5.912 5.768 16.79 7.91 24.761 9.381 20.987 3.869 43.157 3.969 64.219.258 7.991-1.416 18.592-3.462 24.549-9.184 4.999-4.791 1.949-11.343-.257-16.741z" fill="url(#al)"/><path d="m310.209 220.88c1.399-.064 3.037-.002 4.824.226 1.788.229 3.735.605 5.782 1.161 2.048.556 4.191 1.276 6.354 2.198 2.158.906 4.352 2.009 6.493 3.299 2.141 1.291 4.244 2.764 6.225 4.425s3.856 3.506 5.556 5.535c1.7 2.03 3.238 4.224 4.547 6.6 1.306 2.36 2.4 4.897 3.237 7.572.838 2.675 1.407 5.508 1.72 8.479 0 0-.205-.635-.733-1.771-.529-1.135-1.361-2.759-2.684-4.734-1.323-1.976-3.117-4.291-5.582-6.789-2.459-2.482-5.602-5.126-9.599-7.679-1.77-1.131-3.913-2.3-6.294-3.457-2.397-1.152-5.028-2.277-7.747-3.343-2.715-1.05-5.502-2.047-8.178-2.952s-5.242-1.719-7.458-2.455c-2.232-.73-4.12-1.398-5.461-2.023-1.34-.624-2.114-1.193-2.124-1.743.007-.554.799-1.077 2.579-1.519 1.78-.443 4.576-.83 8.543-1.03z" fill="#dcfffa" opacity=".48"/><path d="m232.376 314.222 4.942 1.955c.872.422 2.553 1.025 2.883 1.937 1.178 3.171 1.181 4.343 1.657 6.891.52 2.778-8.378-2.863-11.328-8.01-1.2-2.095-.327-3.796 1.846-2.773z" fill="#a3b0d6"/><path d="m373.667 314.781-4.958 1.915c-.874.407-2.558 1.014-2.903 1.917-1.193 3.15-1.221 4.332-1.717 6.863-.547 2.788 8.413-2.806 11.392-7.919 1.227-2.055.365-3.791-1.814-2.776z" fill="#a3b0d6"/><path d="m307.329 324.911c-.816-.921-2.601-1.271-3.57-1.408-1.905-.284-4 .209-5.515 1.443-.312.256-.508.619-.505 1.016.028 2.167 3.054 7.724 5.641 6.945 1.183-.351 2.103-2.134 2.742-3.099.725-1.092 1.593-2.429 1.622-3.8.005-.433-.147-.807-.415-1.097z" fill="#a3b0d6"/><path d="m285.758 219.286c.821-.22 1.679-.433 2.513-.605 13.554-2.941 27.814-1.636 40.124 3.66 12.855 5.53 22.21 14.742 27.064 26.61l.303.747c1.134 2.751 2.425 5.892 2.26 8.11-.144 2.041.96 3.971 2.803 4.858 25.237 12.257 38.713 21.004 40.791 24.123.082 1.531-.725 5.475-4.401 10.24-3.333 4.31-10.061 10.566-23.127 15.844-1.121.456-2.037 1.288-2.577 2.365-.019.057-.059.102-.078.159-.531.85-1.309 1.749-2.177 2.568-.103-.128-.222-.251-.337-.358-1.271-1.265-3.107-1.739-4.814-1.282l-.096.026c-.833.24-1.682.485-2.552.718-14.766 3.957-32.904 6.021-53.91 6.144-.432-.005-.864.059-1.266.166-1.353.363-2.518 1.296-3.176 2.577-.813-1.68-2.505-2.78-4.399-2.825-22.038-.446-40.869-3.029-56.01-7.687-.923-.288-1.873-.292-2.759-.055-.821.22-1.602.654-2.227 1.287-.163.164-.321.345-.448.517-.798-.787-1.507-1.633-1.966-2.442-.463-1.343-1.464-2.438-2.788-2.998-20.583-8.671-26.798-19.95-27.248-25.3-.015-.186-.022-.34-.015-.445 2.21-3.216 16.821-12.325 41.091-23.903 1.837-.872 2.954-2.759 2.843-4.783-.119-2.246 1.176-5.337 2.323-8.078l.295-.7c6.042-14.425 18.406-25.09 33.961-29.258m-1.294-4.831c-17.021 4.561-30.699 16.441-37.273 32.165-1.442 3.441-3.192 7.344-2.998 10.968-10.297 4.917-42.31 20.64-43.795 27.078-.143.625-.195 1.399-.1 2.27.536 6.381 7.096 19.655 30.238 29.436.089.269.199.551.378.831 2.52 4.381 9.373 9.155 11 8.719.274-.073.403-.298.328-.709-.369-1.955-.469-3.102-1.022-4.973 14.089 4.337 32.778 7.423 57.381 7.907.947 2.439 3.149 5.507 5.098 4.985l.064-.017c1.183-.352 2.104-2.134 2.742-3.099.371-.549.761-1.154 1.074-1.79 23.335-.125 41.329-2.6 55.177-6.31.901-.242 1.783-.495 2.648-.744-.466 1.609-.577 2.743-.927 4.528-.137.71.339.876 1.16.656 2.431-.652 8.016-4.737 10.236-8.559.047-.082.078-.159.126-.241 25.898-10.46 31.127-25.599 30.627-31.264-.025-.287-.058-.537-.122-.778-1.422-6.402-32.918-22.177-43.473-27.305.262-3.66-1.496-7.641-2.929-11.123-11.252-27.499-43.737-39.626-72.9-33.296-.91.21-1.836.423-2.738.665z" fill="#424242" opacity=".2"/><text transform="translate(303.271 256)"><tspan font-family="HelveticaNeue-Bold" font-size="18" x="-43.524" y="3">!43b67b44</tspan></text></svg>