<?xml version="1.0" encoding="UTF-8"?>
<!DOCTYPE svg PUBLIC "-//W3C//DTD SVG 1.1//EN" "http://www.w3.org/Graphics/SVG/1.1/DTD/svg11.dtd">
<svg version="1.1" xmlns="http://www.w3.org/2000/svg" xmlns:xlink="http://www.w3.org/1999/xlink" x="0" y="0" width="512" height="512" viewBox="0, 0, 512, 512">
  <defs>
    <linearGradient id="Gradient_1" gradientUnits="userSpaceOnUse" x1="115.951" y1="218.112" x2="83.842" y2="287.685" gradientTransform="matrix(0.829, -0.289, 0.305, 0.877, -2.194, 7.402)">
      <stop offset="0" stop-color="#3BDA83"/>
      <stop offset="0" stop-color="#3BDA83" stop-opacity="0.6"/>
      <stop offset="0.109" stop-color="#3BDA83" stop-opacity="0.85"/>
      <stop offset="0.522" stop-color="#4DF8E1" stop-opacity="0.281"/>
      <stop offset="0.725" stop-color="#78FFEC" stop-opacity="0"/>
      <stop offset="1" stop-color="#78FFEC" stop-opacity="0"/>
    </linearGradient>
    <linearGradient id="Gradient_2" gradientUnits="userSpaceOnUse" x1="69.22" y1="173.536" x2="224.772" y2="173.536" gradientTransform="matrix(1, 0.004, -0.004, 1, 12.321, -18.439)">
      <stop offset="0" stop-color="#8690BB"/>
      <stop offset="0.265" stop-color="#6E76A6"/>
      <stop offset="0.665" stop-color="#B0BEE1"/>
      <stop offset="0.884" stop-color="#6E76A6"/>
      <stop offset="1" stop-color="#8A90B3"/>
    </linearGradient>
    <radialGradient id="Gradient_3" gradientUnits="userSpaceOnUse" cx="120.008" cy="181.154" r="49.96" gradientTransform="matrix(1.045, 0.004, -0.004, 1, 33.914, -18.352)">
      <stop offset="0.228" stop-color="#00ECCC"/>
      <stop offset="0" stop-color="#3BDA83"/>
    </radialGradient>
    <radialGradient id="Gradient_4" gradientUnits="userSpaceOnUse" cx="-19.362" cy="-25.969" r="4.577" gradientTransform="matrix(0.9, 0.436, -0.326, 0.673, 104.568, 172.99)">
      <stop offset="0.065" stop-color="#00ECCC"/>
      <stop offset="0.252" stop-color="#00E7C7"/>
      <stop offset="0.481" stop-color="#00D8BB"/>
      <stop offset="0.732" stop-color="#00BFA5"/>
      <stop offset="0.997" stop-color="#009C87"/>
      <stop offset="1" stop-color="#009C87"/>
    </radialGradient>
    <radialGradient id="Gradient_5" gradientUnits="userSpaceOnUse" cx="-2.385" cy="-24.027" r="4.577" gradientTransform="matrix(0.9, 0.436, -0.326, 0.673, 104.986, 172.361)">
      <stop offset="0.065" stop-color="#00ECCC"/>
      <stop offset="0.252" stop-color="#00E7C7"/>
      <stop offset="0.481" stop-color="#00D8BB"/>
      <stop offset="0.732" stop-color="#00BFA5"/>
      <stop offset="0.997" stop-color="#009C87"/>
      <stop offset="1" stop-color="#009C87"/>
    </radialGradient>
    <radialGradient id="Gradient_6" gradientUnits="userSpaceOnUse" cx="83.499" cy="79.265" r="4.577" gradientTransform="matrix(0.962, 0.271, -0.203, 0.72, 66.275, 81.564)">
      <stop offset="0.065" stop-color="#00ECCC"/>
      <stop offset="0.252" stop-color="#00E7C7"/>
      <stop offset="0.481" stop-color="#00D8BB"/>
      <stop offset="0.732" stop-color="#00BFA5"/>
      <stop offset="0.997" stop-color="#009C87"/>
      <stop offset="1" stop-color="#009C87"/>
    </radialGradient>
    <radialGradient id="Gradient_7" gradientUnits="userSpaceOnUse" cx="156.172" cy="193.575" r="4.577" gradientTransform="matrix(0.996, 0.092, -0.069, 0.744, 12.889, 5.779)">
      <stop offset="0.065" stop-color="#00ECCC"/>
      <stop offset="0.252" stop-color="#00E7C7"/>
      <stop offset="0.481" stop-color="#00D8BB"/>
      <stop offset="0.732" stop-color="#00BFA5"/>
      <stop offset="0.997" stop-color="#009C87"/>
      <stop offset="1" stop-color="#009C87"/>
    </radialGradient>
    <radialGradient id="Gradient_8" gradientUnits="userSpaceOnUse" cx="192.195" cy="234.545" r="4.577" gradientTransform="matrix(1, 0.03, -0.022, 0.747, -7.349, -17.401)">
      <stop offset="0.065" stop-color="#00ECCC"/>
      <stop offset="0.252" stop-color="#00E7C7"/>
      <stop offset="0.481" stop-color="#00D8BB"/>
      <stop offset="0.732" stop-color="#00BFA5"/>
      <stop offset="0.997" stop-color="#009C87"/>
      <stop offset="1" stop-color="#009C87"/>
    </radialGradient>
    <radialGradient id="Gradient_9" gradientUnits="userSpaceOnUse" cx="226.982" cy="303.837" r="4.577" gradientTransform="matrix(0.997, -0.074, 0.055, 0.746, -42.895, -49.61)">
      <stop offset="0.065" stop-color="#00ECCC"/>
      <stop offset="0.252" stop-color="#00E7C7"/>
      <stop offset="0.481" stop-color="#00D8BB"/>
      <stop offset="0.732" stop-color="#00BFA5"/>
      <stop offset="0.997" stop-color="#009C87"/>
      <stop offset="1" stop-color="#009C87"/>
    </radialGradient>
    <radialGradient id="Gradient_10" gradientUnits="userSpaceOnUse" cx="241.162" cy="548.458" r="4.577" gradientTransform="matrix(0.908, -0.418, 0.313, 0.679, -169.436, -119.323)">
      <stop offset="0.065" stop-color="#00ECCC"/>
      <stop offset="0.252" stop-color="#00E7C7"/>
      <stop offset="0.481" stop-color="#00D8BB"/>
      <stop offset="0.732" stop-color="#00BFA5"/>
      <stop offset="0.997" stop-color="#009C87"/>
      <stop offset="1" stop-color="#009C87"/>
    </radialGradient>
    <radialGradient id="Gradient_11" gradientUnits="userSpaceOnUse" cx="162.701" cy="142.413" r="45.095" gradientTransform="matrix(0.98, 0.199, -0.192, 0.945, 21.518, -27.658)">
      <stop offset="0.093" stop-color="#FFFFFF"/>
      <stop offset="0.256" stop-color="#43DD89"/>
      <stop offset="0.338" stop-color="#5BD692"/>
      <stop offset="0.472" stop-color="#5ECE91"/>
      <stop offset="0.63" stop-color="#4DD189"/>
      <stop offset="1" stop-color="#3BDA83"/>
    </radialGradient>
    <linearGradient id="Gradient_12" gradientUnits="userSpaceOnUse" x1="104.271" y1="452.744" x2="74.18" y2="517.944" gradientTransform="matrix(0.829, -0.289, 0.305, 0.877, -2.194, 7.402)">
      <stop offset="0" stop-color="#3BDA83"/>
      <stop offset="0" stop-color="#3BDA83" stop-opacity="0.6"/>
      <stop offset="0.109" stop-color="#3BDA83" stop-opacity="0.85"/>
      <stop offset="0.522" stop-color="#4DF8E1" stop-opacity="0.281"/>
      <stop offset="0.725" stop-color="#78FFEC" stop-opacity="0"/>
      <stop offset="1" stop-color="#78FFEC" stop-opacity="0"/>
    </linearGradient>
    <linearGradient id="Gradient_13" gradientUnits="userSpaceOnUse" x1="137.061" y1="383.106" x2="282.835" y2="383.106" gradientTransform="matrix(1, 0.004, -0.004, 1, 12.321, -18.439)">
      <stop offset="0" stop-color="#8690BB"/>
      <stop offset="0.265" stop-color="#6E76A6"/>
      <stop offset="0.665" stop-color="#B0BEE1"/>
      <stop offset="0.884" stop-color="#6E76A6"/>
      <stop offset="1" stop-color="#8A90B3"/>
    </linearGradient>
    <radialGradient id="Gradient_14" gradientUnits="userSpaceOnUse" cx="180.251" cy="390.246" r="46.819" gradientTransform="matrix(1.045, 0.004, -0.004, 1, 33.914, -18.352)">
      <stop offset="0.228" stop-color="#00ECCC"/>
      <stop offset="0" stop-color="#3BDA83"/>
    </radialGradient>
    <radialGradient id="Gradient_15" gradientUnits="userSpaceOnUse" cx="131.761" cy="188.802" r="4.289" gradientTransform="matrix(0.9, 0.436, -0.326, 0.673, 104.568, 172.99)">
      <stop offset="0.065" stop-color="#00ECCC"/>
      <stop offset="0.252" stop-color="#00E7C7"/>
      <stop offset="0.481" stop-color="#00D8BB"/>
      <stop offset="0.732" stop-color="#00BFA5"/>
      <stop offset="0.997" stop-color="#009C87"/>
      <stop offset="1" stop-color="#009C87"/>
    </radialGradient>
    <radialGradient id="Gradient_16" gradientUnits="userSpaceOnUse" cx="147.664" cy="190.685" r="4.289" gradientTransform="matrix(0.9, 0.436, -0.326, 0.673, 104.986, 172.361)">
      <stop offset="0.065" stop-color="#00ECCC"/>
      <stop offset="0.252" stop-color="#00E7C7"/>
      <stop offset="0.481" stop-color="#00D8BB"/>
      <stop offset="0.732" stop-color="#00BFA5"/>
      <stop offset="0.997" stop-color="#009C87"/>
      <stop offset="1" stop-color="#009C87"/>
    </radialGradient>
    <radialGradient id="Gradient_17" gradientUnits="userSpaceOnUse" cx="201.849" cy="325.736" r="4.289" gradientTransform="matrix(0.962, 0.271, -0.203, 0.72, 66.275, 81.564)">
      <stop offset="0.065" stop-color="#00ECCC"/>
      <stop offset="0.252" stop-color="#00E7C7"/>
      <stop offset="0.481" stop-color="#00D8BB"/>
      <stop offset="0.732" stop-color="#00BFA5"/>
      <stop offset="0.997" stop-color="#009C87"/>
      <stop offset="1" stop-color="#009C87"/>
    </radialGradient>
    <radialGradient id="Gradient_18" gradientUnits="userSpaceOnUse" cx="237.459" cy="464.678" r="4.289" gradientTransform="matrix(0.996, 0.092, -0.069, 0.744, 12.889, 5.779)">
      <stop offset="0.065" stop-color="#00ECCC"/>
      <stop offset="0.252" stop-color="#00E7C7"/>
      <stop offset="0.481" stop-color="#00D8BB"/>
      <stop offset="0.732" stop-color="#00BFA5"/>
      <stop offset="0.997" stop-color="#009C87"/>
      <stop offset="1" stop-color="#009C87"/>
    </radialGradient>
    <radialGradient id="Gradient_19" gradientUnits="userSpaceOnUse" cx="259.223" cy="511.995" r="4.289" gradientTransform="matrix(1, 0.03, -0.022, 0.747, -7.349, -17.401)">
      <stop offset="0.065" stop-color="#00ECCC"/>
      <stop offset="0.252" stop-color="#00E7C7"/>
      <stop offset="0.481" stop-color="#00D8BB"/>
      <stop offset="0.732" stop-color="#00BFA5"/>
      <stop offset="0.997" stop-color="#009C87"/>
      <stop offset="1" stop-color="#009C87"/>
    </radialGradient>
    <radialGradient id="Gradient_20" gradientUnits="userSpaceOnUse" cx="270.854" cy="589.202" r="4.289" gradientTransform="matrix(0.997, -0.074, 0.055, 0.746, -42.895, -49.61)">
      <stop offset="0.065" stop-color="#00ECCC"/>
      <stop offset="0.252" stop-color="#00E7C7"/>
      <stop offset="0.481" stop-color="#00D8BB"/>
      <stop offset="0.732" stop-color="#00BFA5"/>
      <stop offset="0.997" stop-color="#009C87"/>
      <stop offset="1" stop-color="#009C87"/>
    </radialGradient>
    <radialGradient id="Gradient_21" gradientUnits="userSpaceOnUse" cx="206.156" cy="836.187" r="4.289" gradientTransform="matrix(0.908, -0.418, 0.313, 0.679, -169.436, -119.323)">
      <stop offset="0.065" stop-color="#00ECCC"/>
      <stop offset="0.252" stop-color="#00E7C7"/>
      <stop offset="0.481" stop-color="#00D8BB"/>
      <stop offset="0.732" stop-color="#00BFA5"/>
      <stop offset="0.997" stop-color="#009C87"/>
      <stop offset="1" stop-color="#009C87"/>
    </radialGradient>
    <radialGradient id="Gradient_22" gradientUnits="userSpaceOnUse" cx="265.913" cy="343.699" r="42.26" gradientTransform="matrix(0.98, 0.199, -0.192, 0.945, 21.518, -27.658)">
      <stop offset="0.093" stop-color="#FFFFFF"/>
      <stop offset="0.256" stop-color="#43DD89"/>
      <stop offset="0.338" stop-color="#5BD692"/>
      <stop offset="0.472" stop-color="#5ECE91"/>
      <stop offset="0.63" stop-color="#4DD189"/>
      <stop offset="1" stop-color="#3BDA83"/>
    </radialGradient>
    <linearGradient id="Gradient_23" gradientUnits="userSpaceOnUse" x1="343.596" y1="321.715" x2="311.705" y2="390.816" gradientTransform="matrix(0.829, -0.289, 0.305, 0.877, -2.194, 7.402)">
      <stop offset="0" stop-color="#3BDA83"/>
      <stop offset="0" stop-color="#3BDA83" stop-opacity="0.6"/>
      <stop offset="0.109" stop-color="#3BDA83" stop-opacity="0.85"/>
      <stop offset="0.522" stop-color="#4DF8E1" stop-opacity="0.281"/>
      <stop offset="0.725" stop-color="#78FFEC" stop-opacity="0"/>
      <stop offset="1" stop-color="#78FFEC" stop-opacity="0"/>
    </linearGradient>
    <linearGradient id="Gradient_24" gradientUnits="userSpaceOnUse" x1="290.315" y1="197.863" x2="444.813" y2="197.863" gradientTransform="matrix(1, 0.004, -0.004, 1, 12.321, -18.439)">
      <stop offset="0" stop-color="#8690BB"/>
      <stop offset="0.265" stop-color="#6E76A6"/>
      <stop offset="0.665" stop-color="#B0BEE1"/>
      <stop offset="0.884" stop-color="#6E76A6"/>
      <stop offset="1" stop-color="#8A90B3"/>
    </linearGradient>
    <radialGradient id="Gradient_25" gradientUnits="userSpaceOnUse" cx="331.083" cy="205.433" r="49.621" gradientTransform="matrix(1.045, 0.004, -0.004, 1, 33.914, -18.352)">
      <stop offset="0.228" stop-color="#00ECCC"/>
      <stop offset="0" stop-color="#3BDA83"/>
    </radialGradient>
    <radialGradient id="Gradient_26" gradientUnits="userSpaceOnUse" cx="190.475" cy="-124.268" r="4.546" gradientTransform="matrix(0.9, 0.436, -0.326, 0.673, 104.568, 172.99)">
      <stop offset="0.065" stop-color="#00ECCC"/>
      <stop offset="0.252" stop-color="#00E7C7"/>
      <stop offset="0.481" stop-color="#00D8BB"/>
      <stop offset="0.732" stop-color="#00BFA5"/>
      <stop offset="0.997" stop-color="#009C87"/>
      <stop offset="1" stop-color="#009C87"/>
    </radialGradient>
    <radialGradient id="Gradient_27" gradientUnits="userSpaceOnUse" cx="207.336" cy="-122.333" r="4.546" gradientTransform="matrix(0.9, 0.436, -0.326, 0.673, 104.986, 172.361)">
      <stop offset="0.065" stop-color="#00ECCC"/>
      <stop offset="0.252" stop-color="#00E7C7"/>
      <stop offset="0.481" stop-color="#00D8BB"/>
      <stop offset="0.732" stop-color="#00BFA5"/>
      <stop offset="0.997" stop-color="#009C87"/>
      <stop offset="1" stop-color="#009C87"/>
    </radialGradient>
    <radialGradient id="Gradient_28" gradientUnits="userSpaceOnUse" cx="302.709" cy="31.556" r="4.546" gradientTransform="matrix(0.962, 0.271, -0.203, 0.72, 66.275, 81.564)">
      <stop offset="0.065" stop-color="#00ECCC"/>
      <stop offset="0.252" stop-color="#00E7C7"/>
      <stop offset="0.481" stop-color="#00D8BB"/>
      <stop offset="0.732" stop-color="#00BFA5"/>
      <stop offset="0.997" stop-color="#009C87"/>
      <stop offset="1" stop-color="#009C87"/>
    </radialGradient>
    <radialGradient id="Gradient_29" gradientUnits="userSpaceOnUse" cx="378.036" cy="199.978" r="4.546" gradientTransform="matrix(0.996, 0.092, -0.069, 0.744, 12.889, 5.779)">
      <stop offset="0.065" stop-color="#00ECCC"/>
      <stop offset="0.252" stop-color="#00E7C7"/>
      <stop offset="0.481" stop-color="#00D8BB"/>
      <stop offset="0.732" stop-color="#00BFA5"/>
      <stop offset="0.997" stop-color="#009C87"/>
      <stop offset="1" stop-color="#009C87"/>
    </radialGradient>
    <radialGradient id="Gradient_30" gradientUnits="userSpaceOnUse" cx="413.17" cy="259.371" r="4.546" gradientTransform="matrix(1, 0.03, -0.022, 0.747, -7.349, -17.401)">
      <stop offset="0.065" stop-color="#00ECCC"/>
      <stop offset="0.252" stop-color="#00E7C7"/>
      <stop offset="0.481" stop-color="#00D8BB"/>
      <stop offset="0.732" stop-color="#00BFA5"/>
      <stop offset="0.997" stop-color="#009C87"/>
      <stop offset="1" stop-color="#009C87"/>
    </radialGradient>
    <radialGradient id="Gradient_31" gradientUnits="userSpaceOnUse" cx="444.71" cy="359.14" r="4.546" gradientTransform="matrix(0.997, -0.074, 0.055, 0.746, -42.895, -49.61)">
      <stop offset="0.065" stop-color="#00ECCC"/>
      <stop offset="0.252" stop-color="#00E7C7"/>
      <stop offset="0.481" stop-color="#00D8BB"/>
      <stop offset="0.732" stop-color="#00BFA5"/>
      <stop offset="0.997" stop-color="#009C87"/>
      <stop offset="1" stop-color="#009C87"/>
    </radialGradient>
    <radialGradient id="Gradient_32" gradientUnits="userSpaceOnUse" cx="430.485" cy="702.244" r="4.546" gradientTransform="matrix(0.908, -0.418, 0.313, 0.679, -169.436, -119.323)">
      <stop offset="0.065" stop-color="#00ECCC"/>
      <stop offset="0.252" stop-color="#00E7C7"/>
      <stop offset="0.481" stop-color="#00D8BB"/>
      <stop offset="0.732" stop-color="#00BFA5"/>
      <stop offset="0.997" stop-color="#009C87"/>
      <stop offset="1" stop-color="#009C87"/>
    </radialGradient>
    <radialGradient id="Gradient_33" gradientUnits="userSpaceOnUse" cx="383.837" cy="122.56" r="44.789" gradientTransform="matrix(0.98, 0.199, -0.192, 0.945, 21.518, -27.658)">
      <stop offset="0.093" stop-color="#FFFFFF"/>
      <stop offset="0.256" stop-color="#43DD89"/>
      <stop offset="0.338" stop-color="#5BD692"/>
      <stop offset="0.472" stop-color="#5ECE91"/>
      <stop offset="0.63" stop-color="#4DD189"/>
      <stop offset="1" stop-color="#3BDA83"/>
    </radialGradient>
  </defs>
  <g id="Layer_1" display="none">
    <text transform="matrix(1, 0, 0, 1, 256, 256)">
      <tspan x="-144" y="98" font-family="AppleColorEmoji" font-size="288" fill="#000000">🛸</tspan>
    </text>
  </g>
  <g id="Layer_2">
    <g id="UFO">
      <path d="M118.659,162.448 L104.802,229.967 C104.802,229.967 207.026,235.514 206.177,234.193 C205.329,232.872 201.54,167.22 201.54,167.22 z" fill="url(#Gradient_1)"/>
      <path d="M236.314,150.578 C235.034,144.781 200.966,128.764 200.966,128.764 L116.371,128.42 C116.371,128.42 82.307,144.168 80.969,149.952 C79.63,155.735 89.691,182.503 159.203,182.778 C228.716,183.054 237.594,156.375 236.314,150.578 z" fill="url(#Gradient_2)"/>
      <path d="M201.162,124.692 C192.771,103.278 168.527,93.826 146.735,98.768 C133.087,101.865 122.007,111.442 116.842,124.352 C115.169,128.547 112.862,133.627 116.565,137.396 C120.984,141.896 129.092,143.561 135.057,144.707 C150.735,147.726 167.286,147.792 183.02,144.903 C188.993,143.797 196.903,142.198 201.355,137.74 C205.086,133.995 202.809,128.895 201.162,124.692 z" fill="#505C70"/>
      <path d="M81.218,149.341 C85.862,160.356 99.699,165.112 110.19,168.139 C125.978,172.695 142.309,174.035 158.66,174.39 L158.66,174.39 C179.256,173.945 200.92,172.547 220.02,163.963 C226.51,161.046 233.344,157.067 236.181,150.222 L236.314,150.578 C236.46,151.567 236.408,150.967 236.356,152.383 C233.651,160.733 224.096,165.232 216.529,168.187 C202.26,173.76 187.04,175.626 171.869,176.676 C162.823,176.998 167.248,176.91 158.593,176.958 C150.042,176.843 154.363,176.965 145.63,176.584 C128.831,175.355 111.414,173.068 96.07,165.62 C89.56,162.46 82.918,158.16 80.885,150.849 C80.871,150.339 80.86,150.64 80.969,149.951 C81.194,149.365 81.066,149.544 81.218,149.341 z" fill="url(#Gradient_3)"/>
      <path d="M99.978,148.851 C99.468,150.198 97.262,150.607 95.047,149.77 C92.832,148.932 91.458,147.154 91.969,145.807 C92.48,144.461 94.686,144.052 96.9,144.889 C99.118,145.739 100.489,147.505 99.978,148.851 z" fill="url(#Gradient_4)"/>
      <path d="M115.046,156.925 C114.535,158.272 112.329,158.68 110.115,157.843 C107.9,157.006 106.526,155.227 107.037,153.881 C107.547,152.534 109.753,152.125 111.968,152.963 C114.183,153.8 115.557,155.578 115.046,156.925 z" fill="url(#Gradient_5)"/>
      <path d="M135.167,162.253 C134.895,163.665 132.793,164.463 130.475,164.017 C128.145,163.575 126.48,162.069 126.752,160.657 C127.024,159.244 129.126,158.447 131.443,158.892 C133.761,159.338 135.435,160.828 135.167,162.253 z" fill="url(#Gradient_6)"/>
      <path d="M159.835,164.358 C159.832,165.803 157.904,166.957 155.536,166.954 C153.168,166.951 151.252,165.774 151.255,164.329 C151.258,162.884 153.186,161.73 155.555,161.733 C157.923,161.736 159.842,162.926 159.835,164.358 z" fill="url(#Gradient_7)"/>
      <path d="M184.243,163.451 C184.328,164.885 182.472,166.163 180.115,166.3 C177.747,166.44 175.772,165.382 175.687,163.948 C175.602,162.514 177.458,161.236 179.815,161.099 C182.184,160.959 184.17,162.013 184.243,163.451 z" fill="url(#Gradient_8)"/>
      <path d="M204.91,159.552 C205.147,160.972 203.431,162.433 201.103,162.823 C198.771,163.2 196.685,162.355 196.447,160.935 C196.21,159.516 197.926,158.054 200.254,157.665 C202.582,157.275 204.669,158.121 204.91,159.552 z" fill="url(#Gradient_9)"/>
      <path d="M225.295,149.992 C226.008,151.245 224.922,153.214 222.87,154.389 C220.817,155.563 218.563,155.504 217.85,154.251 C217.137,152.998 218.223,151.029 220.276,149.854 C222.341,148.677 224.582,148.74 225.295,149.992 z" fill="url(#Gradient_10)"/>
      <path d="M201.339,121.614 C192.877,100.908 168.392,91.768 146.411,96.539 C132.63,99.529 121.466,108.791 116.238,121.275 C114.542,125.332 112.229,130.245 115.963,133.888 C120.419,138.236 128.618,139.851 134.626,140.96 C150.445,143.876 167.155,143.951 183.03,141.154 C189.053,140.087 197.043,138.544 201.533,134.232 C205.301,130.621 203.002,125.682 201.339,121.614 z" fill="url(#Gradient_11)"/>
      <path d="M164.014,102.034 C165.068,101.986 166.303,102.032 167.65,102.204 C168.997,102.377 170.465,102.66 172.008,103.079 C173.551,103.498 175.167,104.041 176.797,104.736 C178.424,105.419 180.078,106.25 181.691,107.223 C183.305,108.195 184.89,109.306 186.383,110.558 C187.876,111.81 189.29,113.2 190.571,114.73 C191.852,116.26 193.011,117.914 193.998,119.704 C194.982,121.483 195.807,123.395 196.438,125.412 C197.069,127.428 197.499,129.563 197.734,131.803 C197.734,131.803 197.58,131.324 197.182,130.468 C196.783,129.612 196.156,128.388 195.159,126.899 C194.161,125.41 192.809,123.665 190.952,121.782 C189.098,119.912 186.729,117.919 183.716,115.994 C182.382,115.142 180.767,114.261 178.972,113.389 C177.166,112.52 175.182,111.673 173.133,110.869 C171.087,110.077 168.986,109.326 166.969,108.644 C164.952,107.962 163.019,107.348 161.348,106.794 C159.665,106.243 158.243,105.74 157.232,105.269 C156.221,104.798 155.638,104.369 155.631,103.955 C155.636,103.537 156.233,103.143 157.575,102.81 C158.916,102.476 161.024,102.185 164.014,102.034 z" fill="#DCFFFA" opacity="0.48"/>
      <g>
        <path d="M105.349,172.389 L109.074,173.862 C109.731,174.18 110.998,174.634 111.247,175.322 C112.134,177.712 112.137,178.596 112.496,180.516 C112.887,182.61 106.181,178.358 103.957,174.479 C103.053,172.9 103.711,171.618 105.349,172.389 z" fill="#A3B0D6"/>
        <path d="M211.844,172.81 L208.107,174.254 C207.448,174.56 206.179,175.017 205.919,175.698 C205.02,178.073 204.998,178.963 204.625,180.871 C204.212,182.972 210.966,178.756 213.211,174.902 C214.136,173.354 213.486,172.045 211.844,172.81 z" fill="#A3B0D6"/>
        <path d="M161.843,180.445 C161.228,179.751 159.883,179.487 159.152,179.384 C157.716,179.17 156.138,179.541 154.995,180.472 C154.761,180.665 154.613,180.938 154.615,181.237 C154.636,182.87 156.916,187.059 158.866,186.472 C159.758,186.207 160.452,184.863 160.933,184.136 C161.48,183.313 162.134,182.305 162.156,181.272 C162.16,180.946 162.045,180.664 161.843,180.445 z" fill="#A3B0D6"/>
      </g>
      <path d="M145.584,100.832 C146.203,100.666 146.85,100.506 147.479,100.377 C157.695,98.16 168.443,99.143 177.721,103.135 C187.41,107.303 194.461,114.247 198.12,123.192 L198.349,123.755 C199.204,125.828 200.176,128.196 200.052,129.868 C199.943,131.406 200.776,132.861 202.165,133.53 C221.187,142.768 231.344,149.36 232.91,151.711 C232.972,152.865 232.364,155.838 229.593,159.43 C227.081,162.678 222.009,167.393 212.161,171.372 C211.317,171.715 210.626,172.343 210.219,173.154 C210.205,173.197 210.175,173.231 210.16,173.274 C209.76,173.915 209.174,174.592 208.52,175.21 C208.442,175.113 208.352,175.021 208.265,174.94 C207.307,173.987 205.924,173.629 204.637,173.974 L204.564,173.993 C203.936,174.174 203.296,174.359 202.641,174.534 C191.511,177.517 177.84,179.072 162.008,179.165 C161.682,179.161 161.356,179.21 161.053,179.291 C160.033,179.564 159.155,180.268 158.659,181.233 C158.047,179.966 156.771,179.137 155.344,179.103 C138.733,178.767 124.54,176.821 113.127,173.309 C112.432,173.092 111.715,173.089 111.048,173.268 C110.429,173.434 109.84,173.761 109.369,174.238 C109.247,174.362 109.127,174.498 109.032,174.628 C108.43,174.035 107.895,173.397 107.55,172.787 C107.201,171.775 106.446,170.95 105.448,170.528 C89.934,163.992 85.25,155.491 84.911,151.458 C84.899,151.318 84.894,151.202 84.899,151.123 C86.565,148.699 97.577,141.833 115.871,133.107 C117.256,132.449 118.097,131.027 118.014,129.502 C117.924,127.808 118.9,125.479 119.764,123.413 L119.987,122.885 C124.541,112.012 133.86,103.974 145.584,100.832 M144.609,97.191 C131.78,100.629 121.47,109.583 116.515,121.435 C115.428,124.028 114.109,126.97 114.256,129.702 C106.494,133.408 82.365,145.259 81.246,150.111 C81.138,150.583 81.099,151.165 81.171,151.823 C81.575,156.632 86.519,166.637 103.962,174.009 C104.029,174.212 104.112,174.424 104.246,174.635 C106.146,177.938 111.312,181.536 112.538,181.207 C112.744,181.152 112.842,180.983 112.785,180.673 C112.507,179.199 112.431,178.335 112.015,176.925 C122.634,180.193 136.721,182.52 155.264,182.884 C155.978,184.722 157.638,187.035 159.107,186.642 L159.155,186.629 C160.047,186.364 160.741,185.02 161.222,184.293 C161.502,183.88 161.796,183.424 162.032,182.944 C179.62,182.849 193.182,180.984 203.62,178.188 C204.3,178.006 204.964,177.815 205.616,177.627 C205.265,178.84 205.181,179.695 204.918,181.04 C204.814,181.575 205.172,181.7 205.791,181.534 C207.624,181.043 211.833,177.964 213.507,175.083 C213.543,175.022 213.566,174.963 213.601,174.902 C233.122,167.018 237.063,155.607 236.686,151.337 C236.667,151.121 236.643,150.932 236.594,150.75 C235.522,145.925 211.783,134.035 203.827,130.17 C204.025,127.412 202.7,124.41 201.62,121.786 C193.139,101.059 168.654,91.919 146.673,96.69 C145.987,96.848 145.289,97.009 144.609,97.191 z" fill="#424242" opacity="0.2"/>
      <g id="Lora">
        <path d="M103.81,175.69 C103.81,172.974 101.608,170.772 98.892,170.772 C96.176,170.772 93.974,172.974 93.974,175.69 C93.974,178.407 96.176,180.608 98.892,180.608 C101.608,180.608 103.81,178.407 103.81,175.69 z" fill="#5DAF38" display="none"/>
        <g>
          <path d="M194.144,184.387 C185.124,193.098 172.663,198.485 158.899,198.485 C145.135,198.485 132.674,193.098 123.654,184.387 M211.767,203.971 C197.786,218.003 178.471,226.682 157.137,226.682 C135.802,226.682 116.487,218.003 102.506,203.971" fill-opacity="0" stroke="#3BDA83" stroke-width="4" stroke-linecap="round"/>
          <path d="M229.39,223.157 C210.448,242.756 184.279,254.878 155.374,254.878 C126.47,254.878 100.301,242.756 81.359,223.157" fill-opacity="0" stroke="#3BDA83" stroke-width="4" stroke-linecap="round"/>
        </g>
      </g>
    </g>
    <g id="UFO">
      <path d="M183.283,371.849 L170.297,435.124 C170.297,435.124 266.095,440.322 265.3,439.084 C264.505,437.846 260.953,376.321 260.953,376.321 z" fill="url(#Gradient_12)"/>
      <path d="M293.542,360.725 C292.342,355.293 260.416,340.283 260.416,340.283 L181.139,339.96 C181.139,339.96 149.216,354.719 147.962,360.138 C146.708,365.558 156.136,390.643 221.279,390.901 C286.421,391.159 294.741,366.158 293.542,360.725 z" fill="url(#Gradient_13)"/>
      <path d="M260.6,336.467 C252.736,316.399 230.016,307.541 209.594,312.172 C196.804,315.075 186.421,324.05 181.58,336.148 C180.012,340.079 177.85,344.84 181.32,348.372 C185.461,352.589 193.06,354.15 198.65,355.224 C213.342,358.053 228.853,358.115 243.598,355.407 C249.196,354.371 256.609,352.872 260.78,348.694 C264.277,345.185 262.143,340.405 260.6,336.467 z" fill="#505C70"/>
      <path d="M148.195,359.566 C152.548,369.889 165.515,374.345 175.346,377.182 C190.142,381.452 205.446,382.708 220.769,383.041 L220.769,383.041 C240.07,382.623 260.372,381.313 278.272,373.269 C284.354,370.536 290.758,366.807 293.417,360.392 L293.542,360.725 C293.679,361.652 293.63,361.09 293.581,362.417 C291.046,370.242 282.091,374.458 275,377.227 C261.629,382.45 247.365,384.198 233.148,385.183 C224.671,385.484 228.818,385.402 220.707,385.447 C212.693,385.339 216.743,385.453 208.558,385.097 C192.816,383.945 176.493,381.802 162.114,374.821 C156.013,371.86 149.788,367.83 147.884,360.979 C147.87,360.502 147.86,360.783 147.962,360.138 C148.173,359.589 148.053,359.756 148.195,359.566 z" fill="url(#Gradient_14)"/>
      <path d="M165.777,359.107 C165.298,360.369 163.231,360.752 161.155,359.968 C159.08,359.183 157.792,357.516 158.271,356.254 C158.749,354.992 160.817,354.609 162.892,355.394 C164.971,356.19 166.255,357.845 165.777,359.107 z" fill="url(#Gradient_15)"/>
      <path d="M179.897,366.673 C179.418,367.935 177.351,368.318 175.276,367.534 C173.2,366.749 171.912,365.082 172.391,363.82 C172.87,362.558 174.937,362.175 177.012,362.96 C179.088,363.745 180.376,365.411 179.897,366.673 z" fill="url(#Gradient_16)"/>
      <path d="M198.753,371.666 C198.498,372.99 196.528,373.737 194.356,373.319 C192.173,372.905 190.612,371.494 190.867,370.17 C191.122,368.846 193.092,368.099 195.264,368.517 C197.436,368.935 199.005,370.331 198.753,371.666 z" fill="url(#Gradient_17)"/>
      <path d="M221.871,373.639 C221.868,374.993 220.061,376.075 217.841,376.072 C215.622,376.069 213.827,374.966 213.83,373.612 C213.833,372.258 215.64,371.176 217.859,371.179 C220.079,371.181 221.877,372.297 221.871,373.639 z" fill="url(#Gradient_18)"/>
      <path d="M244.744,372.789 C244.824,374.133 243.085,375.33 240.876,375.459 C238.656,375.59 236.806,374.599 236.726,373.255 C236.646,371.911 238.385,370.714 240.594,370.585 C242.814,370.453 244.676,371.442 244.744,372.789 z" fill="url(#Gradient_19)"/>
      <path d="M264.112,369.135 C264.334,370.466 262.726,371.835 260.544,372.2 C258.359,372.554 256.404,371.761 256.181,370.431 C255.959,369.101 257.567,367.732 259.749,367.366 C261.931,367.001 263.886,367.794 264.112,369.135 z" fill="url(#Gradient_20)"/>
      <path d="M283.215,360.176 C283.883,361.351 282.866,363.196 280.942,364.296 C279.019,365.397 276.907,365.341 276.239,364.167 C275.571,362.993 276.588,361.148 278.512,360.047 C280.447,358.943 282.547,359.002 283.215,360.176 z" fill="url(#Gradient_21)"/>
      <path d="M260.766,333.582 C252.836,314.178 229.89,305.612 209.291,310.083 C196.376,312.885 185.913,321.565 181.014,333.264 C179.425,337.067 177.257,341.67 180.756,345.085 C184.932,349.159 192.616,350.672 198.246,351.712 C213.07,354.444 228.73,354.515 243.607,351.894 C249.252,350.893 256.74,349.448 260.947,345.407 C264.478,342.023 262.324,337.395 260.766,333.582 z" fill="url(#Gradient_22)"/>
      <path d="M225.787,315.233 C226.774,315.188 227.932,315.231 229.194,315.393 C230.457,315.554 231.832,315.819 233.278,316.212 C234.725,316.605 236.238,317.113 237.766,317.765 C239.291,318.405 240.84,319.184 242.353,320.095 C243.865,321.007 245.35,322.047 246.75,323.221 C248.149,324.394 249.473,325.697 250.674,327.131 C251.875,328.564 252.961,330.114 253.886,331.792 C254.808,333.459 255.581,335.251 256.173,337.141 C256.764,339.03 257.166,341.032 257.387,343.13 C257.387,343.13 257.243,342.681 256.869,341.879 C256.496,341.077 255.908,339.93 254.974,338.535 C254.039,337.14 252.772,335.504 251.031,333.74 C249.294,331.987 247.074,330.119 244.25,328.315 C243,327.517 241.487,326.691 239.805,325.874 C238.112,325.06 236.253,324.266 234.332,323.512 C232.415,322.771 230.446,322.067 228.556,321.427 C226.666,320.788 224.854,320.213 223.288,319.694 C221.712,319.177 220.378,318.706 219.431,318.265 C218.484,317.823 217.937,317.421 217.931,317.033 C217.936,316.642 218.495,316.272 219.752,315.96 C221.01,315.647 222.984,315.374 225.787,315.233 z" fill="#DCFFFA" opacity="0.48"/>
      <g>
        <path d="M170.809,381.165 L174.3,382.546 C174.916,382.844 176.103,383.269 176.337,383.914 C177.168,386.154 177.171,386.982 177.507,388.781 C177.874,390.743 171.589,386.759 169.505,383.123 C168.658,381.644 169.275,380.442 170.809,381.165 z" fill="#A3B0D6"/>
        <path d="M270.61,381.56 L267.108,382.912 C266.49,383.2 265.301,383.628 265.057,384.267 C264.215,386.492 264.195,387.326 263.845,389.114 C263.458,391.083 269.787,387.132 271.891,383.52 C272.758,382.069 272.149,380.843 270.61,381.56 z" fill="#A3B0D6"/>
        <path d="M223.753,388.715 C223.176,388.065 221.915,387.817 221.231,387.72 C219.885,387.52 218.406,387.868 217.335,388.74 C217.115,388.921 216.977,389.177 216.978,389.457 C216.998,390.988 219.135,394.913 220.963,394.363 C221.798,394.115 222.448,392.855 222.9,392.174 C223.412,391.402 224.025,390.458 224.045,389.49 C224.049,389.184 223.942,388.92 223.753,388.715 z" fill="#A3B0D6"/>
      </g>
      <path d="M208.516,314.107 C209.096,313.951 209.702,313.801 210.291,313.68 C219.865,311.602 229.937,312.524 238.632,316.265 C247.712,320.171 254.32,326.678 257.749,335.061 L257.963,335.588 C258.764,337.531 259.675,339.75 259.559,341.317 C259.458,342.758 260.237,344.122 261.539,344.748 C279.365,353.406 288.884,359.584 290.352,361.787 C290.41,362.869 289.84,365.655 287.243,369.02 C284.889,372.065 280.136,376.484 270.907,380.212 C270.116,380.534 269.469,381.122 269.087,381.882 C269.074,381.922 269.046,381.954 269.032,381.995 C268.657,382.595 268.108,383.23 267.495,383.809 C267.422,383.718 267.337,383.631 267.256,383.555 C266.359,382.662 265.062,382.327 263.856,382.65 L263.788,382.668 C263.2,382.838 262.6,383.011 261.986,383.176 C251.556,385.97 238.744,387.428 223.907,387.515 C223.601,387.512 223.296,387.557 223.012,387.633 C222.056,387.889 221.233,388.548 220.769,389.453 C220.195,388.266 218.999,387.489 217.662,387.457 C202.095,387.142 188.794,385.318 178.099,382.028 C177.447,381.824 176.776,381.821 176.15,381.989 C175.57,382.144 175.018,382.451 174.577,382.898 C174.462,383.014 174.35,383.142 174.261,383.263 C173.697,382.707 173.196,382.11 172.872,381.539 C172.545,380.59 171.838,379.816 170.903,379.421 C156.364,373.296 151.974,365.329 151.656,361.55 C151.645,361.419 151.641,361.31 151.645,361.236 C153.206,358.964 163.527,352.53 180.67,344.352 C181.968,343.736 182.756,342.403 182.678,340.974 C182.594,339.387 183.509,337.204 184.319,335.268 L184.527,334.773 C188.795,324.584 197.528,317.051 208.516,314.107 M207.601,310.694 C195.579,313.916 185.917,322.307 181.274,333.414 C180.255,335.844 179.019,338.602 179.156,341.161 C171.883,344.634 149.27,355.74 148.221,360.288 C148.12,360.73 148.084,361.276 148.151,361.892 C148.53,366.398 153.163,375.775 169.509,382.683 C169.573,382.874 169.65,383.072 169.776,383.27 C171.556,386.365 176.398,389.737 177.546,389.429 C177.74,389.377 177.831,389.219 177.778,388.928 C177.517,387.547 177.447,386.737 177.056,385.416 C187.008,388.479 200.209,390.659 217.587,391.001 C218.256,392.723 219.812,394.891 221.188,394.522 L221.234,394.51 C222.069,394.261 222.719,393.002 223.171,392.321 C223.432,391.933 223.708,391.506 223.929,391.057 C240.411,390.968 253.121,389.22 262.903,386.599 C263.54,386.429 264.162,386.25 264.774,386.074 C264.444,387.21 264.366,388.011 264.119,389.272 C264.022,389.774 264.358,389.891 264.938,389.736 C266.655,389.275 270.6,386.39 272.168,383.69 C272.202,383.632 272.224,383.578 272.257,383.52 C290.55,376.131 294.244,365.438 293.891,361.436 C293.873,361.234 293.85,361.057 293.804,360.887 C292.8,356.365 270.553,345.222 263.097,341.6 C263.282,339.015 262.041,336.202 261.028,333.743 C253.081,314.319 230.135,305.754 209.536,310.225 C208.893,310.373 208.238,310.524 207.601,310.694 z" fill="#424242" opacity="0.2"/>
      <g id="Lora">
        <path d="M169.367,384.259 C169.367,381.714 167.303,379.65 164.758,379.65 C162.213,379.65 160.149,381.714 160.149,384.259 C160.149,386.804 162.213,388.868 164.758,388.868 C167.303,388.868 169.367,386.804 169.367,384.259 z" fill="#5DAF38" display="none"/>
        <g>
          <path d="M254.054,392.44 C245.601,400.603 233.924,405.652 221.025,405.652 C208.126,405.652 196.448,400.603 187.995,392.44 M270.569,410.793 C257.467,423.943 239.367,432.076 219.373,432.076 C199.38,432.076 181.279,423.943 168.177,410.793" fill-opacity="0" stroke="#3BDA83" stroke-width="4" stroke-linecap="round"/>
          <path d="M287.084,428.773 C269.333,447.14 244.809,458.5 217.722,458.5 C190.634,458.5 166.111,447.14 148.359,428.773" fill-opacity="0" stroke="#3BDA83" stroke-width="4" stroke-linecap="round"/>
        </g>
      </g>
    </g>
    <g id="UFO">
      <path d="M339.403,187.615 L325.64,254.677 C325.64,254.677 427.171,260.186 426.328,258.874 C425.486,257.562 421.722,192.354 421.722,192.354 z" fill="url(#Gradient_23)"/>
      <path d="M456.26,175.826 C454.989,170.068 421.152,154.16 421.152,154.16 L337.13,153.817 C337.13,153.817 303.297,169.459 301.968,175.203 C300.639,180.947 310.631,207.534 379.673,207.808 C448.714,208.081 457.532,181.583 456.26,175.826 z" fill="url(#Gradient_24)"/>
      <path d="M421.347,150.115 C413.013,128.846 388.933,119.458 367.289,124.366 C353.733,127.443 342.729,136.955 337.598,149.777 C335.937,153.943 333.645,158.989 337.323,162.733 C341.712,167.203 349.765,168.856 355.69,169.995 C371.261,172.993 387.701,173.059 403.328,170.189 C409.261,169.091 417.117,167.502 421.538,163.075 C425.244,159.355 422.983,154.289 421.347,150.115 z" fill="#505C70"/>
      <path d="M302.215,174.597 C306.828,185.538 320.572,190.261 330.991,193.267 C346.672,197.793 362.893,199.124 379.133,199.477 L379.133,199.476 C399.589,199.034 421.106,197.646 440.077,189.12 C446.523,186.223 453.31,182.271 456.128,175.472 L456.26,175.826 C456.406,176.807 456.354,176.212 456.302,177.618 C453.615,185.911 444.125,190.38 436.609,193.315 C422.438,198.85 407.321,200.703 392.252,201.747 C383.268,202.066 387.663,201.979 379.067,202.026 C370.573,201.912 374.865,202.033 366.191,201.656 C349.506,200.435 332.207,198.164 316.967,190.765 C310.501,187.627 303.904,183.356 301.885,176.095 C301.871,175.589 301.86,175.887 301.968,175.203 C302.192,174.621 302.065,174.799 302.215,174.597 z" fill="url(#Gradient_25)"/>
      <path d="M320.849,174.111 C320.342,175.448 318.151,175.854 315.951,175.023 C313.751,174.191 312.387,172.425 312.894,171.087 C313.401,169.75 315.592,169.343 317.792,170.175 C319.995,171.019 321.356,172.773 320.849,174.111 z" fill="url(#Gradient_26)"/>
      <path d="M335.814,182.129 C335.307,183.467 333.116,183.873 330.916,183.041 C328.717,182.209 327.352,180.443 327.859,179.106 C328.367,177.768 330.558,177.362 332.757,178.194 C334.957,179.026 336.322,180.792 335.814,182.129 z" fill="url(#Gradient_27)"/>
      <path d="M355.799,187.421 C355.529,188.824 353.441,189.616 351.139,189.173 C348.825,188.734 347.171,187.239 347.441,185.836 C347.711,184.433 349.799,183.641 352.101,184.083 C354.403,184.526 356.065,186.006 355.799,187.421 z" fill="url(#Gradient_28)"/>
      <path d="M380.3,189.512 C380.297,190.947 378.382,192.094 376.03,192.091 C373.677,192.088 371.775,190.918 371.778,189.483 C371.781,188.048 373.696,186.902 376.048,186.905 C378.401,186.907 380.307,188.089 380.3,189.512 z" fill="url(#Gradient_29)"/>
      <path d="M404.543,188.611 C404.627,190.035 402.784,191.305 400.443,191.441 C398.09,191.58 396.129,190.53 396.044,189.105 C395.96,187.681 397.803,186.412 400.144,186.275 C402.497,186.136 404.47,187.183 404.543,188.611 z" fill="url(#Gradient_30)"/>
      <path d="M425.069,184.739 C425.305,186.149 423.6,187.6 421.288,187.987 C418.972,188.362 416.9,187.522 416.664,186.112 C416.428,184.703 418.133,183.251 420.445,182.864 C422.757,182.477 424.83,183.317 425.069,184.739 z" fill="url(#Gradient_31)"/>
      <path d="M445.316,175.244 C446.024,176.488 444.946,178.444 442.907,179.61 C440.868,180.777 438.63,180.718 437.922,179.473 C437.214,178.229 438.292,176.273 440.331,175.107 C442.382,173.937 444.608,173.999 445.316,175.244 z" fill="url(#Gradient_32)"/>
      <path d="M421.523,147.058 C413.118,126.492 388.799,117.414 366.967,122.153 C353.279,125.123 342.191,134.321 336.999,146.721 C335.314,150.751 333.016,155.63 336.725,159.249 C341.151,163.567 349.294,165.171 355.261,166.272 C370.973,169.169 387.57,169.243 403.338,166.466 C409.32,165.405 417.256,163.873 421.715,159.59 C425.457,156.004 423.174,151.098 421.523,147.058 z" fill="url(#Gradient_33)"/>
      <path d="M384.451,127.61 C385.497,127.563 386.724,127.609 388.062,127.78 C389.4,127.951 390.858,128.232 392.39,128.648 C393.923,129.065 395.528,129.604 397.147,130.294 C398.763,130.972 400.405,131.798 402.008,132.764 C403.61,133.73 405.185,134.833 406.668,136.076 C408.151,137.32 409.555,138.701 410.827,140.22 C412.1,141.74 413.251,143.382 414.232,145.161 C415.209,146.928 416.028,148.827 416.655,150.83 C417.282,152.832 417.708,154.953 417.942,157.177 C417.942,157.177 417.789,156.702 417.393,155.852 C416.997,155.002 416.375,153.786 415.384,152.307 C414.393,150.828 413.05,149.095 411.206,147.225 C409.364,145.367 407.012,143.387 404.019,141.476 C402.694,140.63 401.09,139.754 399.307,138.888 C397.513,138.026 395.543,137.184 393.508,136.386 C391.475,135.599 389.389,134.853 387.386,134.176 C385.382,133.498 383.462,132.888 381.803,132.338 C380.131,131.791 378.718,131.291 377.715,130.824 C376.711,130.356 376.131,129.93 376.124,129.518 C376.13,129.104 376.722,128.712 378.055,128.381 C379.387,128.05 381.48,127.76 384.451,127.61 z" fill="#DCFFFA" opacity="0.48"/>
      <g>
        <path d="M326.183,197.488 L329.882,198.952 C330.536,199.268 331.793,199.719 332.041,200.402 C332.923,202.776 332.925,203.653 333.281,205.561 C333.67,207.64 327.009,203.417 324.801,199.564 C323.903,197.996 324.556,196.723 326.183,197.488 z" fill="#A3B0D6"/>
        <path d="M431.956,197.907 L428.245,199.341 C427.59,199.645 426.329,200.099 426.071,200.776 C425.179,203.134 425.157,204.018 424.786,205.913 C424.376,208 431.084,203.813 433.314,199.985 C434.233,198.447 433.587,197.147 431.956,197.907 z" fill="#A3B0D6"/>
        <path d="M382.295,205.49 C381.684,204.801 380.347,204.539 379.622,204.436 C378.195,204.224 376.628,204.592 375.493,205.517 C375.26,205.708 375.113,205.98 375.115,206.277 C375.136,207.899 377.401,212.06 379.338,211.476 C380.223,211.213 380.912,209.879 381.391,209.156 C381.934,208.339 382.583,207.338 382.605,206.311 C382.609,205.987 382.495,205.708 382.295,205.49 z" fill="#A3B0D6"/>
      </g>
      <path d="M366.146,126.417 C366.761,126.252 367.403,126.093 368.027,125.964 C378.174,123.762 388.849,124.739 398.065,128.704 C407.688,132.844 414.691,139.741 418.325,148.625 L418.552,149.184 C419.401,151.244 420.367,153.595 420.244,155.256 C420.136,156.783 420.963,158.229 422.342,158.893 C441.236,168.068 451.324,174.616 452.88,176.951 C452.941,178.097 452.337,181.05 449.585,184.617 C447.09,187.844 442.053,192.527 432.272,196.479 C431.433,196.82 430.747,197.443 430.343,198.249 C430.328,198.291 430.299,198.325 430.284,198.368 C429.886,199.004 429.304,199.677 428.654,200.29 C428.577,200.195 428.488,200.102 428.402,200.022 C427.45,199.075 426.076,198.72 424.798,199.062 L424.726,199.082 C424.102,199.262 423.467,199.445 422.816,199.62 C411.761,202.582 398.183,204.127 382.458,204.219 C382.134,204.215 381.811,204.263 381.509,204.344 C380.497,204.615 379.625,205.314 379.132,206.273 C378.524,205.015 377.256,204.191 375.839,204.158 C359.341,203.824 345.244,201.89 333.908,198.403 C333.218,198.187 332.506,198.184 331.843,198.362 C331.228,198.527 330.644,198.851 330.176,199.325 C330.054,199.448 329.935,199.584 329.841,199.712 C329.243,199.123 328.712,198.49 328.369,197.884 C328.022,196.879 327.273,196.059 326.282,195.64 C310.873,189.148 306.22,180.705 305.883,176.699 C305.872,176.56 305.867,176.445 305.872,176.367 C307.526,173.959 318.464,167.14 336.633,158.473 C338.009,157.82 338.845,156.407 338.762,154.892 C338.673,153.21 339.642,150.896 340.501,148.844 L340.722,148.32 C345.245,137.521 354.501,129.537 366.146,126.417 M365.177,122.8 C352.435,126.215 342.195,135.108 337.274,146.88 C336.194,149.456 334.884,152.378 335.03,155.091 C327.32,158.772 303.355,170.542 302.243,175.362 C302.136,175.83 302.097,176.409 302.169,177.062 C302.57,181.838 307.481,191.776 324.805,199.098 C324.872,199.299 324.954,199.51 325.088,199.72 C326.975,203 332.105,206.573 333.323,206.247 C333.528,206.192 333.625,206.024 333.568,205.716 C333.292,204.253 333.217,203.394 332.803,201.994 C343.351,205.24 357.342,207.551 375.76,207.913 C376.469,209.738 378.118,212.036 379.577,211.645 L379.625,211.632 C380.51,211.369 381.199,210.034 381.678,209.312 C381.955,208.901 382.247,208.448 382.482,207.972 C399.95,207.878 413.421,206.026 423.788,203.248 C424.463,203.067 425.123,202.877 425.771,202.691 C425.421,203.896 425.339,204.745 425.077,206.081 C424.974,206.613 425.33,206.737 425.945,206.572 C427.765,206.084 431.946,203.026 433.608,200.165 C433.643,200.103 433.667,200.046 433.702,199.984 C453.09,192.154 457.004,180.82 456.63,176.579 C456.611,176.365 456.587,176.177 456.539,175.997 C455.474,171.204 431.896,159.395 423.994,155.556 C424.19,152.816 422.874,149.835 421.801,147.229 C413.378,126.642 389.059,117.564 367.227,122.303 C366.545,122.46 365.852,122.62 365.177,122.8 z" fill="#424242" opacity="0.2"/>
      <g id="Lora">
        <path d="M324.654,200.768 C324.654,198.07 322.467,195.883 319.769,195.883 C317.072,195.883 314.885,198.07 314.885,200.768 C314.885,203.465 317.072,205.652 319.769,205.652 C322.467,205.652 324.654,203.465 324.654,200.768 z" fill="#5DAF38" display="none"/>
        <g>
          <path d="M414.38,209.409 C405.421,218.06 393.044,223.411 379.373,223.411 C365.703,223.411 353.326,218.06 344.367,209.409 M431.883,228.86 C417.997,242.797 398.813,251.417 377.623,251.417 C356.433,251.417 337.249,242.797 323.363,228.86" fill-opacity="0" stroke="#3BDA83" stroke-width="4" stroke-linecap="round"/>
          <path d="M449.387,247.916 C430.573,267.382 404.582,279.422 375.873,279.422 C347.164,279.422 321.173,267.382 302.359,247.916" fill-opacity="0" stroke="#3BDA83" stroke-width="4" stroke-linecap="round"/>
        </g>
      </g>
    </g>
    <text transform="matrix(1, 0, 0, 1, 256, 59.5)">
      <tspan x="-237.6" y="25" font-family="JetBrainsMonoNF-Regular" font-size="72" fill="#000000">Space Coast</tspan>
    </text>
    <text transform="matrix(1, 0, 0, 1, 393.495, 373.5)">
      <tspan x="-86.4" y="25" font-family="JetBrainsMonoNF-Regular" font-size="72" fill="#000000">Mesh</tspan>
    </text>
  </g>
</svg>
